<?xml version="1.0" encoding="utf-8"?>
<!-- Generator: Adobe Illustrator 21.0.2, SVG Export Plug-In . SVG Version: 6.00 Build 0)  -->
<svg version="1.1" id="Layer_1" xmlns="http://www.w3.org/2000/svg" xmlns:xlink="http://www.w3.org/1999/xlink" x="0px" y="0px"
	 viewBox="0 0 44.3 44.3" style="enable-background:new 0 0 44.3 44.3;" xml:space="preserve">
<style type="text/css">
	.st0{fill:#3C4B59;}
</style>
<g id="_x30_9-Hirer-registration">
	<g id="FOH_x2F_Desktop_x2F_09.6-Hirer-registration---Intro-to-Lewis" transform="translate(-920.000000, -455.000000)">
		<g id="Group" transform="translate(889.000000, 157.000000)">
			<path id="Page-1" class="st0" d="M39.5,310c-0.8,0-1.4,0.6-1.4,1.4v17.4c0,0.8,0.6,1.4,1.4,1.4h27.9c0.8,0,1.4-0.6,1.4-1.4v-17.4
				c0-0.8-0.6-1.4-1.4-1.4H39.5z M40.4,312.1h26.1l-13,10.2L40.4,312.1z M40.2,314.6l7.1,5.5l-7.1,6.6V314.6z M66.7,314.6v12.1
				l-7.1-6.6L66.7,314.6z M48.9,321.4l3.9,3c0.4,0.3,0.9,0.3,1.3,0l3.9-3l7.2,6.7H41.7L48.9,321.4z"/>
		</g>
	</g>
</g>
</svg>
