<?xml version="1.0" encoding="utf-8"?>
<!-- Generator: Adobe Illustrator 21.0.2, SVG Export Plug-In . SVG Version: 6.00 Build 0)  -->
<svg version="1.1" id="Layer_1" xmlns="http://www.w3.org/2000/svg" xmlns:xlink="http://www.w3.org/1999/xlink" x="0px" y="0px"
	 viewBox="0 0 44.3 44.3" style="enable-background:new 0 0 44.3 44.3;" xml:space="preserve">
<style type="text/css">
	.st0{fill:#3C5A99;}
	.st1{fill:#FFFFFF;}
</style>
<path id="Blue_1_" class="st0" d="M35.9,38.7c1,0,1.7-0.8,1.7-1.7V9.2c0-1-0.8-1.7-1.7-1.7H8.1c-1,0-1.7,0.8-1.7,1.7v27.8
	c0,1,0.8,1.7,1.7,1.7H35.9z"/>
<path id="f" class="st1" d="M27.9,38.7V26.6H32l0.6-4.7h-4.7v-3c0-1.4,0.4-2.3,2.3-2.3l2.5,0v-4.2c-0.4-0.1-1.9-0.2-3.6-0.2
	c-3.6,0-6.1,2.2-6.1,6.2v3.5H19v4.7h4.1v12.1H27.9z"/>
</svg>
