<?xml version="1.0" encoding="utf-8"?>
<!-- Generator: Adobe Illustrator 21.0.2, SVG Export Plug-In . SVG Version: 6.00 Build 0)  -->
<svg version="1.1" id="Layer_1" xmlns="http://www.w3.org/2000/svg" xmlns:xlink="http://www.w3.org/1999/xlink" x="0px" y="0px"
	 viewBox="0 0 44.3 44.3" style="enable-background:new 0 0 44.3 44.3;" xml:space="preserve">
<path d="M21.9,3.4C11.3,3.4,2.7,12,2.7,22.6c0,8.5,5.5,15.7,13.1,18.2c1,0.2,1.3-0.4,1.3-0.9s0-1.9,0-3.6c-5.4,1.1-6.4-2.3-6.4-2.3
	c-1-2.2-2.2-2.8-2.2-2.8c-1.8-1.1,0.1-1.1,0.1-1.1c1.9,0.2,2.9,1.9,2.9,1.9c1.7,2.9,4.5,2.1,5.6,1.6c0.2-1.2,0.7-2.1,1.2-2.6
	C14,30.6,9.5,29,9.5,21.6c0-2.1,0.8-3.8,1.9-5.1c-0.2-0.4-0.9-2.5,0.2-5.1c0,0,1.6-0.5,5.3,1.9c1.5-0.4,3.2-0.6,4.8-0.6
	c1.6,0,3.3,0.3,4.8,0.6c3.7-2.5,5.3-1.9,5.3-1.9c1.1,2.6,0.4,4.6,0.2,5.1c1.3,1.3,2,3.1,2,5.2c0,7.4-4.5,9-8.7,9.4
	c0.7,0.6,1.3,1.8,1.3,3.5c0,2.6,0,4.7,0,5.3c0,0.5,0.4,1.1,1.3,0.9c7.6-2.6,13.1-9.7,13.1-18.2C41,12,32.4,3.4,21.9,3.4L21.9,3.4z"
	/>
</svg>
