<?xml version="1.0" encoding="utf-8"?>
<!-- Generator: Adobe Illustrator 21.0.2, SVG Export Plug-In . SVG Version: 6.00 Build 0)  -->
<svg version="1.1" id="Layer_1" xmlns="http://www.w3.org/2000/svg" xmlns:xlink="http://www.w3.org/1999/xlink" x="0px" y="0px"
	 viewBox="0 0 44.3 44.3" style="enable-background:new 0 0 44.3 44.3;" xml:space="preserve">
<style type="text/css">
	.st0{fill:url(#SVGID_1_);}
	.st1{fill:url(#SVGID_2_);}
	.st2{fill:#FFFFFF;}
</style>
<radialGradient id="SVGID_1_" cx="167.214" cy="-507.8591" r="18.1341" gradientTransform="matrix(0 -1.982 -1.8439 0 -922.7933 374.4905)" gradientUnits="userSpaceOnUse">
	<stop  offset="0" style="stop-color:#FFDD55"/>
	<stop  offset="0.1" style="stop-color:#FFDD55"/>
	<stop  offset="0.5" style="stop-color:#FF543E"/>
	<stop  offset="1" style="stop-color:#C837AB"/>
</radialGradient>
<path class="st0" d="M22.2,4c-7.6,0-9.8,0-10.2,0C10.4,4.2,9.4,4.4,8.4,5C7.6,5.4,6.9,5.8,6.3,6.5c-1.2,1.2-1.8,2.7-2.1,4.4
	c-0.1,0.8-0.2,1-0.2,5.4c0,1.4,0,3.3,0,5.9c0,7.6,0,9.8,0,10.2c0.1,1.5,0.4,2.5,0.9,3.5c1,2,2.8,3.5,5,4c0.7,0.2,1.6,0.3,2.6,0.3
	c0.4,0,5,0,9.6,0s9.2,0,9.6,0c1.2-0.1,1.9-0.2,2.7-0.4c2.2-0.6,4-2,5-4.1c0.5-1,0.7-2,0.9-3.4c0-0.3,0-5.3,0-10.3c0-5,0-9.9,0-10.3
	c-0.1-1.5-0.4-2.4-0.9-3.5c-0.4-0.8-0.9-1.5-1.6-2.1c-1.2-1.1-2.7-1.8-4.4-2.1c-0.8-0.1-1-0.2-5.4-0.2H22.2z"/>
<radialGradient id="SVGID_2_" cx="156.574" cy="-389.4341" r="18.1341" gradientTransform="matrix(0.1739 0.8687 3.5818 -0.7172 1365.577 -408.6834)" gradientUnits="userSpaceOnUse">
	<stop  offset="0" style="stop-color:#3771C8"/>
	<stop  offset="0.128" style="stop-color:#3771C8"/>
	<stop  offset="1" style="stop-color:#6600FF;stop-opacity:0"/>
</radialGradient>
<path class="st1" d="M22.2,4c-7.6,0-9.8,0-10.2,0C10.4,4.2,9.4,4.4,8.4,5C7.6,5.4,6.9,5.8,6.3,6.5c-1.2,1.2-1.8,2.7-2.1,4.4
	c-0.1,0.8-0.2,1-0.2,5.4c0,1.4,0,3.3,0,5.9c0,7.6,0,9.8,0,10.2c0.1,1.5,0.4,2.5,0.9,3.5c1,2,2.8,3.5,5,4c0.7,0.2,1.6,0.3,2.6,0.3
	c0.4,0,5,0,9.6,0s9.2,0,9.6,0c1.2-0.1,1.9-0.2,2.7-0.4c2.2-0.6,4-2,5-4.1c0.5-1,0.7-2,0.9-3.4c0-0.3,0-5.3,0-10.3c0-5,0-9.9,0-10.3
	c-0.1-1.5-0.4-2.4-0.9-3.5c-0.4-0.8-0.9-1.5-1.6-2.1c-1.2-1.1-2.7-1.8-4.4-2.1c-0.8-0.1-1-0.2-5.4-0.2H22.2z"/>
<path class="st2" d="M22.1,8.8c-3.6,0-4.1,0-5.5,0.1c-1.4,0.1-2.4,0.3-3.3,0.6c-0.9,0.3-1.6,0.8-2.4,1.5c-0.7,0.7-1.2,1.5-1.5,2.4
	c-0.3,0.9-0.6,1.8-0.6,3.3c-0.1,1.4-0.1,1.9-0.1,5.5s0,4.1,0.1,5.5c0.1,1.4,0.3,2.4,0.6,3.3c0.3,0.9,0.8,1.6,1.5,2.4
	c0.7,0.7,1.5,1.2,2.4,1.5c0.9,0.3,1.8,0.6,3.3,0.6c1.4,0.1,1.9,0.1,5.5,0.1c3.6,0,4.1,0,5.5-0.1c1.4-0.1,2.4-0.3,3.3-0.6
	c0.9-0.3,1.6-0.8,2.4-1.5c0.7-0.7,1.2-1.5,1.5-2.4c0.3-0.9,0.6-1.8,0.6-3.3c0.1-1.4,0.1-1.9,0.1-5.5s0-4.1-0.1-5.5
	c-0.1-1.4-0.3-2.4-0.6-3.3c-0.3-0.9-0.8-1.6-1.5-2.4c-0.7-0.7-1.5-1.2-2.4-1.5c-0.9-0.3-1.8-0.6-3.3-0.6C26.2,8.8,25.8,8.8,22.1,8.8
	L22.1,8.8z M20.9,11.2c0.4,0,0.8,0,1.2,0c3.6,0,4,0,5.4,0.1c1.3,0.1,2,0.3,2.5,0.5c0.6,0.2,1.1,0.5,1.5,1c0.5,0.5,0.8,0.9,1,1.5
	c0.2,0.5,0.4,1.2,0.5,2.5c0.1,1.4,0.1,1.8,0.1,5.4s0,4-0.1,5.4c-0.1,1.3-0.3,2-0.5,2.5c-0.2,0.6-0.5,1.1-1,1.5
	c-0.5,0.5-0.9,0.8-1.5,1c-0.5,0.2-1.2,0.4-2.5,0.5c-1.4,0.1-1.8,0.1-5.4,0.1c-3.6,0-4,0-5.4-0.1c-1.3-0.1-2-0.3-2.5-0.5
	c-0.6-0.2-1.1-0.5-1.5-1c-0.5-0.5-0.8-0.9-1-1.5c-0.2-0.5-0.4-1.2-0.5-2.5c-0.1-1.4-0.1-1.8-0.1-5.4s0-4,0.1-5.4
	c0.1-1.3,0.3-2,0.5-2.5c0.2-0.6,0.5-1.1,1-1.5c0.5-0.5,0.9-0.8,1.5-1c0.5-0.2,1.2-0.4,2.5-0.5C18,11.2,18.5,11.2,20.9,11.2
	L20.9,11.2z M29.3,13.4c-0.9,0-1.6,0.7-1.6,1.6c0,0.9,0.7,1.6,1.6,1.6c0.9,0,1.6-0.7,1.6-1.6S30.2,13.4,29.3,13.4L29.3,13.4z
	 M22.1,15.3c-3.8,0-6.9,3.1-6.9,6.9c0,3.8,3.1,6.9,6.9,6.9c3.8,0,6.9-3.1,6.9-6.9S25.9,15.3,22.1,15.3L22.1,15.3z M22.1,17.7
	c2.5,0,4.5,2,4.5,4.5c0,2.5-2,4.5-4.5,4.5c-2.5,0-4.5-2-4.5-4.5C17.7,19.7,19.7,17.7,22.1,17.7z"/>
</svg>
