<?xml version="1.0" encoding="utf-8"?>
<!-- Generator: Adobe Illustrator 21.0.2, SVG Export Plug-In . SVG Version: 6.00 Build 0)  -->
<svg version="1.1" id="Layer_1" xmlns="http://www.w3.org/2000/svg" xmlns:xlink="http://www.w3.org/1999/xlink" x="0px" y="0px"
	 viewBox="0 0 44.3 44.3" style="enable-background:new 0 0 44.3 44.3;" xml:space="preserve">
<style type="text/css">
	.st0{fill:#007BB5;}
	.st1{fill:#FFFFFF;}
</style>
<g>
	<path class="st0" d="M38.8,36.9c0,1.2-0.9,2.1-2.1,2.1H7.1C5.9,39,5,38.1,5,36.9V7.4c0-1.2,0.9-2.1,2.1-2.1h29.5
		c1.2,0,2.1,0.9,2.1,2.1V36.9z"/>
	<g>
		<rect x="12.4" y="16.9" class="st1" width="4.2" height="14.8"/>
		<path class="st1" d="M26.6,16.9c-2.9,0-3.4,1.1-3.7,2.1v-2.1h-4.2v14.8h4.2v-8.4c0-1.4,0.7-2.1,2.1-2.1c1.3,0,2.1,0.7,2.1,2.1v8.4
			h4.2v-7.4C31.4,20,30.8,16.9,26.6,16.9z"/>
		<circle class="st1" cx="14.5" cy="13.7" r="2.1"/>
	</g>
</g>
</svg>
