<?xml version="1.0" encoding="utf-8"?>
<!-- Generator: Adobe Illustrator 21.0.2, SVG Export Plug-In . SVG Version: 6.00 Build 0)  -->
<svg version="1.1" id="Layer_1" xmlns="http://www.w3.org/2000/svg" xmlns:xlink="http://www.w3.org/1999/xlink" x="0px" y="0px"
	 viewBox="0 0 44.3 44.3" style="enable-background:new 0 0 44.3 44.3;" xml:space="preserve">
<style type="text/css">
	.st0{fill:#1DA1F2;}
</style>
<g transform="translate(-539.18 -568.86)">
	<path class="st0" d="M556,605c13,0,20.1-10.7,20.1-20.1c0-0.3,0-0.6,0-0.9c1.4-1,2.6-2.2,3.5-3.7c-1.3,0.6-2.6,0.9-4.1,1.1
		c1.5-0.9,2.6-2.3,3.1-3.9c-1.4,0.8-2.9,1.4-4.5,1.7c-1.3-1.4-3.1-2.2-5.1-2.2c-3.9,0-7.1,3.2-7.1,7.1c0,0.6,0.1,1.1,0.2,1.6
		c-5.9-0.3-11.1-3.1-14.5-7.4c-0.6,1-1,2.3-1,3.5c0,2.4,1.2,4.6,3.1,5.9c-1.2,0-2.2-0.4-3.2-0.9c0,0,0,0.1,0,0.1
		c0,3.4,2.4,6.3,5.7,6.9c-0.6,0.2-1.2,0.2-1.9,0.2c-0.5,0-0.9,0-1.3-0.1c0.9,2.8,3.5,4.8,6.6,4.9c-2.4,1.9-5.5,3-8.8,3
		c-0.6,0-1.1,0-1.7-0.1C548.3,603.8,552,605,556,605"/>
</g>
</svg>
