<?xml version="1.0" encoding="utf-8"?>
<!-- Generator: Adobe Illustrator 15.1.0, SVG Export Plug-In . SVG Version: 6.00 Build 0)  -->
<!DOCTYPE svg PUBLIC "-//W3C//DTD SVG 1.1//EN" "http://www.w3.org/Graphics/SVG/1.1/DTD/svg11.dtd">
<svg version="1.1" xmlns="http://www.w3.org/2000/svg" xmlns:xlink="http://www.w3.org/1999/xlink" x="0px" y="0px"
	 width="595.28px" height="841.89px" viewBox="0 0 595.28 841.89" enable-background="new 0 0 595.28 841.89" xml:space="preserve">
<g id="ruby">
	<g>
		<g>
			<path fill-rule="evenodd" clip-rule="evenodd" fill="#ED1C24" d="M248,321h30v-30h40v30h30v-30h70v-40H178v40h70V321z M178,291
				h-30v30h30V291z M448,321v-30h-30v30H448z M148,321h-30v30h30V321z M378,321h-30v30H248v-30h-30v30h-70v40h70v30h30v-30h100v30
				h30v-30h70v-40h-70V321z M478,351v-30h-30v30H478z M78,351v40h40v-40H78z M478,351v40h40v-40H478z M118,391v30h30v-30H118z
				 M448,421h30v-30h-30V421z M148,421v30h30v-30H148z M248,421v30h30v-30H248z M318,451h30v-30h-30V451z M418,451h30v-30h-30V451z
				 M178,451v40h40v-40H178z M278,491h40v-40h-40V491z M378,491h40v-40h-40V491z M218,491v30h30v-30H218z M348,521h30v-30h-30V521z
				 M248,521v30h30v-30H248z M318,551h30v-30h-30V551z M278,591h40v-40h-40V591z"/>
		</g>
		<g>
			<path fill="none" stroke="#ED1C24" stroke-miterlimit="10" d="M248,321h30v-30h40v30h30v-30h70v-40H178v40h70V321z M178,291h-30
				v30h30V291z M448,321v-30h-30v30H448z M148,321h-30v30h30V321z M378,321h-30v30H248v-30h-30v30h-70v40h70v30h30v-30h100v30h30
				v-30h70v-40h-70V321z M478,351v-30h-30v30H478z M78,351v40h40v-40H78z M478,351v40h40v-40H478z M118,391v30h30v-30H118z M448,421
				h30v-30h-30V421z M148,421v30h30v-30H148z M248,421v30h30v-30H248z M318,451h30v-30h-30V451z M418,451h30v-30h-30V451z M178,451
				v40h40v-40H178z M278,491h40v-40h-40V491z M378,491h40v-40h-40V491z M218,491v30h30v-30H218z M348,521h30v-30h-30V521z M248,521
				v30h30v-30H248z M318,551h30v-30h-30V551z M278,591h40v-40h-40V591z"/>
		</g>
	</g>
</g>
<g id="banner">
	<path fill-rule="evenodd" clip-rule="evenodd" fill="#2E3192" d="M37.641,341h520v60h-520V341z"/>
</g>
<g id="rails_girls">
	<g>
		<g>
			<path fill-rule="evenodd" clip-rule="evenodd" fill="#FFFFFF" d="M118,361h10v-10h-20v40h10v-10h10v-10h-10V361z M168,351h-10v10
				h10V351z M188,391h10v-40h-10V391z M218,351h-10v40h30v-10h-20V351z M248,371h10v-10h20v-10h-30V371z M318,391h30v-20h-10v10h-10
				v-20h20v-10h-30V391z M358,391h10v-40h-10V391z M388,361h10v-10h-20v40h10v-10h10v-10h-10V361z M428,351h-10v40h30v-10h-20V351z
				 M458,351v20h10v-10h20v-10H458z M128,371h10v-10h-10V371z M168,371h-10v-10h-10v30h10v-10h10v10h10v-30h-10V371z M398,371h10
				v-10h-10V371z M268,381h-20v10h30v-20h-10V381z M478,381h-20v10h30v-20h-10V381z M138,391v-10h-10v10H138z M408,391v-10h-10v10
				H408z"/>
		</g>
	</g>
</g>
</svg>
