<?xml version="1.0" encoding="utf-8"?>
<!-- Generator: Adobe Illustrator 18.1.1, SVG Export Plug-In . SVG Version: 6.00 Build 0)  -->
<svg version="1.1" id="Layer_1" xmlns="http://www.w3.org/2000/svg" xmlns:xlink="http://www.w3.org/1999/xlink" x="0px" y="0px"
	 viewBox="0 0 411.5 72.5" enable-background="new 0 0 411.5 72.5" xml:space="preserve">
<g>
	<polygon fill="#FFFFFF" points="308.8,37.1 309,37.1 316,37.1 316,29.9 309,29.9 308.8,29.9 301.8,29.9 301.8,36.9 294.8,36.9 
		294.8,43.9 294.8,44.1 294.8,51.1 302,51.1 302,44.1 302,43.9 302,37.1 	"/>
	<polygon fill="#FFFFFF" points="309.3,50.8 302.1,50.8 302.1,58 308.1,58 308.1,64 315.3,64 315.3,56.8 309.3,56.8 	"/>
	<rect x="316.1" y="37.2" fill="#FFFFFF" width="7.2" height="7.2"/>
	<rect x="315.3" y="64.1" fill="#FFFFFF" width="7.2" height="7.2"/>
	<polygon fill="#FFFFFF" points="337.6,37.4 337.6,30.4 330.6,30.4 330.4,30.4 323.4,30.4 323.4,37.6 330.4,37.6 330.6,37.6 
		337.4,37.6 337.4,44.4 337.4,44.6 337.4,51.6 344.6,51.6 344.6,44.6 344.6,44.4 344.6,37.4 	"/>
	<rect x="330.1" y="51.3" fill="#FFFFFF" width="7.2" height="7.2"/>
	<rect x="322.8" y="57.3" fill="#FFFFFF" width="7.2" height="7.2"/>
</g>
<path fill="#FFFFFF" d="M410.6,22.1c-1-2-2.6-4.5-5-7.4c-2.4-3-5.8-6.8-8.4-7.9c-1-0.4-1.8-0.4-2.5,0L386,5.7l-0.3,0.3l-11.9,30.8
	l-1,1.9l0.2,0.4l1.2,1.5l32-5.5l0.2,0l4.4-8C411.8,26.2,411.8,24.5,410.6,22.1z M378.1,29.2l7.2-18.5c0.3,1.6,0.7,3.7,0.8,4.2
	L378.1,29.2z M407.6,27.4c0.6,0.2,1.1,0.3,1.6,0.3l-1.9,3.6L407.6,27.4z M386.9,12.6c-0.5-2.6-0.4-4.5-0.3-5.5l6.7,0.8L386.9,12.6z
	 M388.8,12.6l4.7-3.5c0,1.1,0.4,2.5,1.2,4.2L388.8,12.6z M395.2,14.7l-3.8,8.2c-2-2.9-3.5-6-4.3-9.2L395.2,14.7z M392.4,24.2
	l7.4-1.8l-1.5,7.6C396.1,28.3,394.1,26.4,392.4,24.2z M392.7,22.8l3.3-7.1c0.9,1.4,1.9,2.9,3,4.3c0.3,0.4,0.6,0.7,0.9,1L392.7,22.8z
	 M397.6,31l-16.2,7.2l-6.2,1.1l16.1-14.5C393.2,27.2,395.3,29.3,397.6,31z M398.8,31.9c1.7,1.2,3.2,2,4.4,2.6l-16.7,2.9L398.8,31.9z
	 M399.5,30.1l1.5-7.8c1.7,1.9,3.5,3.4,5,4.3L399.5,30.1z M374.9,37.4l11.8-21c0.9,2.6,2.3,5.1,4,7.5l-16,14.4L374.9,37.4z
	 M404.9,33.8c-1.1-0.5-2.9-1.3-4.9-2.6l6.3-3.4l-0.6,6.4C405.5,34.1,405.3,34,404.9,33.8z M407.9,26.2c-0.1,0-0.3-0.1-0.4-0.2
	c-2.5-1.5-5.3-4-7.5-6.8c-1.3-1.7-2.5-3.4-3.4-5l-0.2-0.4l-0.1-0.2c-1.5-2.9-1.9-5.1-1-5.8c0.2-0.1,0.4-0.2,0.6-0.2
	c0.3,0,0.6,0.1,0.9,0.2c1.8,0.8,4.6,3.4,7.9,7.5c2.3,2.9,3.9,5.3,4.8,7.2c0.9,1.9,1.1,3.2,0.5,3.7C409.6,26.6,408.8,26.6,407.9,26.2
	z"/>
<path fill="#FFFFFF" d="M252.5,50.7L249,54l0,0.1l1.6,17.3l1,0.4l0.2,0l0.8-0.8l14.2-10.4l0.1-0.2l-1.8-4.4c0.1-0.4,0-0.8-0.3-1.3
	c-0.9-1.2-3.3-2.4-5.2-3.2c-1.8-0.8-3.3-1.3-4.5-1.5C253.7,49.8,252.9,50,252.5,50.7z M262.3,61.7c0.3,0,1.4-0.1,2.3-0.1l-8.5,6.3
	L262.3,61.7z M250.9,53.1l1.6-1.5c0.1,0.2,0.2,0.5,0.4,0.8L250.9,53.1z M264.9,57l1.3,3.3c-0.5,0.2-1.4,0.5-2.9,0.6L264.9,57z
	 M261.8,57c1,0.2,1.8,0.2,2.4,0l-1.1,2.9L261.8,57z M262.8,61c-1.8,0-3.6-0.3-5.3-0.9l3.7-3.1L262.8,61z M252.8,57.5l3.7-1.8
	l0.1,4.1C255.2,59.2,254,58.4,252.8,57.5z M257.2,55.5c0.2,0.1,0.4,0.2,0.7,0.3c0.9,0.4,1.8,0.7,2.6,1l-3.2,2.7L257.2,55.5z
	 M256.4,60.4l-5.2,10.3l-0.3-3.3l1.4-9.4C253.6,59,255,59.8,256.4,60.4z M250.7,64.7l-0.8-9c0.5,0.5,1.1,1.2,1.9,1.9L250.7,64.7z
	 M253.5,53.1c0.7,0.6,1.7,1.3,2.9,2l-3.8,1.9L253.5,53.1z M251.9,70.9l5.2-10.3c1.4,0.5,2.9,0.9,4.4,1l-9.2,9L251.9,70.9z
	 M249.6,54.3l3.2-1.2l-0.9,3.8c-1-0.8-1.6-1.6-2-2.1C249.8,54.5,249.7,54.4,249.6,54.3z M253.1,51c0.2-0.4,0.9-0.5,2-0.3
	c1.1,0.2,2.6,0.7,4.4,1.5c2.6,1.1,4.3,2.2,5,3c0.1,0.2,0.2,0.3,0.2,0.4c0,0.1,0,0.2,0,0.3c-0.2,0.5-1.4,0.6-3.1,0.3l-0.1,0l-0.2,0
	c-0.9-0.2-2-0.6-3-1.1c-1.8-0.8-3.4-1.8-4.6-2.9c-0.1-0.1-0.1-0.1-0.1-0.2C253.1,51.6,253,51.3,253.1,51z"/>
<g>
	<g>
		<g>
			<polygon fill="#FFFFFF" points="69.4,48.8 69.4,40.9 45.7,40.9 45.7,72.5 69.4,72.5 69.4,56.7 61.5,56.7 61.5,64.6 53.6,64.6 
				53.6,48.8 			"/>
		</g>
	</g>
	<g>
		<g>
			<polygon fill="#FFFFFF" points="169.2,48.8 169.2,40.9 145.5,40.9 145.5,72.5 169.2,72.5 169.2,54.6 161.3,54.6 161.3,64.6 
				153.4,64.6 153.4,48.8 			"/>
		</g>
	</g>
	<polygon fill="#FFFFFF" points="250.5,0 250.5,15.5 258.3,15.5 258.3,7.7 273.8,7.7 273.8,0 	"/>
	<polygon fill="#FFFFFF" points="46.6,15.5 38.9,15.5 38.9,7.7 31.2,7.7 31.2,30.9 38.9,30.9 38.9,23.2 46.6,23.2 46.6,30.9 
		54.4,30.9 54.4,7.7 46.6,7.7 	"/>
	<rect x="62.1" y="0" fill="#FFFFFF" width="7.7" height="30.9"/>
	<polygon fill="#FFFFFF" points="100.8,23.2 85.3,23.2 85.3,0 77.6,0 77.6,30.9 100.8,30.9 	"/>
	<rect x="15.7" y="23.2" fill="#FFFFFF" width="7.7" height="7.7"/>
	<polygon fill="#FFFFFF" points="8,15.5 8,7.7 15.7,7.7 15.7,0 0.2,0 0.2,30.9 8,30.9 8,23.2 15.7,23.2 15.7,15.5 	"/>
	<polygon fill="#FFFFFF" points="116.2,7.7 131.7,7.7 131.7,0 108.5,0 108.5,15.5 116.2,15.5 	"/>
	<polygon fill="#FFFFFF" points="116.2,12.2 131.7,12.2 131.7,19.9 108.5,19.9 108.5,4.5 116.2,4.5 	"/>
	<polygon fill="#FFFFFF" points="258.2,12.2 273.8,12.2 273.8,19.9 250.5,19.9 250.5,4.5 258.2,4.5 	"/>
	<rect x="38.9" y="0" fill="#FFFFFF" width="7.7" height="7.7"/>
	<polygon fill="#FFFFFF" points="131.7,15.5 124,15.5 124,23.2 108.5,23.2 108.5,30.9 131.7,30.9 	"/>
	<rect x="173.2" y="0" fill="#FFFFFF" width="7.7" height="30.9"/>
	<rect x="204.2" y="7.7" fill="#FFFFFF" width="7.7" height="7.7"/>
	<polygon fill="#FFFFFF" points="196.4,7.7 204.2,7.7 204.2,0 188.7,0 188.7,30.9 196.4,30.9 196.4,23.2 204.2,23.2 204.2,15.5 
		196.4,15.5 	"/>
	<rect x="204.2" y="23.2" fill="#FFFFFF" width="7.7" height="7.7"/>
	<polygon fill="#FFFFFF" points="266,23.2 250.6,23.2 250.6,30.9 273.8,30.9 273.8,15.5 266,15.5 	"/>
	<polygon fill="#FFFFFF" points="165.5,15.5 157.8,15.5 157.8,23.2 150,23.2 150,7.7 165.5,7.7 165.5,0 142.3,0 142.3,30.9 
		165.5,30.9 	"/>
	<polygon fill="#FFFFFF" points="227.4,0 219.6,0 219.6,30.9 242.8,30.9 242.8,23.2 227.4,23.2 	"/>
	<rect x="15.7" y="7.7" fill="#FFFFFF" width="7.7" height="7.7"/>
	<rect x="0" y="64.6" fill="#FFFFFF" width="7.9" height="7.9"/>
	<path fill="#FFFFFF" d="M93.1,48.8h-7.9c0-2.6,0-5.3,0-7.9c-2.6,0-5.3,0-7.9,0c0,10.5,0,21.1,0,31.6c2.6,0,5.3,0,7.9,0
		c0-5.3,0-10.5,0-15.8h7.9V48.8z"/>
	<path fill="#FFFFFF" d="M120.7,40.9L120.7,40.9c-1.9,0-3.8,0-5.8,0c0,10.5,0,21.1,0,31.6c2.6,0,5.3,0,7.9,0c0,0,0,0,0,0l7.9,0v-7.9
		h-7.9c0-5.3,0-10.5,0-15.8h7.9v-7.9H120.7z"/>
	<polygon fill="#FFFFFF" points="130.8,54.6 130.8,56.7 130.8,64.6 138.6,64.6 138.6,56.7 138.6,54.6 138.6,48.8 130.8,48.8 	"/>
	<rect x="61.5" y="44.5" fill="#FFFFFF" width="7.9" height="16.4"/>
	<rect x="161.3" y="44.5" fill="#FFFFFF" width="7.9" height="12.1"/>
	<path fill="#FFFFFF" d="M22.5,40.9c-2.6,0-5.3,0-7.9,0c0,10.5,0,21.1,0,31.6c7.9,0,15.8,0,23.7,0c0-2.6,0-5.3,0-7.9
		c-5.3,0-10.5,0-15.8,0C22.5,56.7,22.5,48.8,22.5,40.9z"/>
	<path fill="#FFFFFF" d="M99.2,56.7h-7.9v7.9h7.9c0,2.6,0,5.3,0,7.9c2.6,0,5.3,0,7.9,0c0-10.5,0-21.1,0-31.6c-2.6,0-5.3,0-7.9,0
		C99.2,46.1,99.2,51.4,99.2,56.7z"/>
	<path fill="#FFFFFF" d="M193.4,48.8h-7.9c0-2.6,0-5.3,0-7.9c-2.6,0-5.3,0-7.9,0c0,10.5,0,21.1,0,31.6c2.6,0,5.3,0,7.9,0
		c0-5.3,0-10.5,0-15.8h7.9V48.8z"/>
	<path fill="#FFFFFF" d="M199.5,56.7h-7.9v7.9h7.9c0,2.6,0,5.3,0,7.9c2.6,0,5.3,0,7.9,0c0-10.5,0-21.1,0-31.6c-2.6,0-5.3,0-7.9,0
		C199.5,46.1,199.5,51.4,199.5,56.7z"/>
</g>
</svg>
