<?xml version="1.0" encoding="utf-8"?>
<!-- Generator: Adobe Illustrator 16.2.1, SVG Export Plug-In . SVG Version: 6.00 Build 0)  -->
<!DOCTYPE svg PUBLIC "-//W3C//DTD SVG 1.1//EN" "http://www.w3.org/Graphics/SVG/1.1/DTD/svg11.dtd">
<svg version="1.1" id="Layer_1" xmlns="http://www.w3.org/2000/svg" xmlns:xlink="http://www.w3.org/1999/xlink" x="0px" y="0px"
	 width="418.479px" height="397.48px" viewBox="0 0 418.479 397.48" enable-background="new 0 0 418.479 397.48"
	 xml:space="preserve">
<path opacity="0.4" fill="#5B5773" d="M65.835,347.398c0,0-9.632,6.799-9.065,10.199c0.566,3.399-2.267,7.933,13.032,6.233
	c15.298-1.7,53.262-6.801,57.228-5.1c3.967,1.699,14.732,3.966,22.099,3.399c12.076-0.929,20.398-2.267,22.665-2.834
	c2.267-0.565,17.565,0.567,24.931,0.567c7.367,0,26.632-2.267,36.831-1.133c10.199,1.133,22.665,1.699,24.931,0
	c2.267-1.701,13.6,1.699,18.132-0.567s20.398-7.933,32.298-6.799c11.898,1.133,26.631,2.832,30.03,2.267
	c3.399-0.567,14.65-0.673,18.699-0.567c4.046,0.104-0.567-6.799,3.399-9.065c3.966-2.268,13.599-1.7,11.332-2.833
	c-2.267-1.134-13.032-3.967-28.897-1.7c-15.865,2.266-75.928,11.899-84.427,9.065c-8.499-2.833,5.1-6.232,1.7-7.365
	c-3.399-1.134-16.432-2.834-27.197-1.134c-10.766,1.699-68.562,10.766-77.627,10.199c-9.066-0.566-35.13-3.4-47.029-2.833
	C97,347.965,65.835,347.398,65.835,347.398z"/>
<path fill="#FFFFFF" d="M264.53,287.055c2.641-0.76,3.979,16.711-1.312,20.484c-4.294,3.061-7.592,9.609-8.681,12.976
	c0.59-2.471,1.156-4.963,1.633-7.287c0.226-1.179,0.441-2.312,0.601-3.365c0.204-1.27,0.351-2.438,0.407-3.456
	c0.102-1.938-0.182-4.931-0.691-8.317c-0.17-1.203-0.374-2.449-0.601-3.718C256.735,293.158,262.274,287.7,264.53,287.055z"/>
<path fill="#FFFFFF" d="M256.514,309.522l0.352,0.057c-0.159,1.054-0.374,2.187-0.601,3.365l-0.126-0.022
	c-2.956,2.267-9.744,4.001-20.271,5.746c-0.613-0.487-1.248-0.986-1.882-1.485C250.768,314.418,256.514,309.522,256.514,309.522z"/>
<path fill="#FFFFFF" d="M255.006,349.945c2.268,2.267,4.907,7.932,0.749,7.548c-4.148-0.375-11.707-2.268-19.266-3.016
	c-2.413-0.237-5.212-0.137-8.193,0.125l-0.022-0.227c4.159-0.374,5.949-2.924,9.734-6.698c0.793-0.793,1.733-1.45,2.709-1.96
	c0.918-0.509,1.87-0.896,2.786-1.18c2.71-0.895,5.078-1.019,5.078-1.019S252.739,347.678,255.006,349.945z"/>
<path fill="#FFFFFF" d="M256.582,297.805l-0.068,0.012l-7.56,4.532c-1.925,1.099-11.876,3.399-21.371,5.156
	c1.393-1.519,2.764-2.98,4.057-4.352c3.434-0.363,6.312-0.86,8.25-1.563c7.797-2.811,13.79-8.182,15.649-9.973
	c0.159,0.827,0.307,1.654,0.441,2.47C256.208,295.357,256.411,296.603,256.582,297.805z"/>
<path fill="#22315E" d="M256.139,312.922l0.126,0.022c-0.477,2.324-1.043,4.815-1.632,7.287c0,0,0,0,0,0.012
	c-0.227,0.714-0.363,1.279-0.386,1.643c-0.998,4.272-1.938,8.318-2.267,11.061c0,0-6.811-6.811-16.113-14.278
	C246.395,316.923,253.183,315.188,256.139,312.922z"/>
<path fill="#22315E" d="M251.98,275.162c0.624,2.493,2.267,9.508,3.559,16.455c-1.859,1.791-7.853,7.162-15.649,9.973
	c-1.938,0.703-4.816,1.2-8.25,1.563c3.785-3.989,7.003-7.173,8.634-8.363C244.422,291.765,251.98,275.162,251.98,275.162z"/>
<path fill="#FFFFFF" d="M251.98,275.151v0.011c0,0-7.559,16.603-11.707,19.628c-1.631,1.19-4.849,4.374-8.634,8.363
	c-2.924,0.317-6.256,0.533-9.746,0.68l-0.011-0.362c2.55-0.17,5.541-1.507,5.541-1.507s20.397-31.345,21.53-36.264l0.239-0.069
	C250.417,269.803,251.448,273.021,251.98,275.151z"/>
<path fill="#FFFFFF" d="M251.98,332.946c-0.192,1.598-0.497,3.07-0.85,4.362l-1.043-0.215c0,0-16.239-14.346-19.265-14.731
	c-3.015-0.375-7.934,1.133-7.934,1.133s-0.668-0.328-0.668,0.113l-2.084,0.159c-0.069-0.976-0.159-1.894-0.239-2.72
	c6.04-0.84,11.367-1.609,15.969-2.38C245.17,326.136,251.98,332.946,251.98,332.946z"/>
<path fill="#C52A2B" d="M250.088,337.094l1.043,0.215c-1.064,3.875-2.55,6.211-2.55,6.211s-2.368,0.124-5.078,1.019l-0.214-0.645
	c0,0-18.88-16.613-20.399-18.88c-0.497-0.76-0.668-1.179-0.668-1.405c0-0.441,0.668-0.113,0.668-0.113s4.919-1.508,7.934-1.133
	C233.849,322.748,250.088,337.094,250.088,337.094z"/>
<path fill="#C52A2B" d="M249.193,265.631l-0.239,0.069c-1.133,4.919-21.53,36.264-21.53,36.264s-2.991,1.337-5.541,1.507
	c-0.171,0-0.34,0.012-0.499,0.012c-2.641,0-2.268-2.267-0.374-5.293c1.88-3.025,21.146-33.623,21.146-33.623l-0.079-0.124
	c3.955-2.369,5.371-4.023,5.371-4.023l0.262-0.069C248.23,262.255,248.729,264.012,249.193,265.631z"/>
<path fill="#FFFFFF" d="M207.036,238.105l-0.011,0.397c-4.907,0.385-4.148,3.025-2.267,3.399c1.892,0.385,7.933-0.374,6.799-2.267
	C210.867,238.492,208.668,238.185,207.036,238.105z M244.694,247.397c0.032,0.182,0.079,0.375,0.113,0.557
	c0.929,4.6,1.938,8.748,2.901,12.396l-0.262,0.069c0,0-1.416,1.654-5.371,4.023c-1.042,0.623-2.267,1.303-3.694,2.017
	c-4.113,2.062-13.338,2.323-22.676,2.879c-1.009,0.057-2.029,0.113-3.037,0.182c-2.992,0.215-5.938,0.476-8.669,0.85
	c-0.919,0.137-1.813,0.283-2.675,0.441c-0.907,0.159-1.779,0.351-2.606,0.556c-2.708,0.68-6.006,0.726-9.484,0.407
	c-0.012,0-0.012,0-0.012,0c-6.732-0.634-14.166-2.685-19.423-4.374c-4.17-1.338-6.97-2.447-6.97-2.447l-0.465-0.113
	c4.126-16.773,6.483-22.723,5.757-25.951c-0.759-3.399-5.667-9.066-6.041-11.717c-0.385-2.641-0.385-2.641-0.385-2.641
	s4.533-1.134,10.959,2.266c0,0,5.666-4.906,12.465-6.426c6.799-1.507,19.265-1.881,23.039-2.641
	c3.785-0.759,12.852,3.4,15.117,3.774c4.148-1.881,10.199-3.399,13.214-3.399c3.025,0,3.784-1.134,4.159,0.385
	c0.374,1.507-6.426,3.4-7.174,5.28c-0.76,1.894-1.133,3.401,1.507,4.919c1.145,0.657,2.663,1.893,4.218,4.159
	c1.109,1.632,2.255,3.796,3.319,6.687C243.312,241.721,244.048,244.315,244.694,247.397z M219.116,230.195h3.4l-6.041-3.024
	c0,1.133-2.267,4.918-2.267,4.918L219.116,230.195z M193.812,241.902l2.267-6.414l-6.051-4.159l-2.641,6.8L193.812,241.902z"/>
<path fill="#FFFFFF" d="M243.289,343.894l0.214,0.645c-0.916,0.284-1.868,0.671-2.786,1.18c-2.074-0.623-10.506-5.043-19.911-10.393
	c-0.182-4.113-0.396-8.203-0.668-11.558l2.084-0.159c0,0.227,0.171,0.646,0.668,1.405
	C224.409,327.28,243.289,343.894,243.289,343.894z"/>
<path fill="#FFFFFF" d="M242.076,264.442l0.079,0.124c0,0-19.266,30.598-21.146,33.623c-1.894,3.026-2.267,5.293,0.374,5.293
	c0.159,0,0.328-0.012,0.499-0.012l0.011,0.362c-1.156,0.046-2.323,0.091-3.514,0.114c-0.271-3.435-0.567-7.05-0.838-10.585
	c12.84-12.738,20.84-26.903,20.84-26.903C239.81,265.745,241.034,265.065,242.076,264.442z"/>
<path fill="#22315E" d="M240.717,345.718c-0.976,0.51-1.916,1.167-2.709,1.96c-3.785,3.774-5.575,6.324-9.734,6.698l0.022,0.227
	c-2.231,0.181-4.578,0.464-6.924,0.736c-0.022-1.689-0.192-10.913-0.566-20.014C230.211,340.675,238.643,345.095,240.717,345.718z"
	/>
<path fill="#FFFFFF" d="M233.985,317.183c0.634,0.499,1.269,0.998,1.882,1.485c-4.602,0.771-9.929,1.54-15.969,2.38
	c-0.012-0.068-0.012-0.126-0.022-0.193c-0.067-0.611-0.136-1.337-0.215-2.143C225.146,318.396,229.894,317.851,233.985,317.183z"/>
<path fill="#22315E" d="M238.382,266.459c0,0-8,14.165-20.84,26.903c-0.976-12.375-1.825-23.878-1.825-23.878l-0.011-0.146
	C225.044,268.782,234.269,268.521,238.382,266.459z"/>
<path fill="#FFFFFF" d="M231.64,303.153c-1.293,1.371-2.664,2.833-4.057,4.352c-1.994,0.363-3.955,0.714-5.826,1.009
	c-1.054-0.657-2.096-1.292-3.149-1.904c-0.08-0.872-0.147-1.757-0.228-2.662c1.19-0.023,2.357-0.068,3.514-0.114
	C225.384,303.687,228.716,303.471,231.64,303.153z"/>
<path fill="#FFFFFF" d="M220.806,335.325c0.374,9.101,0.544,18.324,0.566,20.014c-1.234,0.146-2.481,0.295-3.705,0.431l-0.057-0.544
	c0.452-2.176,0.18-10.89-0.42-21.974C218.402,333.955,219.616,334.646,220.806,335.325z"/>
<path fill="#FFFFFF" d="M221.757,308.514c-1.02,0.17-2.005,0.328-2.957,0.464c-0.068-0.771-0.138-1.563-0.192-2.368
	C219.661,307.222,220.703,307.856,221.757,308.514z"/>
<path fill="#FFFFFF" d="M220.138,323.768c0.271,3.354,0.486,7.444,0.668,11.558c-1.189-0.679-2.403-1.37-3.615-2.073
	c-0.204-3.705-0.442-7.672-0.691-11.751c1.156-0.159,2.29-0.307,3.399-0.453C219.979,321.874,220.068,322.792,220.138,323.768z"/>
<path fill="#FFFFFF" d="M219.876,320.854c0.011,0.067,0.011,0.125,0.022,0.193c-1.109,0.146-2.243,0.294-3.399,0.453
	c-0.033-0.465-0.067-0.941-0.103-1.405c0.362-0.42,0.726-0.839,1.101-1.27c0.736-0.034,1.449-0.068,2.164-0.114
	C219.74,319.518,219.809,320.243,219.876,320.854z"/>
<path fill="#FFFFFF" d="M218.8,308.978c-0.407,0.059-0.806,0.114-1.189,0.17c-0.544,0.081-1.202,0.126-1.938,0.148
	c-0.103-1.496-0.205-2.992-0.307-4.466c1.077,0.556,2.163,1.156,3.241,1.779C218.662,307.414,218.731,308.207,218.8,308.978z"/>
<path fill="#FFFFFF" d="M218.38,303.947c0.08,0.905,0.147,1.79,0.228,2.662c-1.078-0.623-2.164-1.224-3.241-1.779
	c-0.023-0.26-0.045-0.532-0.057-0.792C216.341,304.015,217.36,303.979,218.38,303.947z"/>
<path fill="#FFFFFF" d="M218.38,303.947c-1.02,0.032-2.039,0.067-3.07,0.091c-0.192-2.721-0.397-5.396-0.59-7.979
	c0.965-0.873,1.905-1.779,2.822-2.697C217.812,296.897,218.108,300.513,218.38,303.947z"/>
<path fill="#FFFFFF" d="M217.497,318.826c-0.375,0.431-0.738,0.85-1.101,1.27c-0.021-0.409-0.044-0.817-0.079-1.224
	C216.716,318.86,217.111,318.849,217.497,318.826z"/>
<path fill="#FFFFFF" d="M215.717,269.484c0,0,0.85,11.503,1.825,23.878c-0.917,0.918-1.857,1.824-2.822,2.697
	c-1.088-14.631-2.028-26.201-2.028-26.201l-0.022-0.339c1.008-0.068,2.028-0.125,3.037-0.182L215.717,269.484z"/>
<path fill="#FFFFFF" d="M205.145,355.611l-0.045,0.611c-1.122-0.056-2.267-0.146-3.412-0.261c-0.158-2.017-0.714-7.875-2.21-16.602
	c-0.135-0.782-0.236-1.801-0.316-3.025c1.473-1.168,2.923-2.347,4.317-3.501C205.145,352.132,205.145,355.611,205.145,355.611z"/>
<path fill="#FFFFFF" d="M204,270.369c-0.091,1.371-0.851,12.998-1.224,26.643c-0.931-0.669-1.858-1.372-2.776-2.085
	c0.646-13.135,1.359-23.935,1.359-23.935l-0.034-0.182C202.187,270.652,203.081,270.506,204,270.369z"/>
<path fill="#FFFFFF" d="M203.251,330.295c0.08,0.871,0.149,1.722,0.228,2.539c-1.395,1.154-2.845,2.333-4.317,3.501
	c-0.216-3.219-0.25-7.831-0.17-13.135c0.521-0.012,1.042-0.033,1.563-0.057c0.747,0.487,1.529,0.986,2.322,1.496
	C202.968,326.622,203.093,328.516,203.251,330.295z"/>
<path fill="#FFFFFF" d="M202.797,323.041c0.023,0.533,0.048,1.066,0.08,1.599c-0.793-0.51-1.575-1.009-2.322-1.496
	C201.302,323.121,202.051,323.087,202.797,323.041z"/>
<path fill="#FFFFFF" d="M202.797,323.041c-0.746,0.046-1.495,0.08-2.242,0.103c-0.532-0.34-1.054-0.68-1.553-1.008
	c0.011-1.021,0.034-2.074,0.058-3.141c1.177,0.023,2.379,0.035,3.604,0.046C202.695,320.4,202.742,321.739,202.797,323.041z"/>
<path fill="#FFFFFF" d="M202.776,297.012c-0.07,2.333-0.113,4.726-0.159,7.128c-1.044,0-2.062,0-3.038,0
	c0.126-3.128,0.272-6.232,0.421-9.213C200.918,295.64,201.846,296.343,202.776,297.012z"/>
<path fill="#FFFFFF" d="M202.617,304.14c0,0.431-0.013,0.872-0.013,1.303c-0.158,0.104-0.316,0.204-0.486,0.306
	c-0.907,0.556-1.802,1.122-2.685,1.7c0.044-1.1,0.091-2.21,0.146-3.309C200.555,304.14,201.573,304.14,202.617,304.14z"/>
<path fill="#FFFFFF" d="M202.604,305.442c-0.01,1.055-0.021,2.097-0.021,3.14c-1.031-0.103-2.086-0.217-3.173-0.329
	c0.011-0.271,0.023-0.532,0.023-0.805c0.883-0.578,1.777-1.145,2.685-1.7C202.288,305.646,202.446,305.546,202.604,305.442z"/>
<path fill="#22315E" d="M201.325,270.811l0.034,0.182c0,0-0.714,10.8-1.359,23.935c-8.047-6.188-16.07-13.566-21.838-19.152
	c4.975-2.267,9.667-3.614,11.061-4.001c0,0,0,0,0.012,0c3.478,0.318,6.776,0.272,9.484-0.407
	C199.546,271.161,200.418,270.97,201.325,270.811z"/>
<path fill="#22315E" d="M199.478,339.36c1.496,8.727,2.052,14.585,2.21,16.602c-3.49-0.34-6.969-0.861-9.812-1.371l0.032-0.204
	c0,0-5.382-3.399-9.632-4.815c-0.136-0.046-0.272-0.091-0.407-0.158c4.112-2.98,10.879-7.957,17.293-13.078
	C199.241,337.56,199.343,338.578,199.478,339.36z"/>
<path fill="#FFFFFF" d="M200.555,323.144c-0.521,0.023-1.043,0.045-1.563,0.057c0-0.352,0-0.715,0.011-1.064
	C199.501,322.464,200.022,322.804,200.555,323.144z"/>
<path fill="#FFFFFF" d="M199.579,304.14c-0.055,1.099-0.102,2.209-0.146,3.309c-0.352,0.227-0.692,0.454-1.032,0.691
	c-5.52-0.624-11.514-1.429-17.214-2.233c-0.85-0.928-1.723-1.881-2.606-2.844c4.238,0.771,8.125,1.28,10.697,1.168
	c1.202-0.057,2.811-0.08,4.715-0.08c0.918,0.204,1.892,0.362,2.833,0.465c1.314,0.126,1.938-0.056,2.063-0.476
	C199.114,304.14,199.343,304.14,199.579,304.14z"/>
<path fill="#FFFFFF" d="M199.434,307.448c0,0.272-0.013,0.533-0.023,0.805c-0.328-0.046-0.669-0.079-1.009-0.113
	C198.741,307.902,199.082,307.675,199.434,307.448z"/>
<path fill="#FFFFFF" d="M199.06,318.995c-0.023,1.066-0.047,2.119-0.058,3.141c-1.768-1.179-3.354-2.278-4.691-3.264
	C195.853,318.928,197.438,318.963,199.06,318.995z"/>
<path fill="#FFFFFF" d="M199.002,322.136c-0.011,0.35-0.011,0.713-0.011,1.064c-1.384,0.034-2.754,0.045-4.104,0.022
	c-1.801-0.556-6.107-1.745-7.876-0.86c-0.158,0.078-0.407,0.249-0.737,0.498c-1.96-0.136-3.864-0.316-5.7-0.533
	c1.384-1.279,2.833-2.583,4.352-3.875c2.946,0.181,6.075,0.317,9.384,0.42C195.647,319.857,197.234,320.957,199.002,322.136z"/>
<path fill="#FFFFFF" d="M198.991,323.2c-0.08,5.304-0.046,9.916,0.17,13.135c-6.414,5.121-13.181,10.098-17.293,13.078
	c-1.791-0.76-4.206-2.801-6.914-5.543c1.609-2.039,3.921-4.691,7.139-7.909c8.317-8.307,13.599-12.466,13.599-12.466
	s-0.305-0.114-0.805-0.272C196.237,323.245,197.607,323.234,198.991,323.2z"/>
<path fill="#C52A2B" d="M195.318,299.697c-2.005-1.78-13.349-12.636-22.312-21.226c-2.108,1.258-4.068,2.685-5.622,4.295
	c8.727,8.465,21.509,19.957,21.509,19.957s2.334,0.85,5.1,1.427c0.918,0.204,1.892,0.362,2.833,0.465
	c1.314,0.126,1.938-0.056,2.063-0.476C199.114,303.335,197.541,301.681,195.318,299.697z"/>
<path fill="#1A1F3B" d="M185.448,353.129c-1.734-0.136-4.012-0.793-6.426-1.688c0.681-0.477,1.655-1.168,2.846-2.028
	c0.135,0.067,0.271,0.112,0.407,0.158c4.25,1.416,9.632,4.815,9.632,4.815l-0.032,0.204c-2.822-0.498-5.021-0.974-5.997-1.246
	c-0.124-0.035-0.283-0.068-0.441-0.091L185.448,353.129z"/>
<path fill="#FFFFFF" d="M188.894,302.724c0,0,2.334,0.85,5.1,1.427c-1.904,0-3.513,0.023-4.715,0.08
	c-2.572,0.112-6.458-0.397-10.697-1.168c-5.009-5.485-10.335-11.435-14.268-15.854c0.668-1.348,1.37-2.48,2.096-3.365
	c0.305-0.374,0.635-0.737,0.974-1.076C176.111,291.231,188.894,302.724,188.894,302.724z"/>
<path fill="#C52A2B" d="M194.888,323.223c-1.801-0.556-6.107-1.745-7.876-0.86c-0.158,0.078-0.407,0.249-0.737,0.498
	c-0.181,0.146-0.396,0.317-0.633,0.521c-2.744,2.392-9.952,9.531-15.628,15.118c1.711,1.949,3.377,3.785,4.941,5.371
	c1.609-2.039,3.921-4.691,7.139-7.909c8.317-8.307,13.599-12.466,13.599-12.466S195.388,323.381,194.888,323.223z"/>
<path fill="#FFFFFF" d="M186.275,322.86c-0.181,0.146-0.396,0.317-0.633,0.521c-3.208,2.676-10.688,9.837-15.866,14.847
	c-0.748-0.861-1.507-1.745-2.255-2.641c2.515-2.834,6.3-6.89,10.991-11.333c0.668-0.636,1.36-1.28,2.062-1.927
	C182.411,322.544,184.315,322.725,186.275,322.86z"/>
<path fill="#C52A2B" d="M256.582,297.805l-0.068,0.012l-7.56,4.532c-1.925,1.099-11.876,3.399-21.371,5.156
	c-1.994,0.363-3.955,0.714-5.826,1.009c-1.02,0.17-2.005,0.328-2.957,0.464c-0.407,0.059-0.806,0.114-1.189,0.17
	c-0.544,0.081-1.202,0.126-1.938,0.148c-0.103-1.496-0.205-2.992-0.307-4.466c-0.023-0.26-0.045-0.532-0.057-0.792
	c-0.192-2.721-0.397-5.396-0.59-7.979c-1.088-14.631-2.028-26.201-2.028-26.201l-0.022-0.339c-2.992,0.215-5.938,0.476-8.669,0.85
	c-0.091,1.371-0.851,12.998-1.224,26.643c-0.07,2.333-0.113,4.726-0.159,7.128c0,0.431-0.013,0.872-0.013,1.303
	c-0.01,1.055-0.021,2.097-0.021,3.14c-1.031-0.103-2.086-0.217-3.173-0.329c-0.328-0.046-0.669-0.079-1.009-0.113
	c-5.52-0.624-11.514-1.429-17.214-2.233c-8.828-1.269-16.942-2.582-21.453-3.319c-0.736,4.408-1.11,9.02-0.962,13.235
	c3.581,0.556,12.965,1.859,26.155,2.63c2.946,0.181,6.075,0.317,9.384,0.42c1.542,0.056,3.127,0.091,4.749,0.123
	c1.177,0.023,2.379,0.035,3.604,0.046c0.032,1.359,0.079,2.698,0.134,4c0.023,0.533,0.048,1.066,0.08,1.599
	c0.091,1.982,0.216,3.876,0.374,5.655c0.08,0.871,0.149,1.722,0.228,2.539c1.666,19.298,1.666,22.777,1.666,22.777l-0.045,0.611
	v0.012c1.313,0.079,2.595,0.124,3.818,0.124c2.72,0,5.7-0.261,8.749-0.589l-0.057-0.544c0.452-2.176,0.18-10.89-0.42-21.974
	c-0.204-3.705-0.442-7.672-0.691-11.751c-0.033-0.465-0.067-0.941-0.103-1.405c-0.021-0.409-0.044-0.817-0.079-1.224
	c0.398-0.012,0.794-0.023,1.18-0.046c0.736-0.034,1.449-0.068,2.164-0.114c5.485-0.316,10.232-0.861,14.324-1.529
	c16.782-2.765,22.528-7.66,22.528-7.66l0.352,0.057c0.204-1.27,0.351-2.438,0.408-3.456
	C257.374,304.185,257.092,301.192,256.582,297.805z"/>
<path fill="#1A1F3B" d="M189.222,271.773c-1.394,0.387-6.085,1.734-11.061,4.001c-4.488-4.341-7.615-7.594-8.363-8.375
	C175.057,269.089,182.49,271.14,189.222,271.773z"/>
<path fill="#FFFFFF" d="M185.448,353.129l-0.011,0.125c-3.139-0.34-11.898,2.765-16.557,3.49
	c-4.918,0.749-15.118,0.374-10.958-3.399c3.819-3.48,6.051-4.396,6.381-8.625l0.328,0.023c0,0,3.127,1.722,7.141,3.604
	c2.277,1.076,4.827,2.199,7.251,3.095C181.437,352.336,183.714,352.993,185.448,353.129z"/>
<path fill="#FFFFFF" d="M184.927,318.452c-1.519,1.292-2.968,2.596-4.352,3.875c-9.984-1.109-17.972-2.991-21.655-3.942
	c-0.08-0.839-0.126-1.689-0.148-2.562C162.353,316.378,171.737,317.682,184.927,318.452z"/>
<path fill="#22315E" d="M180.575,322.327c-0.703,0.646-1.394,1.291-2.062,1.927c-3.728,3.468-8.103,7.695-11.321,10.936
	c-1.598-1.88-3.195-3.818-4.748-5.733c-2.016-2.494-3.127-6.46-3.523-11.071C162.603,319.336,170.591,321.218,180.575,322.327z"/>
<path fill="#FFFFFF" d="M178.582,303.062c0.883,0.963,1.756,1.916,2.606,2.844c-8.828-1.269-16.942-2.582-21.453-3.319
	c0.216-1.246,0.454-2.459,0.715-3.661C165.208,300.173,172.291,301.919,178.582,303.062z"/>
<path fill="#FFFFFF" d="M169.776,338.228c5.178-5.01,12.658-12.171,15.866-14.847c-2.744,2.392-9.952,9.531-15.628,15.118
	C169.934,338.409,169.855,338.318,169.776,338.228z"/>
<path fill="#C8C3C3" d="M181.868,349.413c-1.191,0.86-2.165,1.552-2.846,2.028c-2.424-0.896-4.974-2.019-7.251-3.095
	c0.418-0.702,1.382-2.21,3.184-4.477C177.663,346.612,180.077,348.653,181.868,349.413z"/>
<path fill="#C8C3C3" d="M178.162,275.774c-1.723,0.782-3.49,1.689-5.156,2.697c-6.233-5.983-11.311-10.879-11.311-10.879
	c0.227-0.952,0.454-1.871,0.668-2.754l0.465,0.113c0,0,2.8,1.109,6.97,2.447C170.547,268.181,173.674,271.434,178.162,275.774z"/>
<path fill="#FFFFFF" d="M178.513,324.254c-4.691,4.443-8.476,8.499-10.991,11.333c-0.114-0.136-0.228-0.262-0.33-0.397
	C170.41,331.949,174.785,327.722,178.513,324.254z"/>
<path fill="#22315E" d="M164.314,287.208c3.932,4.42,9.259,10.369,14.268,15.854c-6.291-1.144-13.374-2.89-18.132-4.137
	C161.434,294.405,162.772,290.279,164.314,287.208z"/>
<path fill="#791613" d="M174.955,343.87c-1.802,2.267-2.766,3.774-3.184,4.477c-4.013-1.882-7.141-3.604-7.141-3.604l-0.328-0.023
	c0.033-0.374,0.044-0.77,0.044-1.2c0,0,0.08-0.079,0.25-0.238c0.057,0.137,0.124,0.25,0.204,0.341
	c1.359-1.326,3.196-3.117,5.212-5.123C171.725,340.448,173.391,342.284,174.955,343.87z"/>
<path fill="#C8C3C3" d="M169.776,338.228c0.079,0.091,0.158,0.182,0.237,0.271c-2.017,2.006-3.854,3.797-5.212,5.123
	c-0.08-0.091-0.147-0.204-0.204-0.341C165.254,342.624,167.238,340.687,169.776,338.228z"/>
<path fill="#C8C3C3" d="M167.521,335.587c0.748,0.896,1.507,1.779,2.255,2.641c-2.539,2.459-4.522,4.396-5.179,5.054
	c-0.476-1.134-0.261-3.581-0.93-4.386c0.805-0.906,2.04-2.199,3.524-3.706C167.293,335.325,167.407,335.451,167.521,335.587z"/>
<path fill="#791613" d="M173.006,278.472c-2.108,1.258-4.068,2.685-5.622,4.295c-4.203-4.091-7.479-7.479-7.91-8.522
	c0.646-2.188,1.382-4.409,2.221-6.651C161.695,267.593,166.773,272.488,173.006,278.472z"/>
<path fill="#C8C3C3" d="M167.384,282.767c-0.339,0.339-0.669,0.702-0.974,1.076c-0.726,0.885-1.428,2.018-2.096,3.365
	c-3.582-4.022-6.018-6.775-6.018-6.775l-0.385-0.091c0.442-2.006,0.962-4.046,1.563-6.098
	C159.905,275.287,163.181,278.676,167.384,282.767z"/>
<path fill="#1A1F3B" d="M164.597,343.281c-0.17,0.159-0.25,0.238-0.25,0.238c0-2.664-4.408-11.944-6.913-25.509
	c0.363,0.09,0.861,0.226,1.485,0.374c0.396,4.611,1.507,8.577,3.523,11.071c1.553,1.915,3.15,3.854,4.748,5.733
	c-1.484,1.507-2.719,2.8-3.524,3.706C164.336,339.7,164.121,342.147,164.597,343.281z"/>
<path fill="#1A1F3B" d="M164.314,287.208c-1.542,3.071-2.88,7.197-3.864,11.718c-2.074-0.532-3.706-0.985-4.646-1.246
	c0.135-5.463,0.77-11.275,2.107-17.338l0.385,0.091C158.296,280.433,160.732,283.186,164.314,287.208z"/>
<path fill="#C8C3C3" d="M160.45,298.926c-0.261,1.202-0.5,2.415-0.715,3.661c-2.334-0.385-3.705-0.623-3.705-0.623h-0.238
	c-0.034-1.406-0.023-2.833,0.012-4.284C156.744,297.94,158.375,298.394,160.45,298.926z"/>
<path fill="#791613" d="M158.772,315.822c0.022,0.873,0.068,1.724,0.148,2.562c-0.624-0.148-1.122-0.284-1.485-0.374
	c-0.884-4.839-1.529-10.223-1.643-16.047h0.238c0,0,1.371,0.238,3.705,0.623C158.999,306.995,158.625,311.606,158.772,315.822z"/>
<g>
	<path fill="#6E6D7A" d="M164.144,265.429l-1.7-0.613c1.339-5.447,1.999-9.821,2.923-13.272c1.869-6.98,2.807-10.483,2.34-12.562
		c-0.371-1.655-1.797-3.92-3.176-6.109c-1.375-2.184-2.674-4.247-2.871-5.642l-0.44-3.019l0.373-0.094
		c0.187-0.049,4.646-1.105,11.006,2.171c1.129-0.932,6.277-4.959,12.428-6.333c4.058-0.898,10.193-1.404,15.123-1.809
		c3.44-0.284,6.41-0.527,7.925-0.833c2.723-0.55,7.864,1.274,11.616,2.604c1.512,0.534,2.826,1,3.532,1.146
		c4.105-1.84,10.148-3.384,13.267-3.384c1.111,0,1.91-0.159,2.493-0.276c0.939-0.186,1.749-0.348,2.079,0.985
		c0.273,1.104-1.414,1.969-3.551,3.065c-1.486,0.763-3.338,1.712-3.64,2.475c-0.737,1.836-1.017,3.047,1.323,4.393
		c1.065,0.611,2.687,1.852,4.354,4.287c1.261,1.853,2.394,4.133,3.369,6.778c0.837,2.308,1.573,4.974,2.193,7.925l0.115,0.564
		c0.811,4.019,1.264,8.342,2.399,12.644l-2.077,1.794c0.378-4.438-0.341-10.234-1.156-14.275l-0.115-0.562
		c-0.609-2.904-1.335-5.53-2.157-7.797c-0.951-2.579-2.053-4.799-3.272-6.593c-1.576-2.3-3.087-3.462-4.076-4.028
		c-2.912-1.675-3.336-2.908-2.538-4.897c0.422-1.058,3.028-2.508,4.89-3.464c1.128-0.578,3.226-1.653,3.114-2.105
		c-0.135-0.546-0.137-0.546-1.087-0.354c-0.618,0.123-1.465,0.292-2.66,0.292c-3.05,0-8.172,1.447-12.188,3.271l-0.945,1.039
		l-0.566-0.661c-0.743-0.122-1.674-0.855-3.382-1.459c-3.454-1.224-7.82-3.466-10.312-2.979c-1.562,0.314-5.41,0.968-8.876,1.253
		c-4.905,0.404-11.007,0.907-15.007,1.793c-6.61,1.478-11.71,6.208-11.765,6.256l-0.803,1.842l-0.472-1.512
		c-5.151-2.724-8.798-2.665-9.996-2.495l0.741,2.022c0.171,1.216,1.068,3.507,2.334,5.52c1.418,2.251,3.401,4.865,3.804,6.663
		c0.512,2.283-0.902,5.346-2.868,12.682c-0.766,2.864-1.288,6.418-2.138,10.69C163.875,263.324,163.624,264.626,164.144,265.429z"/>
	<path fill="none" stroke="#6E6D7A" stroke-width="0.75" stroke-miterlimit="10" d="M155.792,301.964
		c-0.034-1.406-0.023-2.833,0.012-4.284"/>
	<path fill="#6E6D7A" d="M256.135,357.937c-0.132,0-0.271-0.007-0.42-0.021c-1.833-0.165-4.299-0.618-7.156-1.146
		c-3.692-0.679-7.878-1.449-12.111-1.869c-2.145-0.212-4.724-0.172-8.114,0.126c-1.983,0.159-4.098,0.406-6.142,0.646l-0.771,0.089
		c-1.233,0.147-2.481,0.295-3.706,0.432c-2.718,0.292-5.888,0.592-8.796,0.592c-1.174,0-2.468-0.042-3.845-0.127l-0.398-0.031
		c-0.951-0.055-1.969-0.135-3.029-0.242c-3.935-0.382-7.527-0.958-9.846-1.375c-2.543-0.448-4.772-1.084-5.936-0.999
		c-0.938,0.067-2.22-0.074-2.359-0.094c-1.802-0.19-3.834,0.604-7.616,1.609c-2.605,0.692-5.066,1.348-6.941,1.638
		c-3.161,0.48-11.182,0.69-12.289-1.638c-0.354-0.745-0.026-1.584,0.979-2.495c0.76-0.693,1.458-1.285,2.091-1.821
		c2.516-2.134,4.071-2.862,4.32-6.076c0.033-0.367,0.474-0.944,0.474-0.66l0.85,0.66c0.567,0.284,1.074,0.181,1.039,0.566
		c-0.277,3.561-3.532,3.951-6.133,6.156c-0.626,0.531-1.317,1.117-2.07,1.804c-0.477,0.432-0.999,1.044-0.781,1.501
		c0.678,1.43,6.935,1.842,11.391,1.164c1.83-0.285,4.27-0.934,6.853-1.621c3.857-1.024,5.577-2.419,7.551-2.204
		c0.19,0.026,1.667,0.414,2.455,0.661c0.828,0.259,3.212,0.472,6.272,1.012c2.307,0.414,5.875,0.986,9.781,1.366
		c1.2,0.121,2.342,0.207,3.393,0.26l0.403,0.035c1.211,0.066,2.351,0.102,3.394,0.102c2.868,0,6.009-0.297,8.702-0.588
		c1.222-0.137,2.468-0.282,3.701-0.43l0.771-0.089c2.053-0.24,5.689-1.13,7.684-1.291c0.765-0.068,1.791-0.479,2.362-0.472
		c0.489,0.007,1.3-1.459,1.7-1.416c0.397,0.043,0.472,0.566,1.037,1.133c1.228,1.227,2.431,1.33,3.307,1.416
		c4.27,0.424,6.822,1.053,10.532,1.736c2.835,0.521,5.283,0.973,7.078,1.135c1.276,0.112,1.516-0.401,1.596-0.573
		c0.604-1.286-0.952-4.612-2.682-6.25c-6.891-6.529-9.536-6.152-9.536-6.152l3.322-0.772l6.814,6.322
		c1.73,1.73,3.701,5.4,2.852,7.214C257.919,357.365,257.375,357.937,256.135,357.937z"/>
	<path fill="#6E6D7A" d="M186.562,239.072l3.262-8.397l7.395,5.08l-6.296,0.891L186.562,239.072z M190.228,231.983l-2.019,5.201
		l2.518-1.369l4.211-0.596L190.228,231.983z"/>
	<polygon fill="#6E6D7A" points="193.438,242.103 189.783,236.767 189.606,231.394 190.447,231.264 191.767,236.201 
		194.186,241.701 	"/>
	<polygon fill="#6E6D7A" points="194.041,242.529 186.714,239.081 187.601,237.763 193.583,241.275 196.158,235.775 
		197.103,235.775 	"/>
	<path fill="#6E6D7A" d="M213.212,232.929l0.634-1.059c0.854-1.426,1.482-4.121,2.206-4.699v-0.688l7.965,4.193l-4.82-0.055
		L213.212,232.929z M216.791,227.803c-0.281,0.983-1.044,2.442-1.61,3.456l3.936-1.487h1.603L216.791,227.803z"/>
	<polygon fill="#6E6D7A" points="220.822,238.42 213.203,232.943 214.667,232.376 220.425,237.088 222.959,230.522 224.111,230.582 
			"/>
	<polygon fill="#6E6D7A" points="219.829,237.437 218.717,230.383 216.156,227.449 217.122,227.56 220.639,230.489 220.671,237.303 
			"/>
	<path fill="none" stroke="#6E6D7A" stroke-width="0.75" stroke-miterlimit="10" d="M189.278,249.461c0,0-13.984-3.773-17.758-2.267
		"/>
	<path fill="none" stroke="#6E6D7A" stroke-width="0.75" stroke-miterlimit="10" d="M187.386,252.486c0,0-9.44-2.267-14.358,1.882"
		/>
	<path fill="none" stroke="#6E6D7A" stroke-width="0.75" stroke-miterlimit="10" d="M188.894,254.368c0,0-8.681,1.133-12.081,5.291"
		/>
	<path fill="none" stroke="#6E6D7A" stroke-width="0.75" stroke-miterlimit="10" d="M222.89,242.287c0,0,8.998-6.188,16.31-9.439
		c3.059-1.371,5.812-2.233,7.489-1.893"/>
	<path fill="none" stroke="#6E6D7A" stroke-width="0.75" stroke-miterlimit="10" d="M230.823,241.902c0,0,5.927-1.417,11.695-2.368
		c4.102-0.681,8.113-1.122,9.837-0.646"/>
	<path fill="none" stroke="#6E6D7A" stroke-width="0.75" stroke-miterlimit="10" d="M239.515,247.954c0,0,2.402-0.363,5.18-0.557
		c2.935-0.203,6.301-0.227,7.661,0.557"/>
	<path fill="#6E6D7A" d="M255.132,317.794l0.284-1.275c1.119-3.463,3.225-6.24,7.555-9.326c3.771-2.688,3.119-12.385,1.086-16.596
		c-0.568-1.179,0.419-3.195,0.142-3.117c-1.672,0.479-6.284,6.018-8.074,8.57l-0.284-2.338c1.165-1.663,6.123-6.421,8.429-7.082
		c0.559-0.161,1.685,0.607,2.621,2.55c2.146,4.446,0.917,15.608-3.426,18.705c-4.14,2.95-7.399,9.33-8.504,12.705l-0.019,0.065
		c-0.276,0.875-1.213,3.08-1.226,3.3C253.716,323.955,254.899,318.531,255.132,317.794z"/>
	<path fill="none" stroke="#6E6D7A" stroke-miterlimit="10" d="M185.448,353.129c0.08,0.012,0.158,0.023,0.238,0.023"/>
</g>
<path fill="#C52A2B" d="M158.534,295.508c0.227,3.378,0.25,6.199,0.057,8.024c-0.113,1.054-0.294,2.357-0.533,3.841
	c-0.464,0.272-1.269,0.737-2.164,1.259c-0.193-3.899-0.634-7.729-1.145-10.948c2.278-1.314,3.75-2.176,3.75-2.176H158.534z"/>
<path fill="#FFFFFF" d="M158.534,295.508H158.5c0,0-1.473,0.861-3.75,2.176c-0.136-0.918-0.283-1.79-0.43-2.605
	c2.039-1.462,3.251-2.347,3.966-2.856C158.387,293.355,158.466,294.454,158.534,295.508z"/>
<path fill="#FFFFFF" d="M158.058,307.373c-0.237,1.519-0.532,3.207-0.873,5.009l-0.861-0.158c-0.08,0.057-0.181,0.112-0.316,0.193
	c0-1.259-0.046-2.528-0.114-3.785C156.789,308.11,157.593,307.646,158.058,307.373z"/>
<path fill="#1A1F3B" d="M155.078,271.473c1.507,6.595,2.629,14.312,3.207,20.749c-0.715,0.51-1.927,1.395-3.966,2.856
	c-0.125-0.646-0.25-1.258-0.363-1.825c-0.589-2.833-2.528-6.323-4.827-9.689C152.357,277.082,154.567,272.526,155.078,271.473z"/>
<path fill="#1A1F3B" d="M156.324,312.224l0.861,0.158c-1.359,7.253-3.353,16.138-4.736,21.079l-0.272-0.079
	c0,0-0.634-0.353-1.949-0.76c0.997-1.881,1.96-3.626,2.878-5.089c2.187-3.479,2.913-9.167,2.902-15.116
	C156.143,312.336,156.244,312.28,156.324,312.224z"/>
<path fill="#22315E" d="M156.007,312.417c0.011,5.949-0.715,11.637-2.902,15.116c-0.918,1.463-1.881,3.208-2.878,5.089
	c-2.05-0.668-5.745-1.507-11.276-1.507c-3.558,0-7.344-2.562-11.502-5.973C140.481,320.213,153.411,313.935,156.007,312.417z"/>
<path fill="#FFFFFF" d="M155.894,308.632c0.067,1.257,0.114,2.526,0.114,3.785c-2.596,1.518-15.526,7.796-28.559,12.726
	c-1.065-0.862-2.141-1.79-3.252-2.73c14.947-5.158,26.188-10.427,28.07-11.604C153.298,310.161,154.681,309.335,155.894,308.632z"/>
<path fill="#C8C3C3" d="M154.658,269.692c0.136,0.578,0.283,1.18,0.419,1.78c-0.51,1.054-2.72,5.609-5.949,12.091
	c-0.658-0.951-1.337-1.892-2.029-2.811c3.75-5.338,6.732-9.688,7.433-11.025L154.658,269.692z"/>
<path fill="#791613" d="M154.658,269.692l-0.125,0.035c-0.701,1.337-3.683,5.688-7.433,11.025c-1.677-2.243-3.389-4.307-4.793-5.949
	c4.453-6.21,7.694-10.742,7.694-10.742l-0.193-0.228c0.884-0.747,1.678-1.473,2.335-2.153c0.135,0.341,0.272,0.691,0.408,1.055
	C153.309,264.719,154.012,267.098,154.658,269.692z"/>
<path fill="#FFFFFF" d="M154.319,295.078c0.147,0.815,0.294,1.688,0.43,2.605c-6.505,3.751-19.604,11.231-24.014,13.124
	c-0.6,0.26-1.337,0.532-2.176,0.815c2.64-3.003,5.248-6.074,7.649-9.043h0.011c7.933-2.356,14.098-4.612,16.331-6.222
	C153.196,295.894,153.785,295.475,154.319,295.078z"/>
<path fill="#22315E" d="M153.956,293.253c0.113,0.567,0.238,1.18,0.363,1.825c-0.534,0.396-1.123,0.815-1.769,1.28
	c-2.232,1.609-8.398,3.865-16.331,6.222c5.259-6.471,9.622-12.444,11.423-16.046c0.51-1.032,1.009-2.018,1.485-2.971
	C151.428,286.93,153.367,290.42,153.956,293.253z"/>
<path fill="#C52A2B" d="M48.881,276.266c1.169,0.329,2.811,0.612,5.078,0.827c12.557,1.18,50.236-1.133,56.662-3.773
	c6.426-2.651,35.504-13.225,37.771-17.384c0.306-0.545,0.487-1.065,0.578-1.563v-0.012c0.624-3.219-2.492-5.101-0.952-4.465
	c4.533,1.894,6.426,7.174,6.04,9.066c-0.135,0.657-0.839,1.608-1.915,2.719c-0.657,0.681-1.451,1.406-2.335,2.153
	c-0.509,0.441-1.054,0.885-1.62,1.337c-1.576,1.236-3.32,2.482-5.077,3.616c-1.008,0.646-2.438,1.428-4.137,2.266
	c-7.207,3.581-19.367,8.443-26.086,10.573c-1.428,0.453-3.184,0.827-5.19,1.155c-2.799,0.454-6.073,0.817-9.564,1.157
	c-1.111,0.112-2.233,0.215-3.377,0.317c-7.717,0.725-16.08,1.484-22.665,3.037c-2.561,0.601-5.156,0.963-7.661,1.167
	c-3.807,0.283-7.434,0.192-10.449-0.046c-2.005-0.147-3.75-0.362-5.11-0.565c-2.017-0.283-3.218-0.556-3.218-0.556l0.555-12.885
	l0.147,0.011c0,0.646,0.634,1.304,2.526,1.836V276.266z"/>
<path fill="#FFFFFF" d="M135.711,352.94c0.011,0,0.011,0,0.022,0c2.221-0.362,4.522-0.884,6.244-1.563
	c0.487-0.192,0.93-0.396,1.314-0.623c0.804-0.465,1.542-1.031,2.198-1.633c2.289-2.096,3.661-4.6,3.661-4.6
	c0.069,0.759,0.305,1.552,0.759,2.459c1.881,3.773,6.414,7.548,3.399,9.439c-3.015,1.882-17.656,6.007-24.852-2.935l0.102-0.091
	C129.636,353.587,132.605,353.428,135.711,352.94z"/>
<path fill="#C8C3C3" d="M152.176,333.382l0.272,0.079c-0.238,0.861-0.465,1.598-0.657,2.187c-0.669,2.006-1.326,3.525-1.824,4.839
	l-0.817-0.215c0,0-0.906-0.431-2.379-1.111c1.213-2.221,2.357-4.464,3.456-6.538C151.542,333.029,152.176,333.382,152.176,333.382z"
	/>
<path fill="#C8C3C3" d="M149.808,263.834l0.193,0.228c0,0-3.241,4.532-7.694,10.742c-0.272-0.316-0.534-0.612-0.784-0.896
	c4.137-5.303,6.687-8.714,6.687-8.714l-0.022-0.023C148.754,264.719,149.299,264.275,149.808,263.834z"/>
<path fill="#791613" d="M149.15,340.271l0.817,0.215c-0.59,1.508-0.941,2.731-0.817,4.035c0,0-1.372,2.504-3.661,4.6l-0.306-0.351
	l-3.218-1.757c1.711-2.346,3.309-5.088,4.805-7.854C148.244,339.841,149.15,340.271,149.15,340.271z"/>
<path fill="#FFFFFF" d="M138.951,331.115c5.531,0,9.226,0.839,11.276,1.507c-1.099,2.074-2.243,4.317-3.456,6.538
	c-5.826-2.708-20.58-9.428-23.968-9.654c-3.309-0.216-6.789,1.269-8.159,1.938c0.011-0.657,0.011-1.337,0.011-2.018
	c4.011-1.11,8.409-2.616,12.793-4.283C131.607,328.554,135.393,331.115,138.951,331.115z"/>
<path fill="#FFFFFF" d="M49.062,271.835c0.352-6.845,1.18-14.268,3.763-19.673c4.159-8.692,9.066-17.373,11.332-19.639
	c-0.374-3.785-5.666-10.584-7.933-12.466c-1.133-2.267,0-3.025,2.641-2.652c0,0,3.026,0.76,5.667,1.519
	c2.651,0.749,6.425,2.641,8.317,2.641c0.839,0,6.415-4.906,12.081-5.292c5.667-0.373,15.492-0.748,23.05,1.133
	c7.547,1.894,12.08,2.652,16.239,1.894c4.159-0.76,12.466-3.399,12.466-3.399s1.134,0.373-0.759,3.399
	c-1.881,3.024-1.881,5.665-1.881,10.199c0,4.532,5.474,9.563,8.306,13.972c2.324,3.615,4.285,6.165,6.618,10.891v0.012
	c-0.091,0.498-0.272,1.019-0.578,1.563c-2.266,4.159-31.345,14.732-37.771,17.384c-6.425,2.641-44.105,4.953-56.662,3.773
	c-2.267-0.215-3.909-0.498-5.078-0.827v-0.011C48.928,274.827,48.984,273.354,49.062,271.835z M100.047,254.429
	c3.4,0,6.041-0.76,5.281-2.267c-0.748-1.508-0.997-1.134-5.19-1.134c-2.266,0-5.009-0.759-5.383,1.134
	C94.381,254.055,96.647,254.429,100.047,254.429z"/>
<path fill="#FFFFFF" d="M149.128,283.563c-0.476,0.953-0.975,1.938-1.485,2.971c-1.802,3.602-6.165,9.575-11.423,16.046h-0.011
	c-1.858,0.554-3.818,1.11-5.848,1.666c4.115-5.7,11.253-15.662,16.739-23.493C147.791,281.672,148.471,282.612,149.128,283.563z"/>
<path fill="#1A1F3B" d="M148.188,265.171l0.022,0.023c0,0-2.55,3.411-6.687,8.714c-1.483-1.699-2.492-2.753-2.492-2.753
	l-0.058-0.103c1.7-0.838,3.129-1.619,4.137-2.266C144.868,267.653,146.611,266.407,148.188,265.171z"/>
<path fill="#C52A2B" d="M142.307,274.804c1.404,1.643,3.116,3.706,4.793,5.949c-5.486,7.831-12.624,17.793-16.739,23.493
	c-3.672,1.008-7.581,2.005-11.546,2.958C123.38,301.129,134.645,285.491,142.307,274.804z"/>
<path fill="#C52A2B" d="M146.771,339.16c-1.496,2.766-3.094,5.508-4.805,7.854l-27.322-14.902c0-0.215,0-0.441,0-0.668
	c1.37-0.669,4.85-2.153,8.159-1.938C126.191,329.732,140.945,336.452,146.771,339.16z"/>
<path fill="#C8C3C3" d="M145.184,348.771l0.306,0.351c-0.656,0.602-1.394,1.168-2.198,1.633c-0.385,0.227-0.828,0.431-1.314,0.623
	v-0.249c-0.272-0.092-1.156-0.521-2.414-1.167c0.827-0.872,1.632-1.871,2.402-2.947L145.184,348.771z"/>
<path fill="#1A1F3B" d="M141.977,351.128v0.249c-1.722,0.68-4.023,1.201-6.244,1.563c1.326-0.657,2.607-1.688,3.831-2.979
	C140.821,350.606,141.705,351.036,141.977,351.128z"/>
<path fill="#FFFFFF" d="M114.644,332.111l27.322,14.902c-0.77,1.076-1.576,2.075-2.402,2.947
	c-3.978-2.029-11.706-6.086-15.718-7.515c-1.689-0.601-5.088-2.447-9.237-4.906C114.608,335.841,114.621,334.015,114.644,332.111z"
	/>
<path fill="#FFFFFF" d="M141.523,273.908c0.25,0.283,0.512,0.579,0.784,0.896c-7.662,10.688-18.926,26.325-23.492,32.4
	c-1.497,0.351-2.993,0.701-4.5,1.054c-0.022-0.431-0.044-0.861-0.067-1.293C124.684,295.247,135.054,282.238,141.523,273.908z"/>
<path fill="#22315E" d="M139.031,271.155c0,0,1.009,1.054,2.492,2.753c-6.469,8.33-16.839,21.339-27.276,33.057
	c-0.692-14.12-1.36-25.339-1.36-25.339c6.72-2.13,18.88-6.992,26.086-10.573L139.031,271.155z"/>
<path fill="#22315E" d="M139.563,349.961c-1.223,1.291-2.505,2.322-3.831,2.979c-0.011,0-0.011,0-0.022,0
	c-3.105,0.487-6.075,0.646-7.151,0.454l-0.102,0.091c-0.033-0.023-0.056-0.058-0.08-0.091c-2.209,0.385-6.323,1.269-10.992,2.164
	c-0.228-0.521-1.224-3.015-2.233-6.697c-0.465-1.688-0.545-5.894-0.545-11.321c4.148,2.459,7.548,4.306,9.237,4.906
	C127.858,343.875,135.585,347.932,139.563,349.961z"/>
<path fill="#FFFFFF" d="M130.361,304.246c2.03-0.556,3.99-1.112,5.848-1.666c-2.402,2.969-5.009,6.04-7.649,9.043h-0.011
	c-3.287,1.11-8.205,2.381-13.293,3.535c-0.226-0.158-0.453-0.317-0.691-0.486c-0.035-1.599-0.09-3.174-0.17-4.714
	c-0.022-0.567-0.056-1.134-0.08-1.7c1.507-0.353,3.003-0.703,4.5-1.054c-1.032,1.348-1.711,2.232-1.961,2.47
	c-1.983,1.983,6.233,0.566,10.199-0.85C127.052,308.824,128.334,307.045,130.361,304.246z"/>
<path fill="#C52A2B" d="M130.361,304.246c-2.027,2.799-3.309,4.578-3.309,4.578c-3.966,1.416-12.182,2.833-10.199,0.85
	c0.25-0.237,0.93-1.122,1.961-2.47C122.78,306.251,126.689,305.254,130.361,304.246z"/>
<path fill="#FFFFFF" d="M124.197,322.412c1.111,0.94,2.187,1.868,3.252,2.73c-4.385,1.667-8.783,3.173-12.793,4.283
	c0.011-1.054,0.011-2.13,0.011-3.219c0.352-0.317,0.703-0.668,1.076-1.031C118.655,324.28,121.488,323.353,124.197,322.412z"/>
<path fill="#FFFFFF" d="M115.153,348.861c1.009,3.683,2.005,6.177,2.233,6.697c-1.723,0.329-3.514,0.657-5.328,0.975l-0.022-0.113
	c0,0-0.283-1.417-3.966-16.998c-0.442-1.859-0.782-4.069-1.021-6.528c2.64,1.678,5.213,3.252,7.558,4.646
	C114.608,342.968,114.688,347.173,115.153,348.861z"/>
<path fill="#FFFFFF" d="M114.677,325.516c0.352-0.112,0.715-0.226,1.065-0.34c-0.374,0.363-0.724,0.714-1.076,1.031
	C114.677,325.98,114.677,325.743,114.677,325.516z"/>
<path fill="#FFFFFF" d="M115.255,315.158c-0.215,0.058-0.442,0.103-0.669,0.158c-0.011-0.214-0.011-0.431-0.022-0.645
	C114.802,314.841,115.029,315,115.255,315.158z"/>
<path fill="#FFFFFF" d="M114.677,325.516c0,0.228,0,0.465-0.011,0.691c-1.042,0.986-2.017,1.871-2.912,2.641
	c-0.691,0.59-1.45,1.202-2.256,1.813c-0.839,0.147-1.722,0.283-2.628,0.385c-0.103-1.235-0.194-2.504-0.26-3.83
	c2.855-0.386,5.552-0.94,7.977-1.677C114.621,325.528,114.644,325.516,114.677,325.516z"/>
<path fill="#FFFFFF" d="M114.666,326.207c0,1.089,0,2.165-0.011,3.219c-1.258,0.353-2.482,0.669-3.661,0.93
	c-0.487,0.113-0.984,0.215-1.496,0.306c0.806-0.611,1.564-1.224,2.256-1.813C112.649,328.078,113.624,327.193,114.666,326.207z"/>
<path fill="#FFFFFF" d="M114.655,329.426c0,0.681,0,1.36-0.011,2.018c-0.397,0.203-0.624,0.329-0.624,0.329l0.624,0.339
	c-0.023,1.903-0.036,3.729-0.036,5.429c-2.345-1.395-4.918-2.969-7.558-4.646h-0.011c-0.011-0.135-0.033-0.283-0.033-0.419
	c0.872-0.612,1.711-1.213,2.492-1.813c0.512-0.091,1.009-0.192,1.496-0.306C112.173,330.095,113.397,329.778,114.655,329.426z"/>
<path fill="#FFFFFF" d="M114.644,331.443c0,0.227,0,0.453,0,0.668l-0.624-0.339C114.02,331.772,114.247,331.646,114.644,331.443z"/>
<path fill="#FFFFFF" d="M114.564,314.672c0.011,0.214,0.011,0.431,0.022,0.645c-2.787,0.624-5.621,1.214-8.227,1.724v-0.012
	c0-0.487,0-0.985,0-1.484c1.178-1.213,2.357-2.471,3.536-3.763C111.504,312.631,113.057,313.617,114.564,314.672z"/>
<path fill="#FFFFFF" d="M114.394,309.958c0.08,1.54,0.136,3.115,0.17,4.714c-1.507-1.055-3.06-2.041-4.669-2.891
	c0.964-1.042,1.938-2.107,2.9-3.195c0.51-0.103,1.009-0.216,1.519-0.328C114.338,308.824,114.372,309.391,114.394,309.958z"/>
<path fill="#FFFFFF" d="M114.247,306.965c0.023,0.432,0.045,0.862,0.067,1.293c-0.509,0.112-1.008,0.226-1.519,0.328
	C113.283,308.054,113.771,307.51,114.247,306.965z"/>
<path fill="#FFFFFF" d="M114.247,306.965c-0.476,0.545-0.964,1.089-1.451,1.621c-2.13,0.487-4.261,0.941-6.356,1.372
	c0.283-13.929,1.348-26.632,1.348-26.632l-0.091-0.545c2.006-0.328,3.763-0.702,5.19-1.155
	C112.887,281.626,113.555,292.845,114.247,306.965z"/>
<path fill="#FFFFFF" d="M112.796,308.586c-0.962,1.088-1.937,2.153-2.9,3.195c-1.133-0.623-2.29-1.167-3.467-1.642
	c0-0.059,0-0.126,0.011-0.182C108.535,309.527,110.666,309.073,112.796,308.586z"/>
<path fill="#FFFFFF" d="M109.498,330.661c-0.781,0.601-1.62,1.201-2.492,1.813c0,0,0,0-0.011,0c-0.046-0.465-0.091-0.94-0.125-1.429
	C107.776,330.944,108.659,330.809,109.498,330.661z"/>
<path fill="#FFFFFF" d="M109.896,311.781c-1.179,1.292-2.357,2.55-3.536,3.763c0.011-1.803,0.033-3.615,0.068-5.404
	C107.605,310.614,108.762,311.158,109.896,311.781z"/>
<path fill="#FFFFFF" d="M107.039,332.894c-0.113-0.068-0.226-0.147-0.34-0.215c0.103-0.068,0.205-0.137,0.295-0.204
	c0.011,0,0.011,0,0.011,0C107.006,332.61,107.028,332.759,107.039,332.894z"/>
<path fill="#FFFFFF" d="M106.439,309.958c-0.011,0.056-0.011,0.123-0.011,0.182c-0.102-0.047-0.205-0.091-0.307-0.126
	C106.224,309.991,106.337,309.979,106.439,309.958z"/>
<path fill="#FFFFFF" d="M105.521,357.271l0.034,0.259c-1.02,0.126-2.007,0.239-2.958,0.33c-3.728-2.776-5.994-9.644-7.319-18.133
	c1.483-0.837,2.968-1.699,4.43-2.583C102.167,346.617,105.521,357.271,105.521,357.271z"/>
<path fill="#22315E" d="M102.597,357.859c-3.83,0.374-7.003,0.374-8.601-0.307c-2.424-1.042-3.818-1.529-4.907-1.598v-0.102
	c-5.349-1.202-10.12-3.343-13.848-5.406l0.249-0.453c0,0,9.803-4.612,19.788-10.268C96.603,348.216,98.869,355.083,102.597,357.859z
	"/>
<path fill="#FFFFFF" d="M98.336,331.488c0.396,1.757,0.861,3.684,1.371,5.655c-1.462,0.884-2.947,1.746-4.43,2.583
	c-0.217-1.348-0.397-2.753-0.567-4.181l2.028-1.224l-2.267-1.01c-0.067-0.634-0.124-1.269-0.181-1.903
	C95.65,331.466,97.011,331.488,98.336,331.488z"/>
<path fill="#FFFFFF" d="M98.132,283.938l0.022,0.237c0,0-0.737,10.959-1.054,22.189c-1.122-0.511-2.255-1.055-3.411-1.609
	c0.237-9.734,0.827-17.531,1.008-19.81c0.035-0.441,0.057-0.68,0.057-0.68v-0.011C95.899,284.153,97.021,284.051,98.132,283.938z"/>
<path fill="#FFFFFF" d="M97.61,327.953c0.194,1.065,0.431,2.267,0.726,3.535c-1.325,0-2.686-0.022-4.045-0.079
	c-0.091-1.122-0.182-2.256-0.25-3.399c1.201-0.012,2.392-0.035,3.569-0.067V327.953z"/>
<path fill="#FFFFFF" d="M97.101,306.365c-0.045,1.79-0.09,3.593-0.113,5.358c-1.167,0.205-2.301,0.386-3.399,0.545
	c0-2.583,0.043-5.109,0.101-7.513C94.846,305.311,95.979,305.854,97.101,306.365z"/>
<path fill="#FFFFFF" d="M96.988,311.724c-0.034,2.393-0.046,4.704-0.011,6.846c-0.919,0.069-2.041,0.102-3.322,0.114
	c-0.056-2.165-0.078-4.308-0.067-6.415C94.688,312.109,95.821,311.929,96.988,311.724z"/>
<path fill="#FFFFFF" d="M94.71,335.546c0.169,1.428,0.35,2.833,0.567,4.181c-9.984,5.655-19.788,10.268-19.788,10.268l-0.249,0.453
	c-0.952-0.532-1.836-1.065-2.652-1.563l0.068-0.113L94.71,335.546z"/>
<path fill="#1A1F3B" d="M94.755,284.256v0.011c0,0-0.022,0.238-0.057,0.68l-10.437,2.448c-3.91,0.952-9.655,2.38-15.298,3.795
	c-2.12-1.268-3.706-2.231-4.533-2.729c2.504-0.204,5.1-0.566,7.661-1.167C78.675,285.74,87.038,284.98,94.755,284.256z"/>
<path fill="#C52A2B" d="M94.471,333.312l-2.833-1.257c0,0-23.969,11.275-25.204,11.049c0.171,0.68,0.283,1.291,0.341,1.812
	l0.215-0.022c0,0,2.085,1.791,5.599,3.989l0.068-0.113l22.053-13.225l2.028-1.224L94.471,333.312z"/>
<path fill="#22315E" d="M84.261,287.395l10.437-2.448c-0.182,2.278-0.771,10.075-1.008,19.81
	c-8.998-4.386-18.879-10.098-24.727-13.566C74.606,289.774,80.352,288.347,84.261,287.395z"/>
<path fill="#FFFFFF" d="M94.291,331.409c0.057,0.635,0.114,1.27,0.181,1.903l-2.833-1.257c0,0-23.969,11.275-25.204,11.049
	c-0.011,0-0.011,0-0.011,0c-0.124-0.532-0.295-1.11-0.487-1.723l0.113-0.068l20.013-8.691c0.872-0.374,1.802-0.885,2.8-1.507
	C90.676,331.239,92.489,331.342,94.291,331.409z"/>
<path fill="#FFFFFF" d="M94.041,328.01c0.068,1.144,0.159,2.277,0.25,3.399c-1.802-0.067-3.615-0.17-5.428-0.294
	c1.326-0.84,2.765-1.882,4.294-3.105C93.452,328.01,93.747,328.01,94.041,328.01z"/>
<path fill="#C52A2B" d="M154.749,297.684c-6.505,3.751-19.604,11.231-24.014,13.124c-0.6,0.26-1.337,0.532-2.176,0.815h-0.011
	c-3.287,1.11-8.205,2.381-13.293,3.535c-0.215,0.058-0.442,0.103-0.669,0.158c-2.787,0.624-5.621,1.214-8.227,1.724v-0.012
	c0-0.487,0-0.985,0-1.484c0.011-1.803,0.033-3.615,0.068-5.404c-0.102-0.047-0.205-0.091-0.307-0.126
	c0.102-0.022,0.216-0.034,0.318-0.056c0.283-13.929,1.348-26.632,1.348-26.632l-0.091-0.545c-2.799,0.454-6.073,0.817-9.564,1.157
	l0.022,0.237c0,0-0.737,10.959-1.054,22.189c-0.045,1.79-0.09,3.593-0.113,5.358c-0.034,2.393-0.046,4.704-0.011,6.846
	c-0.919,0.069-2.041,0.102-3.322,0.114c-2.232,0-4.952-0.08-7.909-0.216c-12.534-0.578-29.228-2.221-31.073-2.527
	c0.837,2.754,1.642,4.93,2.311,6.108c0.34,0.601,0.737,1.304,1.167,2.108l0.057-0.035c0.193,0.589,17.702,3.876,34.949,3.888
	c0.295,0,0.59,0,0.884,0c1.201-0.012,2.392-0.035,3.569-0.067v0.011c0.194,1.065,0.431,2.267,0.726,3.535
	c0.396,1.757,0.861,3.684,1.371,5.655c2.459,9.474,5.814,20.127,5.814,20.127l0.034,0.259c2.097-0.282,4.306-0.622,6.503-0.996
	l-0.022-0.113c0,0-0.283-1.417-3.966-16.998c-0.442-1.859-0.782-4.069-1.021-6.528h-0.011c-0.113-0.068-0.226-0.147-0.34-0.215
	c0.103-0.068,0.205-0.137,0.295-0.204c-0.046-0.465-0.091-0.94-0.125-1.429c-0.103-1.235-0.194-2.504-0.26-3.83
	c2.855-0.386,5.552-0.94,7.977-1.677c0.034-0.011,0.058-0.023,0.091-0.023c0.352-0.112,0.715-0.226,1.065-0.34
	c2.913-0.896,5.746-1.823,8.455-2.764c14.947-5.158,26.188-10.427,28.07-11.604c1.032-0.646,2.415-1.473,3.627-2.176
	C155.701,304.732,155.259,300.902,154.749,297.684z"/>
<path fill="#FFFFFF" d="M93.69,304.756c-0.058,2.403-0.101,4.93-0.101,7.513c-0.839,0.137-1.645,0.249-2.438,0.362
	c-4.397-3.568-20.456-13.621-29.974-19.491c2.436-0.611,5.1-1.279,7.786-1.95C74.811,294.658,84.692,300.37,93.69,304.756z"/>
<path fill="#FFFFFF" d="M93.589,312.269c-0.011,2.107,0.011,4.25,0.067,6.415c-2.232,0-4.952-0.08-7.909-0.216
	c-2.085-1.428-4.738-3.105-7.662-4.873c1.949-0.033,3.99-0.102,6.097-0.237c0.046,0,0.091-0.012,0.148-0.012
	c0.442,0.249,0.803,0.441,1.076,0.577c0,0,4.533,0.567,6.799,0c0.294-0.068-0.124-0.531-1.054-1.292
	C91.944,312.518,92.75,312.405,93.589,312.269z"/>
<path fill="#FFFFFF" d="M93.157,328.01c-1.529,1.224-2.968,2.266-4.294,3.105c-14.256-1.054-28.138-3.922-28.864-4.159l-0.306,0.158
	c-0.544-1.065-1.065-2.074-1.542-2.957l0.057-0.035C58.401,324.711,75.91,327.998,93.157,328.01z"/>
<path fill="#FFFFFF" d="M89.089,355.854v0.102c-1.281-0.08-2.142,0.409-3.774,1.224c-3.026,1.508-15.491,4.908-20.398,4.148
	c-4.918-0.748-9.825-2.641-6.799-5.666c2.074-2.074,5.225-3.978,7.106-6.301c0.861-1.065,1.451-2.222,1.575-3.514
	c0.022-0.271,0.022-0.578-0.022-0.93l0.215-0.022c0,0,2.085,1.791,5.599,3.989c0.816,0.498,1.7,1.031,2.652,1.563
	C78.969,352.511,83.74,354.651,89.089,355.854z"/>
<path fill="#22315E" d="M88.863,331.115c-0.998,0.622-1.928,1.133-2.8,1.507l-20.013,8.691l-0.113,0.068
	c-0.941-2.9-2.517-6.562-4.159-10.018c-0.692-1.473-1.405-2.912-2.085-4.25l0.306-0.158
	C60.725,327.193,74.606,330.062,88.863,331.115z"/>
<path fill="#C52A2B" d="M91.151,312.631c-4.397-3.568-20.456-13.621-29.974-19.491c-2.55,0.646-4.862,1.225-6.685,1.688
	c8.94,5.633,23.094,14.597,28.669,17.849c0.432,0.261,0.828,0.477,1.169,0.669c0.442,0.249,0.803,0.441,1.076,0.577
	c0,0,4.533,0.567,6.799,0C92.5,313.854,92.081,313.392,91.151,312.631z"/>
<path fill="#FFFFFF" d="M84.33,313.346c-0.058,0-0.102,0.012-0.148,0.012c-2.107,0.136-4.148,0.204-6.097,0.237
	c-11.037-6.675-25.804-14.606-27.697-15.616c-0.124-0.69-0.248-1.371-0.362-2.04l0.238-0.045c0,0,1.497-0.374,3.91-0.986
	c7.569,4.736,22.743,14.178,28.987,17.77C83.593,312.938,83.989,313.153,84.33,313.346z"/>
<path fill="#FFFFFF" d="M78.085,313.595c2.924,1.768,5.577,3.445,7.662,4.873c-12.534-0.578-29.228-2.221-31.073-2.527
	c-0.409-1.348-0.828-2.845-1.247-4.431l0.158-0.045C53.584,311.465,63.308,313.822,78.085,313.595z"/>
<path fill="#22315E" d="M78.085,313.595c-14.777,0.228-24.501-2.13-24.501-2.13l-0.158,0.045c-1.099-4.159-2.188-8.964-3.038-13.531
	C52.281,298.988,67.048,306.92,78.085,313.595z"/>
<path fill="#FFFFFF" d="M83.161,312.677c-6.244-3.592-21.417-13.033-28.987-17.77c0.102-0.022,0.204-0.056,0.318-0.079
	C63.433,300.461,77.586,309.425,83.161,312.677z"/>
<path fill="#FFFFFF" d="M66.776,344.917c0.044,0.352,0.044,0.658,0.022,0.93c-0.124,1.292-0.714,2.448-1.575,3.514l-0.307-0.113
	c0,0-5.666-4.16-11.717-5.293c-6.04-1.133-11.333-7.173-21.146-12.466c-9.825-5.291-19.65-16.624-23.798-25.69
	c-4.159-9.065,0.374-20.013,3.773-24.931c3.4-4.907,5.667-0.374,5.667-0.374s5.292,4.533,2.267,12.092
	c-3.025,7.548-3.774,9.065,1.892,15.479c5.666,6.426,10.199,9.825,16.999,13.984c6.8,4.148,10.573,9.066,15.48,8.307
	c4.918-0.759,7.184,1.133,7.184,1.133l0.262-0.124c1.642,3.455,3.218,7.117,4.159,10.018c0.192,0.612,0.363,1.19,0.487,1.723
	c0,0,0,0,0.011,0C66.606,343.784,66.718,344.396,66.776,344.917z"/>
<path fill="#C8C3C3" d="M64.43,288.46c0.828,0.498,2.414,1.462,4.533,2.729c-2.686,0.671-5.35,1.339-7.786,1.95
	c-4.261-2.629-7.219-4.431-7.219-4.431l0.022-0.295C56.996,288.652,60.623,288.743,64.43,288.46z"/>
<path fill="#791613" d="M53.958,288.709c0,0,2.958,1.802,7.219,4.431c-2.55,0.646-4.862,1.225-6.685,1.688
	c-1.78-1.121-3.345-2.107-4.602-2.901c-0.284,0.227-0.363,0.668-0.329,1.189c-0.294-1.892-0.532-3.672-0.691-5.268
	c1.361,0.203,3.105,0.418,5.11,0.565L53.958,288.709z"/>
<path fill="#C8C3C3" d="M54.492,294.828c-0.114,0.023-0.216,0.057-0.318,0.079c-2.414,0.612-3.91,0.986-3.91,0.986
	s-0.316-0.77-0.521-1.643c-0.012-0.035-0.012-0.058-0.023-0.091c-0.055-0.352-0.113-0.703-0.158-1.044
	c-0.034-0.521,0.045-0.963,0.329-1.189C51.147,292.721,52.712,293.707,54.492,294.828z"/>
<path fill="#952021" d="M50.264,295.894l-0.238,0.045c-0.102-0.566-0.192-1.133-0.283-1.688
	C49.948,295.124,50.264,295.894,50.264,295.894z"/>
<path fill="#FFFFFF" d="M49.562,293.116c0.045,0.341,0.103,0.692,0.158,1.044C49.629,293.809,49.574,293.446,49.562,293.116z"/>
<path fill="#7A1713" d="M49.062,271.835c-0.079,1.52-0.135,2.992-0.182,4.42c-1.892-0.532-2.526-1.19-2.526-1.836
	C46.354,273.218,48.61,272.061,49.062,271.835z"/>
<path fill="none" stroke="#49485A" stroke-miterlimit="10" d="M49.72,294.16"/>
<path fill="#49485A" d="M66.515,361.857c-0.618,0-1.178-0.036-1.663-0.111c-2.145-0.324-7.22-1.337-7.99-3.685
	c-0.287-0.873,0.036-1.781,0.955-2.701c0.884-0.884,1.974-1.75,3.029-2.587c1.466-1.163,2.982-2.365,4.046-3.682
	c0.891-1.101,1.376-2.176,1.483-3.285c0.022-0.272,0.016-0.547-0.021-0.836c-0.056-0.52-0.025-0.602-0.188-1.254l-0.376-2.976
	c0.173,0.69,1.351,3.579,1.41,4.131c0.043,0.339,0.051,0.671,0.022,1.01c-0.124,1.287-0.668,2.51-1.667,3.744
	c-1.125,1.391-2.678,2.622-4.179,3.813c-1.084,0.86-2.107,1.673-2.958,2.521c-0.675,0.675-0.927,1.292-0.748,1.836
	c0.425,1.297,3.227,2.488,7.311,3.109c4.763,0.745,17.045-2.562,20.146-4.108l1.485-0.709c1.466-0.737-1.213-1.125,0.093-1.04
	c1.082,0.066,4.812,0.977,7.459,2.113c1.384,0.59,4.209,0.684,8.392,0.273c0.948-0.091,1.931-0.203,2.947-0.327
	c2.067-0.279,4.25-0.614,6.485-0.994c1.81-0.316,3.598-0.645,5.318-0.973c2.185-0.419,4.248-0.835,6.049-1.199
	c2.054-0.415,3.913-0.482,5.09-0.688l1.417,0.094l1.133,0.094c5.289,9.161,19.501,4.232,22.088,2.616
	c0.447-0.279,0.703-0.605,0.78-0.996c0.223-1.117-0.942-2.76-2.174-4.5c-0.778-1.099-1.24-1.652-2.09-2.407
	c-0.778-0.69-1.701-0.756-2.36-1.039l1.983-4.061c0.064,0.717,0.648,2.899,1.067,3.734c0.549,1.1,1.333,2.209,2.094,3.28
	c1.399,1.976,2.608,3.682,2.314,5.158c-0.124,0.622-0.515,1.146-1.163,1.552c-1.624,1.014-6.131,2.506-11.07,2.655
	c-4.326,0.124-10.282-0.737-14.254-5.58c-1.161,0.208-2.777,0.534-4.687,0.92c-1.805,0.364-3.871,0.781-6.058,1.201
	c-1.726,0.329-3.518,0.658-5.334,0.975c-2.245,0.383-4.438,0.718-6.521,1.001c-1.03,0.126-2.019,0.238-2.974,0.329
	c-4.387,0.431-7.267,0.319-8.808-0.338c-2.548-1.094-3.795-1.503-4.768-1.564c-1.073-0.054-1.836,0.316-3.218,1.011l-0.338,0.17
	C82.65,358.98,72.15,361.856,66.515,361.857z"/>
<path fill="#49485A" d="M52.048,276.949l-3.592-0.708c0.046-1.431,0.104-2.906,0.183-4.43c0.317-6.194,1.038-14.047,3.804-19.833
	c3.729-7.796,8.748-16.928,11.269-19.605c-0.504-3.582-5.411-10.04-7.759-11.989l-0.108-0.136c-0.562-1.127-0.631-2-0.204-2.595
	c0.499-0.692,1.571-0.914,3.285-0.668c0.074,0.016,3.106,0.778,5.724,1.531c1.021,0.287,2.215,0.745,3.369,1.188
	c1.837,0.705,3.519,1.148,4.617,1.148c0.069-0.096,1.099-0.207,1.788-0.649c2.372-1.523,6.342-4.074,10.478-4.355
	c9.746-0.643,17.545-0.258,23.182,1.145c7.212,1.81,11.907,2.643,16.061,1.887c4.085-0.746,12.331-3.36,12.414-3.387l0.13-0.042
	l0.13,0.043c0.064,0.021,0.387,0.147,0.544,0.588c0.263,0.723-0.1,1.882-1.076,3.442c-1.817,2.922-1.817,5.426-1.817,9.974
	c0,3.037,2.645,6.394,5.201,9.641c1.124,1.427,2.185,2.774,3.038,4.102c0.564,0.879,1.107,1.694,1.64,2.493
	c1.658,2.487,3.001,3.158,4.78,6.757l-0.188,2.738c-1.754-3.55-3.656-6.559-5.298-9.025c-0.536-0.802-1.08-1.62-1.648-2.503
	c-0.831-1.295-1.88-2.626-2.991-4.035c-2.646-3.36-5.383-6.835-5.383-10.167c0-4.55,0-7.296,1.945-10.425
	c1.042-1.668,1.087-2.437,1.005-2.692c-1.407,0.44-7.369,1.734-11.334,3.435c-0.662,0.283-2.373,1.186-3.117,1.229
	c-0.791,0.046-1.981-0.259-3.021-0.662c-3.001-1.167-6.381-1.351-11.22-2.564c-5.55-1.381-13.261-1.758-22.918-1.121
	c-3.918,0.267-7.773,2.744-10.075,4.223c-1.238,0.795-1.049,1.824-1.398,1.824c-1.255,0-3.775-1.478-5.772-2.244
	c-1.136-0.436-2.311-0.888-3.296-1.165c-2.605-0.749-5.624-1.508-5.655-1.517c-1.724-0.238-2.266,0.105-2.43,0.332
	c-0.219,0.305-0.137,0.87,0.236,1.641c2.251,1.917,8.309,7.942,8.702,11.925l-0.668,0.966l-0.141,0.144
	c-2.121,2.119-6.851,10.329-11.251,19.521c-2.73,5.713-2.948,11.881-3.238,17.521C49.891,271.383,50.349,275.627,52.048,276.949z"/>
<path fill="none" stroke="#49485A" stroke-miterlimit="10" d="M48.881,276.311c0-0.011,0-0.033,0-0.045"/>
<g>
	<path fill="#49485A" d="M87.37,240.132l-8.255-3.665l7.225-5.557l6.556,6.015L87.37,240.132z M81.125,236.352l6.056,1.893
		l3.974-1.378l-4.878-4.477L81.125,236.352z"/>
	<polygon fill="#49485A" points="87.559,244.099 86.426,243.909 85.339,238.479 85.744,231.71 86.871,231.59 87.889,238.479 	"/>
	<polygon fill="#49485A" points="86.993,245.61 79.655,236.735 79.815,236.354 86.897,243.579 91.572,237.204 92.515,237.179 	"/>
</g>
<g>
	<path fill="#49485A" d="M114.349,239.481l-6.755-3.424l6.519-5.658l5.994,5.416L114.349,239.481z M109.402,235.584l5.569,2.36
		l3.429-2.001l-4.486-3.991L109.402,235.584z"/>
	<polygon fill="#49485A" points="115.063,244.516 113.723,237.189 113.353,231.79 114.375,230.976 115.972,237.697 115.739,241.516 
		118.373,236.698 119.916,235.81 	"/>
	<polygon fill="#49485A" points="115.063,244.516 108.025,236.133 108.535,235.235 115.321,242.634 	"/>
</g>
<path fill="none" stroke="#49485A" stroke-miterlimit="10" d="M91.697,250.28c0,0-12.704,0.334-15.549,2.463"/>
<path fill="none" stroke="#49485A" stroke-miterlimit="10" d="M91.957,253.782c0,0-12.185,1.437-15.9,4.728"/>
<path fill="none" stroke="#49485A" stroke-miterlimit="10" d="M90.553,257.349c0,0-4.172,1.252-5.497,3.795"/>
<path fill="none" stroke="#49485A" stroke-miterlimit="10" d="M114.779,251.789c0,0,13.213-4.16,15.48-4.16"/>
<path fill="none" stroke="#49485A" stroke-miterlimit="10" d="M117.794,253.669c0,0,9.825-1.507,13.599,0.76"/>
<path fill="none" stroke="#49485A" stroke-miterlimit="10" d="M118.553,258.202c0,0,9.439-0.373,12.091,3.785"/>
<path fill="#49485A" d="M64.667,349.589c-0.057-0.04-5.664-4.115-11.545-5.218c-3.59-0.672-6.831-2.969-10.932-5.876
	c-2.919-2.07-6.231-4.417-10.338-6.633c-9.183-4.946-19.494-16.074-23.982-25.887c-4.328-9.432,0.6-20.706,3.81-25.35
	c1.19-1.721,2.412-2.525,3.635-2.46c1.565,0.111,2.521,1.694,2.722,2.062c0.611,0.571,5.238,5.227,2.319,12.515l-0.148,0.369
	c-2.908,7.252-3.432,8.56,1.966,14.672c5.737,6.504,10.368,9.904,16.902,13.901c2.181,1.331,4.071,2.754,5.739,4.01
	c3.511,2.643,6.283,4.718,9.454,4.241c5.047-0.783,7.424,1.143,7.521,1.226l1.213,2.639c-0.022-0.018-3.966-3.746-8.606-3.024
	c-3.519,0.538-6.422-1.638-10.094-4.402c-1.652-1.243-3.525-2.653-5.672-3.962c-6.606-4.042-11.288-7.48-17.096-14.065
	c-5.746-6.505-5.049-8.241-2.116-15.551l0.148-0.37c2.88-7.191-2.098-11.565-2.149-11.609l-0.103-0.133
	c-0.008-0.016-0.813-1.584-2.064-1.67c-0.909-0.057-2.238,2.621-3.245,4.075c-3.114,4.505-7.532,13.447-3.364,22.532
	c4.42,9.665,14.573,20.624,23.612,25.494c4.155,2.239,7.488,4.602,10.427,6.686c4.017,2.848,7.19,5.097,10.596,5.736
	c6.077,1.138,10.857,5.421,13.124,3.579L64.667,349.589z"/>
<path fill="none" stroke="#49485A" stroke-miterlimit="10" d="M66.424,343.104c0,0,0,0,0.011,0"/>
<path fill="#FFFFFF" d="M403.461,290.255c4.532,1.518,1.133,7.932-2.268,12.091c-3.399,4.158-11.717,14.732-18.891,18.132
	s-10.958,7.173-16.625,11.707c-5.665,4.532-9.439,9.064-12.08,11.717c-1.144,1.145-1.802,1.802-2.165,2.164
	c-0.34-0.532-0.634-1.122-0.86-1.79c-0.442-1.326-0.781-3.309-0.986-5.677c-0.147-1.837-0.215-3.899-0.18-6.063
	c1.777-2.107,10.276-11.763,19.671-15.457c10.585-4.159,14.733-9.825,20.399-15.106
	C395.142,296.679,398.927,288.747,403.461,290.255z"/>
<path fill="#FFFFFF" d="M327.908,243.791l1.892-0.747l-4.918-3.4l-2.641,4.533L327.908,243.791z M350.946,249.968
	c1.428,3.534,3.127,7.297,3.785,11.207c0.261,1.587,0.43,3.207,0.51,4.828c-1.757,2.187-4.204,3.92-7.129,5.36
	c-1.2,0.589-2.48,1.121-3.829,1.62c-4.691,1.723-10.199,2.935-16.002,4.057c-0.985,0.193-2.005,0.351-3.048,0.477
	c-1.35,0.182-2.731,0.317-4.159,0.396c-3.513,0.237-7.218,0.237-10.925,0.104c-1.519-0.058-3.025-0.136-4.532-0.238
	c-0.781-0.046-1.575-0.103-2.347-0.17c-5.1-0.374-9.928-0.907-13.893-1.326c-4.76-0.51-9.611-1.633-13.487-2.72
	c-2.31-0.646-4.282-1.271-5.699-1.745c-1.474-0.499-2.346-0.827-2.346-0.827c0.759-4.148,3.399-7.174,4.532-9.814
	c1.134-2.651,1.134-5.292,2.267-9.066c1.135-3.784,3.775-7.559,3.775-7.559s0,0-2.641-1.892c-2.641-1.882-3.774-5.667-4.908-9.44
	s-4.158-6.425-4.158-6.425c6.426-0.374,13.599,3.785,13.599,3.785s9.066-3.785,15.49-6.052c6.415-2.267,15.106,0,22.666-0.374
	c7.547-0.374,15.105,2.641,17.372,3.025c2.267,0.374,5.292-1.518,12.466-2.651c7.173-1.134,10.199,0,10.199,0
	s-4.907,6.425-8.691,12.851C347.661,241.025,349.064,245.299,350.946,249.968z M313.549,256.642
	c2.652,0.748,5.293,0.374,2.267-2.267C315.815,254.375,310.908,255.883,313.549,256.642z M300.71,249.843l3.774-6.052l-5.281-3.773
	l-3.401,4.907L300.71,249.843z"/>
<path fill="#C52A2B" d="M355.241,266.003c0.114,2.255,0.079,4.51-0.045,6.675l-12.931,25.509c0,0-0.759,2.652-6.052,4.532
	c-5.281,1.894-6.414,0.386-2.641-4.146c3.774-4.534,14.732-26.824,14.732-26.824l-0.193-0.385
	C351.037,269.923,353.484,268.189,355.241,266.003z"/>
<path fill="#FFFFFF" d="M342.266,298.187l12.931-25.509c-0.272,5.224-1.009,9.972-1.224,13.043c0,0-5.508,8.602-10.981,15.525
	c9.168-4.283,10.606-6.074,10.606-6.074h0.091c-0.022,1.1-0.057,2.243-0.102,3.411c-1.644,1.28-18.812,8.352-32.104,11.514
	c1.235-13.225-0.374-31.549-0.374-31.549l-0.034-0.636c1.428-0.078,2.81-0.214,4.159-0.396l0.034,0.272
	c0,0,0.713,10.458,0.068,22.312c14.606-10.605,19.196-26.46,19.196-26.46l-0.249-0.657c1.349-0.499,2.629-1.031,3.829-1.62
	l0.193,0.385c0,0-10.958,22.29-14.732,26.824c-3.773,4.532-2.641,6.04,2.641,4.146C341.507,300.839,342.266,298.187,342.266,298.187
	z"/>
<path fill="#FFFFFF" d="M351.433,346.065c1.938,3.072,5.236,4.045,3.299,5.009c-2.267,1.134-8.692,2.641-13.6,1.508
	c-4.906-1.134-11.297-3.004-13.96-3.774c0.497,0,8.033-0.102,14.085-3.15c0.602-0.305,1.19-0.646,1.756-1.008
	c3.004-1.95,4.613-3.389,5.463-4.386c0.963-1.122,0.963-1.655,0.963-1.655l0.147-0.01c0.205,2.368,0.544,4.351,0.986,5.677
	C350.799,344.943,351.093,345.533,351.433,346.065z"/>
<path fill="#22315E" d="M353.973,285.721c-0.125,1.87-0.17,5.338-0.284,9.451h-0.091c0,0-1.438,1.791-10.606,6.074
	C348.465,294.322,353.973,285.721,353.973,285.721z"/>
<path fill="#FFFFFF" d="M349.303,332.648c0.034-0.034,0.068-0.068,0.104-0.113c-0.035,2.164,0.032,4.227,0.18,6.063l-0.147,0.01
	c0,0,0,0.533-0.963,1.655l-0.544-0.521c0,0-12.466-11.333-19.265-14.359c-6.8-3.014-6.426,1.894-4.533,4.919
	c0.566,0.917,2.539,2.605,5.008,4.51c-0.928,0.918-1.857,2.041-2.696,3.265c-1.2-0.737-2.516-1.565-3.897-2.46
	c-0.238,2.709-0.521,5.202-0.906,7.344c-1.553,0.986-3.412,1.961-5.361,2.854c1.247-6.142,2.788-17.791,4.103-27.378
	c9.667-1.178,19.299-3.354,23.39-5.519c6.426-3.4,8.692-5.281,8.692-5.281l0.578,0.046c-0.124,1.45-0.283,2.878-0.465,4.238
	c-1.745,0.906-11.911,6.085-20.512,7.797c-0.805,0.158-1.745,0.305-2.811,0.43c6.8,5.021,12.397,8.997,14.892,10.154
	c4.917,2.266,4.917,2.266,4.917,2.266L349.303,332.648z"/>
<path fill="#22315E" d="M352.578,311.922c-0.317,2.334-0.726,4.487-1.246,6.289c-1.281,4.408-1.858,9.608-1.926,14.324
	c-0.035,0.045-0.069,0.079-0.104,0.113l-0.238-0.08c0,0,0,0-4.917-2.266c-2.494-1.157-8.092-5.134-14.892-10.154
	c1.065-0.125,2.006-0.271,2.811-0.43C340.667,318.007,350.833,312.828,352.578,311.922z"/>
<path fill="#C52A2B" d="M347.932,339.743l0.544,0.521c-0.85,0.997-2.459,2.436-5.463,4.386c0,0-3.522-2.347-7.535-5.179
	c-0.136-1.405-0.363-3.015-0.498-4.918c-0.249-3.536-3.026-2.55-5.838,0.26c-2.469-1.904-4.441-3.593-5.008-4.51
	c-1.893-3.025-2.267-7.933,4.533-4.919C335.466,328.41,347.932,339.743,347.932,339.743z"/>
<path fill="#22315E" d="M344.283,272.983l0.249,0.657c0,0-4.59,15.854-19.196,26.46c0.645-11.854-0.068-22.312-0.068-22.312
	l-0.034-0.272c1.043-0.126,2.062-0.283,3.048-0.477C334.084,275.918,339.592,274.706,344.283,272.983z"/>
<path fill="#FFFFFF" d="M343.013,344.649c-0.565,0.361-1.154,0.703-1.756,1.008c-0.544-0.26-2.062-1.008-5.791-2.787
	c0.192-1.009,0.147-2.119,0.012-3.399C339.49,342.303,343.013,344.649,343.013,344.649z"/>
<path fill="#22315E" d="M335.466,342.87c3.729,1.779,5.247,2.527,5.791,2.787c-6.052,3.049-13.588,3.15-14.085,3.15
	c0.396-0.068,4.883-0.77,7.048-3.297C334.923,344.683,335.296,343.821,335.466,342.87z"/>
<path fill="#C8C3C3" d="M335.478,339.471c0.136,1.28,0.181,2.391-0.012,3.399c-0.974-0.465-2.097-0.998-3.399-1.621
	c-1.382-0.656-3.309-1.745-5.621-3.172c0.839-1.224,1.769-2.347,2.696-3.265C331.092,336.309,333.347,337.952,335.478,339.471z"/>
<path fill="#791613" d="M334.979,334.553c0.135,1.903,0.362,3.513,0.498,4.918c-2.131-1.519-4.386-3.162-6.336-4.658
	C331.953,332.003,334.73,331.017,334.979,334.553z"/>
<path fill="#1A1F3B" d="M335.466,342.87c-0.17,0.951-0.543,1.812-1.246,2.641c-2.165,2.527-6.652,3.229-7.048,3.297
	c-0.013,0-0.013,0-0.023,0c-1.338-0.384-4.216,0.103-7.91,0.726c1.088-1.212,1.847-3.536,2.403-6.572
	c1.801-1.145,3.205-2.334,3.897-3.49c0.283-0.477,0.59-0.941,0.906-1.394c2.312,1.427,4.239,2.516,5.621,3.172
	C333.369,341.872,334.492,342.405,335.466,342.87z"/>
<path fill="#22315E" d="M326.445,338.077c-0.316,0.452-0.623,0.917-0.906,1.394c-0.692,1.156-2.097,2.346-3.897,3.49
	c0.385-2.142,0.668-4.635,0.906-7.344C323.93,336.512,325.245,337.34,326.445,338.077z"/>
<path fill="#C8C3C3" d="M321.642,342.961c-0.557,3.036-1.315,5.36-2.403,6.572c-1.28,0.216-2.663,0.454-4.126,0.681l-0.045-0.272
	c0.353-0.431,0.76-1.927,1.213-4.126C318.229,344.922,320.089,343.947,321.642,342.961z"/>
<path fill="#791613" d="M316.28,345.815c-0.453,2.199-0.86,3.695-1.213,4.126l0.045,0.272c-2.617,0.396-5.473,0.747-8.362,0.86
	c-1.553,0.058-3.196,0.124-4.884,0.192C301.866,351.267,309.572,348.933,316.28,345.815z"/>
<path fill="#FFFFFF" d="M310.149,278.016v0.158c0,0-0.884,18.947-1.882,33.248c-3.683-0.26-8.068-0.896-12.657-1.722l0.431-2.402
	c3.23,0.566,6.176,0.714,6.176,0.714l-25.407-28.399c1.021-0.306,2.198-0.566,3.458-0.792c5.744,6.027,16.079,16.465,25.45,23.774
	c0.228-13.305-0.101-24.806-0.101-24.806v-0.012C307.124,277.88,308.631,277.958,310.149,278.016z"/>
<path fill="#C52A2B" d="M321.482,310.097c1.235-13.225-0.374-31.549-0.374-31.549l-0.034-0.636
	c-3.513,0.237-7.218,0.237-10.925,0.104v0.158c0,0-0.884,18.947-1.882,33.248c-3.683-0.26-8.068-0.896-12.657-1.722
	c-12.896-2.346-27.391-6.232-32.388-7.615h-0.012c-0.487,2.504-0.919,5.382-1.021,8.352c7.083,1.938,32.037,8.591,42.678,8.907
	c0.896,0.022,1.825,0.035,2.788,0.012c-1.27,13.802-4.034,29.565-5.812,31.346l0.022,0.565c0,0,7.706-2.334,14.414-5.451
	c1.247-6.142,2.788-17.791,4.103-27.378c9.667-1.178,19.299-3.354,23.39-5.519c6.426-3.4,8.692-5.281,8.692-5.281l0.578,0.046
	c0.271-3.004,0.441-6.143,0.544-9.101C351.943,299.863,334.775,306.935,321.482,310.097z"/>
<path fill="#FFFFFF" d="M304.868,319.344c0.896,0.022,1.825,0.035,2.788,0.012c-1.27,13.802-4.034,29.565-5.812,31.346l0.022,0.565
	c-1.995,0.08-4.035,0.171-6.052,0.272l0.012-0.498c0.112-0.216,0.86-1.563,5.643-10.165c1.19-2.131,2.062-6.143,2.697-11.14
	c-1.757,1.167-3.309,2.243-4.59,3.207c-6.969,5.235-16.636,12.261-20.714,15.208c-1.973-0.794-3.821-1.587-5.146-2.245
	l28.887-21.655c0,0-2.267-2.267-6.052-1.881c-2.924,0.294-19.787,10.958-27.266,15.764c-0.17-0.668-0.339-1.361-0.51-2.085
	c2.606-1.395,6.175-3.253,10.403-5.372c3.762-1.882,9.349-5.463,15.729-9.746c-3.479-0.113-6.153-0.271-7.424-0.453
	c-4.204-0.601-19.185-3.83-25.123-5.134c-0.182-1.632-0.227-3.274-0.171-4.907C269.273,312.374,294.228,319.027,304.868,319.344z"/>
<path fill="#22315E" d="M305.617,277.789c0,0,0.328,11.501,0.101,24.806c-9.371-7.31-19.706-17.747-25.45-23.774
	c9.088-1.564,22.981-0.931,22.981-0.931l0.021-0.282c0.771,0.067,1.565,0.124,2.347,0.17V277.789z"/>
<path fill="#1A1F3B" d="M303.271,277.607l-0.021,0.282c0,0-13.894-0.634-22.981,0.931c-2.789-2.925-4.488-4.806-4.488-4.806
	l0.111-0.453c3.876,1.087,8.728,2.21,13.487,2.72C293.343,276.7,298.171,277.233,303.271,277.607z"/>
<path fill="#22315E" d="M304.166,329.736c-0.635,4.997-1.507,9.009-2.697,11.14c-4.782,8.602-5.53,9.949-5.643,10.165l-0.012,0.498
	c-0.918,0.046-1.824,0.091-2.72,0.137c-0.023,0-0.034,0-0.045,0.011c-0.816,0.046-1.609,0.091-2.38,0.137
	c-0.386,0.011-0.828,0-1.304-0.013c-2.074-0.497-6.561-2.085-10.504-3.659c4.078-2.947,13.745-9.973,20.714-15.208
	C300.857,331.979,302.409,330.903,304.166,329.736z"/>
<path fill="#C52A2B" d="M302.603,324.251l-28.887,21.655c-0.589-0.283-1.076-0.542-1.438-0.771
	c-1.314-0.826-2.131-3.501-2.992-7.002c7.479-4.806,24.342-15.47,27.266-15.764C300.336,321.984,302.603,324.251,302.603,324.251z"
	/>
<path fill="#C52A2B" d="M276.81,279.612l25.407,28.399c0,0-2.945-0.147-6.176-0.714c-1.926-0.34-3.967-0.839-5.53-1.553
	c-2.98-1.36-14.506-13.588-20.783-20.398c1.042-1.395,2.267-2.753,3.683-4.057C274.147,280.61,275.325,280.055,276.81,279.612z"/>
<path fill="#FFFFFF" d="M296.041,307.298l-0.431,2.402c-12.896-2.346-27.391-6.232-32.388-7.615
	c0.159-0.884,0.341-1.723,0.522-2.505c3.218,0.861,9.45,2.459,16.691,3.955c-6.097-5.926-10.437-11.333-12.965-14.755
	c0.635-1.145,1.384-2.3,2.256-3.434c6.277,6.811,17.803,19.038,20.783,20.398C292.074,306.459,294.115,306.958,296.041,307.298z"/>
<path fill="#22315E" d="M287.484,320.478c1.271,0.182,3.944,0.34,7.424,0.453c-6.381,4.283-11.968,7.864-15.729,9.746
	c-4.229,2.119-7.797,3.978-10.403,5.372c-1.021-4.204-2.244-9.203-4.431-13.577c-1.099-2.198-1.712-4.635-1.983-7.128
	C268.3,316.647,283.28,319.877,287.484,320.478z"/>
<path fill="#FFFFFF" d="M290.67,351.823c-0.307,0.022-0.613,0.045-0.919,0.067c-0.112-0.022-0.249-0.057-0.385-0.08
	C289.842,351.823,290.284,351.834,290.67,351.823z"/>
<path fill="#FFFFFF" d="M289.366,351.811c0.136,0.023,0.272,0.058,0.385,0.08c-3.773,0.272-7.024,0.601-9.065,1.077
	c-4.906,1.133-9.814,5.665-13.214,5.281c-3.399-0.375-7.933-3.016-6.425-4.907c1.507-1.894,3.025-3.026,4.532-6.426
	c0.443-0.997,0.692-1.836,0.759-2.641c0,0,2.245,1.235,5.293,2.673c1.688,0.794,3.615,1.657,5.563,2.416
	c2.596,1.019,5.213,1.847,7.276,2.084C286.453,351.676,288.073,351.788,289.366,351.811z"/>
<path fill="#1A1F3B" d="M278.862,348.151c3.943,1.574,8.43,3.162,10.504,3.659c-1.293-0.022-2.913-0.135-4.896-0.362
	c-2.063-0.237-4.681-1.065-7.276-2.084C277.513,349.138,278.09,348.718,278.862,348.151z"/>
<path fill="#FFFFFF" d="M280.268,278.82c-1.26,0.226-2.438,0.486-3.458,0.792l-6.697-7.49l0.079-0.306
	c1.417,0.475,3.39,1.1,5.699,1.745l-0.111,0.453C275.779,274.015,277.479,275.896,280.268,278.82z"/>
<path fill="#C8C3C3" d="M278.862,348.151c-0.772,0.566-1.35,0.986-1.668,1.213c-1.948-0.759-3.875-1.622-5.563-2.416l0.747-0.032
	l1.338-1.01C275.041,346.564,276.89,347.357,278.862,348.151z"/>
<path fill="#791613" d="M270.112,272.122l6.697,7.49c-1.484,0.442-2.662,0.998-3.399,1.678c-1.416,1.304-2.641,2.662-3.683,4.057
	c-1.779-1.927-3.128-3.423-3.764-4.113c0.806-3.377,1.337-7.288,1.882-10.244c0,0,0.872,0.328,2.346,0.827L270.112,272.122z"/>
<path fill="#791613" d="M273.716,345.906l-1.338,1.01l-0.747,0.032c-3.048-1.438-5.293-2.673-5.293-2.673
	c0.091-1.168-0.214-2.267-0.872-3.718l0.249-0.112c0,0,1.382-0.906,3.57-2.312c0.861,3.501,1.678,6.176,2.992,7.002
	C272.64,345.364,273.127,345.623,273.716,345.906z"/>
<path fill="#22315E" d="M267.472,288.78c2.528,3.422,6.868,8.829,12.965,14.755c-7.241-1.496-13.474-3.094-16.691-3.955
	c0.374-1.62,0.735-2.97,0.974-3.933C265.264,293.483,266.146,291.137,267.472,288.78z"/>
<path fill="#C8C3C3" d="M268.775,336.049c0.171,0.724,0.34,1.417,0.51,2.085c-2.188,1.405-3.57,2.312-3.57,2.312l-0.249,0.112
	c-0.283-0.635-0.646-1.326-1.064-2.13C265.035,338.077,266.555,337.238,268.775,336.049z"/>
<path fill="#C8C3C3" d="M269.728,285.347c-0.872,1.134-1.621,2.289-2.256,3.434c-1.699-2.289-2.583-3.694-2.651-3.797v-0.01
	c0.443-1.089,0.816-2.368,1.144-3.74C266.6,281.924,267.948,283.42,269.728,285.347z"/>
<path fill="#1A1F3B" d="M264.82,284.983c0.068,0.103,0.952,1.508,2.651,3.797c-1.326,2.356-2.208,4.703-2.753,6.867
	c-0.238,0.963-0.6,2.312-0.974,3.933c-1.181-0.306-1.95-0.532-2.223-0.6C262.6,293.019,263.959,287.16,264.82,284.983z"/>
<path fill="#1A1F3B" d="M264.345,322.472c2.187,4.374,3.41,9.373,4.431,13.577c-2.221,1.189-3.74,2.028-4.374,2.379
	c-0.216-0.408-0.454-0.851-0.715-1.325c-2.231-4.159-3.648-14.778-3.817-22.291h0.044c0,0,0.93,0.203,2.448,0.532
	C262.633,317.837,263.246,320.273,264.345,322.472z"/>
<path fill="#C8C3C3" d="M263.745,299.58c-0.182,0.782-0.363,1.621-0.522,2.505h-0.012c-1.145-0.317-1.791-0.499-1.791-0.499
	l-0.339-0.056c0.136-0.839,0.283-1.7,0.441-2.55C261.795,299.048,262.564,299.274,263.745,299.58z"/>
<path fill="#791613" d="M263.211,302.085c-0.487,2.504-0.919,5.382-1.021,8.352c-1.212-0.34-1.903-0.532-1.903-0.532l-0.294-0.023
	c0.181-2.345,0.589-5.292,1.088-8.351l0.339,0.056C261.42,301.586,262.066,301.768,263.211,302.085z"/>
<path fill="#C8C3C3" d="M262.19,310.437c-0.056,1.633-0.011,3.275,0.171,4.907c-1.519-0.329-2.448-0.532-2.448-0.532h-0.044
	c-0.023-1.383-0.013-2.664,0.044-3.773c0.022-0.363,0.046-0.749,0.08-1.157l0.294,0.023
	C260.287,309.904,260.979,310.097,262.19,310.437z"/>
<line fill="none" stroke="#92929B" stroke-width="0.75" stroke-miterlimit="10" x1="264.82" y1="284.983" x2="264.82" y2="284.974"/>
<path fill="#92929B" d="M267.888,358.696c-0.157,0-0.312-0.009-0.462-0.025c-2.655-0.292-6.191-1.979-6.948-3.799
	c-0.268-0.643-0.186-1.264,0.237-1.796c0.385-0.484,0.771-0.92,1.159-1.356c1.142-1.285,2.219-2.496,3.316-4.977
	c0.433-0.975,1.119-1.774,1.182-2.507l1.652,0.944c-0.851,0.425-2.503,1.626-2.976,2.691c-1.151,2.6-1.406,3.135-2.539,4.412
	c-0.377,0.425-0.755,0.85-1.132,1.321c-0.227,0.287-0.264,0.586-0.116,0.94c0.57,1.37,3.669,2.995,6.257,3.279
	c1.734,0.208,4.01-1.049,6.428-2.367c2.145-1.17,4.362-2.377,6.644-2.904c1.811-0.423,2.024-0.95,2.497-1.328
	c0,0,2.472,0.374,3.117,0.425c2.359,0.188,5.193,0.188,5.193,0.188l-2.786,0.521c-4.372,0.315-6.022,0.957-7.791,1.369
	c-2.17,0.502-4.327,1.455-6.422,2.598C272.053,357.603,269.782,358.696,267.888,358.696z"/>
<path fill="#92929B" d="M345.024,353.412c-1.355,0-2.714-0.121-3.987-0.416c-4.622-1.067-8.997-2.31-11.865-3.141l-2.787-1.18
	l2.929,0.047l2.596-0.331c-0.094,1.134,4.721,2.715,9.318,3.776c4.722,1.088,11.08-0.357,13.312-1.473
	c0.318-0.158,0.355-0.26,0.356-0.261c0.019-0.183-0.643-0.761-1.08-1.145c-0.802-0.701-2.458-1.166-3.303-2.504
	c-0.383-0.601-0.118-1.71-0.345-2.375c-0.447-1.347-1.449-2.394-2.961-2.866l1.512-1.794c0.205,2.367,1.827,3.107,2.255,4.391
	c0.203,0.596,0.471,1.151,0.817,1.696c0.779,1.233,1.779,2.109,2.584,2.813c0.869,0.762,1.444,1.264,1.361,1.894
	c-0.068,0.538-0.632,0.819-0.817,0.911C353.27,352.281,349.157,353.412,345.024,353.412z"/>
<path fill="#92929B" d="M269.889,271.756l-2.054-0.638c0.519-2.834,1.466-5.331,2.662-7.353c0.577-0.977,1.122-1.9,1.49-2.758
	c0.608-1.423,0.881-2.846,1.197-4.491c0.254-1.322,0.54-2.82,1.053-4.529c0.955-3.184,2.916-6.305,3.598-7.333l-2.304-1.651
	c-2.754-1.961-3.927-5.867-5.061-9.645c-1.089-3.625-4.008-6.221-4.038-6.246l-0.777-0.684l1.033-0.06
	c5.992-0.34,12.457,3.073,13.651,3.735c1.349-0.559,9.474-3.916,15.321-5.979c4.13-1.46,9.236-1.074,14.168-0.702
	c2.878,0.216,5.854,0.443,8.618,0.304c5.78-0.276,11.524,1.379,14.966,2.372c1.099,0.318,1.966,0.569,2.498,0.659
	c1.059,0.181,2.347-0.205,4.3-0.778c1.889-0.553,4.475-1.312,8.028-1.874c7.204-1.141,10.285-0.026,10.414,0.021l0.537,0.201
	l-0.348,0.455c-0.049,0.063-4.937,6.479-8.664,12.809c-2.067,3.503-0.697,7.605,1.161,12.215l0.608,1.489
	c1.292,3.144,2.628,6.396,3.202,9.807c0.261,1.586,0.074,3.549,0.156,5.199l-1.063,0.85c-0.078-1.619,0.324-4.356,0.068-5.909
	c-0.558-3.316-1.874-6.522-3.149-9.623l-0.609-1.493c-1.873-4.646-4.825-9.51-1.903-12.864c3.823-4.391,7.011-10.885,9.773-12.466
	c-1.167-0.253-4.81-0.678-10.051,0.149c-3.5,0.553-5.86,1.782-7.728,2.33c-2.066,0.608-3.283,1.763-4.532,1.559
	c-0.581-0.099-1.811-1.593-2.935-1.919c-3.39-0.979-9.059-2.627-14.689-2.339c-2.816,0.14-5.821,0.511-8.724,0.291
	c-5.071-0.379-9.858-1.34-13.82,0.059c-6.341,2.236-13.499,5.641-13.59,5.679l-1.982,1.487l-0.272-1.147
	c-0.068-0.039-6.415-3.675-12.372-3.749c0.994,1.053,3.187,2.814,4.002,5.534c1.099,3.657,1.778,7.787,4.296,9.581l3.921,1.893
	l-1.18,0.59c-0.025,0.038-2.614,3.764-3.714,7.438c-0.502,1.667-0.783,3.144-1.034,4.444c-0.325,1.695-0.604,3.159-1.25,4.667
	c-0.391,0.908-0.949,1.854-1.541,2.855C270.069,266.158,270.38,269.071,269.889,271.756z"/>
<g>
	<g id="XMLID_33_">
		<g>
			<polygon fill="#92929B" points="300.653,249.126 303.814,244.274 305.231,243.991 300.79,250.519 295.225,245.124 
				297.106,245.408 300.631,249.158 			"/>
			<polygon fill="#FFFFFF" points="304.484,243.788 300.336,245.306 299.203,240.015 			"/>
			<polygon fill="#FFFFFF" points="299.203,240.015 300.336,245.306 295.802,244.921 			"/>
		</g>
		<g>
			<polygon fill="none" stroke="#92929B" stroke-width="0.75" stroke-miterlimit="10" points="299.203,240.015 295.802,244.921 
				300.336,245.306 304.484,243.788 			"/>
			<polygon fill="#92929B" points="300.286,249.872 299.282,245.267 298.788,240.104 299.618,239.926 301.407,244.983 
				301.134,249.806 			"/>
		</g>
	</g>
</g>
<g>
	<g id="XMLID_32_">
		<g>
			<polygon fill="#FFFFFF" points="329.8,243.04 327.908,243.788 324.882,239.641 			"/>
			<polygon fill="#FFFFFF" points="324.882,239.641 327.908,243.788 322.241,244.173 			"/>
		</g>
		<g>
			<polygon fill="none" stroke="#92929B" stroke-width="0.75" stroke-miterlimit="10" points="324.882,239.641 322.241,244.173 
				327.908,243.788 329.8,243.04 			"/>
			<polyline fill="none" stroke="#92929B" stroke-width="0.75" stroke-miterlimit="10" points="321.675,244.411 327.148,249.454 
				330.604,243.131 			"/>
			<polygon fill="#92929B" points="327.329,249.517 326.573,248.713 325.44,244.086 324.779,240.403 325.063,239.601 
				327.613,243.896 			"/>
		</g>
	</g>
</g>
<path fill="none" stroke="#92929B" stroke-width="0.75" stroke-miterlimit="10" d="M301.469,257.775c0,0-13.984-6.426-23.424-6.051"
	/>
<path fill="none" stroke="#92929B" stroke-width="0.75" stroke-miterlimit="10" d="M295.043,258.523c0,0-8.691-0.374-12.091,1.519"
	/>
<path fill="none" stroke="#92929B" stroke-width="0.75" stroke-miterlimit="10" d="M302.977,263.056c0,0-3.773-1.506-8.308,2.268"/>
<path fill="none" stroke="#92929B" stroke-width="0.75" stroke-miterlimit="10" d="M332.066,254.375
	c0.861-0.294,11.491-3.184,18.88-4.407c2.357-0.387,4.386-0.602,5.666-0.511"/>
<path fill="none" stroke="#92929B" stroke-width="0.75" stroke-miterlimit="10" d="M337.732,255.509c0,0,7.548-1.134,11.706,0.374"
	/>
<path fill="none" stroke="#92929B" stroke-width="0.75" stroke-miterlimit="10" d="M338.106,259.656c0,0,5.292-0.747,10.573,2.267"
	/>
<path fill="#92929B" d="M351.102,346.987l-0.636-3.695c0,0,4.071-0.983,4.879-1.845c2.384-2.546,5.649-6.032,9.927-9.454
	c1.135-0.908,2.195-1.785,3.222-2.638c4.135-3.424,7.706-6.38,13.486-9.121c6.657-3.154,14.373-12.644,18.082-17.204l0.661-0.812
	c2.401-2.938,4.95-7.246,4.235-9.725c-0.239-0.819-0.818-1.375-1.774-1.696c-2.797-0.931-5.457,2.307-8.538,6.048
	c-1.561,1.895-3.174,3.853-5.021,5.579c-1.089,1.016-2.143,2.066-3.163,3.082c-4.301,4.287-8.749,8.722-17.37,12.107
	c-9.344,3.675-17.885,13.419-19.502,15.337c-0.034,0.044-0.08,0.093-0.127,0.14l-0.317,0.711l0.236-3.399l1.51-1.181
	c1.641-1.943,8.355-8.648,17.89-12.397c8.457-3.323,12.841-7.693,17.081-11.921c1.024-1.02,2.083-2.075,3.184-3.102
	c1.808-1.687,3.401-3.624,4.944-5.497c3.282-3.985,6.123-7.427,9.463-6.312c1.226,0.41,2.006,1.172,2.32,2.266
	c0.808,2.792-1.738,7.254-4.392,10.498l-0.66,0.811c-3.747,4.609-11.545,14.199-18.378,17.438
	c-5.686,2.694-9.217,5.618-13.307,9.008c-1.03,0.853-2.095,1.733-3.233,2.646c-4.229,3.383-7.339,6.702-9.837,9.37
	c-0.815,0.87-1.547,1.651-2.209,2.315L351.102,346.987z"/>
<path fill="none" stroke="#C52A2B" stroke-width="0.5" stroke-miterlimit="10" d="M319.216,349.567
	c0.011-0.011,0.022-0.023,0.022-0.034"/>
<path fill="none" stroke="#C52A2B" stroke-width="0.5" stroke-miterlimit="10" d="M261.522,298.98
	c-0.067-0.023-0.103-0.035-0.103-0.035"/>
<line fill="none" stroke="#C52A2B" stroke-width="0.5" stroke-miterlimit="10" x1="329.256" y1="320.148" x2="329.245" y2="320.148"/>
<line fill="none" stroke="#C52A2B" stroke-width="0.5" stroke-miterlimit="10" x1="301.662" y1="321.078" x2="301.674" y2="321.078"/>
<path fill="none" stroke="#92929B" stroke-miterlimit="10" d="M293.05,351.687c0.011-0.011,0.021-0.011,0.045-0.011"/>
<path fill="#C52A2B" d="M312.932,254.062c0,0,0.659-0.662,1.604-0.284c0.945,0.38,2.267,0,2.55,0c0.284,0,1.132,0.566,0.755,1.229
	c-0.376,0.661-1.699,1.794-1.699,2.172c0,0.379-1.321,0.095-1.321,0.095s-1.229-1.795-1.7-2.172
	C312.648,254.723,312.648,254.345,312.932,254.062z"/>
<path fill="#C52A2B" d="M98.582,247.271c0,0,0.784-0.785,1.906-0.336c1.122,0.449,2.692,0,3.028,0c0.336,0,1.344,0.671,0.896,1.458
	c-0.447,0.785-2.018,2.129-2.018,2.579c0,0.449-1.57,0.112-1.57,0.112s-1.458-2.131-2.019-2.579
	C98.245,248.058,98.245,247.608,98.582,247.271z"/>
<path fill="#C52A2B" d="M206.538,244.019c0,0,0.568-0.979,1.795-0.828c1.226,0.149,2.657-0.703,2.99-0.791
	c0.33-0.089,1.5,0.312,1.265,1.205c-0.234,0.893-1.438,2.63-1.318,3.073c0.116,0.444-1.521,0.522-1.521,0.522
	s-1.997-1.723-2.668-2.02C206.411,244.884,206.295,244.438,206.538,244.019z"/>
<circle fill="none" stroke="#5B5773" stroke-miterlimit="10" cx="128.686" cy="203.743" r="2.833"/>
<ellipse transform="matrix(0.8323 -0.5543 0.5543 0.8323 -81.4127 110.0248)" fill="none" stroke="#5B5773" stroke-miterlimit="10" cx="141.151" cy="189.578" rx="6.233" ry="5.064"/>
<circle fill="none" stroke="#6E6D7A" stroke-miterlimit="10" cx="208.579" cy="199.776" r="3.4"/>
<ellipse transform="matrix(0.6836 0.7299 -0.7299 0.6836 197.2557 -89.4391)" fill="none" stroke="#6E6D7A" stroke-miterlimit="10" cx="201.779" cy="182.777" rx="7.464" ry="5.699"/>
<ellipse transform="matrix(0.9349 0.3549 -0.3549 0.9349 91.9099 -91.2646)" fill="none" stroke="#92929B" stroke-miterlimit="10" cx="294.705" cy="204.876" rx="2.656" ry="3.718"/>
<circle fill="none" stroke="#92929B" stroke-miterlimit="10" cx="310.57" cy="216.775" r="2.266"/>
<ellipse fill="none" stroke="#92929B" stroke-miterlimit="10" cx="277.707" cy="194.11" rx="10.2" ry="6.799"/>
<g>
	<path fill="none" stroke="#92929B" stroke-miterlimit="10" d="M275.005,81.357c-3.584,6.494-20.954,2.498-39.461-7.719
		c-18.512-10.215-31.149-22.782-27.566-29.274c3.586-6.492,19.872-0.537,38.379,9.678C264.866,64.257,278.589,74.865,275.005,81.357
		z"/>
	<g>
		<path fill="#92929B" d="M182.552,57.147c3.806,8.589,13.567,25.628,34.877,38.314c21.167,12.599,40.555,14.48,50.228,14.48
			c0.718,0,1.377-0.01,1.974-0.027l-81.637,51.382l-3.599-1.986L182.552,57.147 M181.449,51.452l1.957,108.454l4.621,2.551
			l85.481-53.802c0,0-2.125,0.287-5.852,0.287c-9.318,0-28.638-1.793-49.716-14.339C188.435,77.037,181.449,51.452,181.449,51.452
			L181.449,51.452z"/>
	</g>
	<line fill="none" stroke="#92929B" stroke-miterlimit="10" x1="183.405" y1="159.906" x2="193.526" y2="76.012"/>
	<polyline fill="none" stroke="#92929B" stroke-miterlimit="10" points="181.449,51.452 207.978,44.364 192.764,69.201 
		219.291,62.109 217.94,94.602 186.257,160.201 	"/>
	<polyline fill="none" stroke="#92929B" stroke-miterlimit="10" points="217.94,94.602 240.78,77.808 246.76,107.951 
		207.548,148.946 	"/>
	<polyline fill="none" stroke="#92929B" stroke-miterlimit="10" points="246.76,107.951 265.44,85.026 273.508,108.655 
		275.005,81.357 	"/>
</g>
<g>
	<path fill="none" stroke="#49485A" stroke-width="0.75" stroke-miterlimit="10" d="M101.672,251.112
		c0.527,2.378,0.404,4.246-1.669,5.852c-1.641,1.271-4.215,1.984-4.45-0.766c0.289-0.354,0.257,0.162,0.67,0.038"/>
	<path fill="none" stroke="#49485A" stroke-width="0.75" stroke-miterlimit="10" d="M101.99,251.752
		c0.016,1.544,0.343,4.741,1.96,5.184c2.321,0.632,2.761-2.423,2.527-2.619"/>
</g>
<g>
	<path fill="none" stroke="#6E6D7A" stroke-width="0.75" stroke-miterlimit="10" d="M211.128,247.081
		c1.391,1.908,1.638,3.632-1.238,5.927c-2.277,1.817-6.153,3.521-7.171,1.157c0.369-0.435,0.444,0.038,1.062-0.243"/>
	<path fill="none" stroke="#6E6D7A" stroke-width="0.75" stroke-miterlimit="10" d="M211.781,247.521
		c0.388,1.375,1.655,4.1,4.298,3.826c3.795-0.396,3.765-3.312,3.353-3.391"/>
</g>
<g>
	<path fill="none" stroke="#92929B" stroke-width="0.75" stroke-miterlimit="10" d="M315.237,258.146
		c-0.764-2.035-0.061,1.372-0.979,2.265c-1.58,1.533-1.744,2.956-4.63,2.184c-0.115-0.548,0.056-1.083-0.058-1.614"/>
	<path fill="none" stroke="#92929B" stroke-width="0.75" stroke-miterlimit="10" d="M315.237,258.146
		c0.049,6.926,7.799,5.325,7.366,1.134"/>
</g>
</svg>
