<?xml version="1.0" encoding="utf-8"?>
<!-- Generator: Adobe Illustrator 16.2.1, SVG Export Plug-In . SVG Version: 6.00 Build 0)  -->
<!DOCTYPE svg PUBLIC "-//W3C//DTD SVG 1.1//EN" "http://www.w3.org/Graphics/SVG/1.1/DTD/svg11.dtd">
<svg version="1.1" id="Layer_1" xmlns="http://www.w3.org/2000/svg" xmlns:xlink="http://www.w3.org/1999/xlink" x="0px" y="0px"
	 width="390px" height="414px" viewBox="73.5 57.14 390 414" enable-background="new 73.5 57.14 390 414" xml:space="preserve">
<path opacity="0.2" fill="#22315E" enable-background="new    " d="M214.218,231.424c0,0-4.057-1.931-7.917-5.6
	c-3.862-3.668-5.985-4.248-5.985-4.248l3.861,5.6c0,0-1.543,2.124-4.44-0.386s-6.758-5.407-6.758-5.407l5.212,6.759
	c0,0-3.089,1.931-5.792-0.58c-2.704-2.511-5.677-8.736-5.406-7.918c0.191,0.58,0.617,6.104,2.124,8.111
	c0.58,0.771,3.089,3.09-1.158,1.158c-4.247-1.931-7.337-5.792-7.337-5.792s2.894,9.654,6.178,11.585
	c3.283,1.931,7.145,2.125,8.688,1.545c1.545-0.58-6.951,3.667-6.951,3.667s8.302-2.125,9.848-2.125c1.543,0-1.158,2.511-1.158,2.511
	l6.951-3.09l-0.964,2.704c0,0,4.248-2.897,6.178-2.704c1.931,0.194,6.645-0.119,6.645-0.119S215.183,231.808,214.218,231.424z"/>
<path opacity="0.2" fill="#22315E" enable-background="new    " d="M238.626,230.265c0,0,4.056-1.93,7.917-5.601
	c3.862-3.669,5.985-4.248,5.985-4.248l-3.861,5.6c0,0,1.544,2.124,4.44-0.387c2.897-2.51,6.759-5.407,6.759-5.407l-5.213,6.758
	c0,0,3.09,1.931,5.792-0.58c2.703-2.51,5.677-8.735,5.406-7.917c-0.192,0.58-0.617,6.102-2.125,8.111
	c-0.579,0.771-3.088,3.089,1.159,1.158c4.247-1.932,7.336-5.793,7.336-5.793s-2.895,9.654-6.178,11.585
	c-3.282,1.931-7.144,2.125-8.688,1.546c-1.545-0.58,6.951,3.667,6.951,3.667s-8.302-2.124-9.847-2.124
	c-1.544,0,1.159,2.511,1.159,2.511l-6.951-3.09l0.965,2.704c0,0-4.247-2.896-6.178-2.704c-1.931,0.194-6.645-0.118-6.645-0.118
	S237.66,230.65,238.626,230.265z"/>
<path opacity="0.2" fill="#22315E" enable-background="new    " d="M218.079,238.76c-2.937-3.412-3.289-7.743-8.109-10.298
	c-4.485-2.377-12.595-3.216-16.828,0.307c-12.629,10.515,19.461,10.704,23.779,12.309"/>
<path opacity="0.2" fill="#22315E" enable-background="new    " d="M236.558,235.284c2.937-3.411,3.29-7.742,8.11-10.298
	c4.484-2.378,12.594-3.216,16.827,0.307c12.63,10.515-19.461,10.705-23.778,12.308"/>
<path fill="#22315E" d="M215.376,236.831c-2.041-6.383-18.46-8.905-18.417-0.115c6.912,0.343,12.932,1.512,19.075,2.312
	c0.562-1.741-0.17-2.748-0.658-3.742"/>
<path fill="#22315E" d="M238.757,233.74c2.041-6.382,18.459-8.903,18.417-0.114c-6.912,0.343-12.932,1.511-19.075,2.313
	c-0.563-1.741,0.169-2.749,0.658-3.743"/>
<g>
	<path fill="none" stroke="#92929B" stroke-width="1.5" stroke-linecap="round" stroke-linejoin="round" stroke-miterlimit="10" d="
		M450.684,117.758c-4.695,8.507-27.451,3.272-51.694-10.112c-24.251-13.382-40.808-29.845-36.114-38.352
		c4.697-8.504,26.034-0.703,50.278,12.68C437.403,95.357,455.379,109.254,450.684,117.758z"/>
	<g>
		<path fill="#92929B" d="M329.565,86.13c1.499,3.401,3.711,7.807,6.86,12.785c6.572,10.391,18.645,25.3,38.831,37.319
			c27.729,16.503,53.129,18.968,65.803,18.968c0.944,0,1.811-0.014,2.596-0.037l-106.96,67.321l-4.718-2.604L329.565,86.13
			 M328.121,78.58l2.562,142.082l6.054,3.342l111.986-70.484c0,0-2.784,0.375-7.665,0.375c-12.207,0-37.518-2.347-65.134-18.784
			C337.275,112.098,328.121,78.58,328.121,78.58L328.121,78.58z M448.724,153.52h0.005H448.724z"/>
	</g>
	
		<line fill="none" stroke="#92929B" stroke-width="1.5" stroke-linecap="round" stroke-linejoin="round" stroke-miterlimit="10" x1="330.684" y1="220.662" x2="343.942" y2="110.756"/>
	
		<polyline fill="none" stroke="#92929B" stroke-width="1.5" stroke-linecap="round" stroke-linejoin="round" stroke-miterlimit="10" points="
		328.121,78.58 362.875,69.294 342.946,101.832 377.696,92.543 375.925,135.111 334.421,221.048 	"/>
	
		<polyline fill="none" stroke="#92929B" stroke-width="1.5" stroke-linecap="round" stroke-linejoin="round" stroke-miterlimit="10" points="
		375.925,135.111 405.849,113.109 413.681,152.599 362.312,206.303 	"/>
	
		<polyline fill="none" stroke="#92929B" stroke-width="1.5" stroke-linecap="round" stroke-linejoin="round" stroke-miterlimit="10" points="
		413.681,152.599 438.155,122.566 448.724,153.52 450.684,117.758 	"/>
</g>
<defs>
	<filter id="Adobe_OpacityMaskFilter" filterUnits="userSpaceOnUse" x="78.701" y="261.633" width="132.792" height="130.423">
		<feColorMatrix  type="matrix" values="1 0 0 0 0  0 1 0 0 0  0 0 1 0 0  0 0 0 1 0"/>
	</filter>
</defs>
<mask maskUnits="userSpaceOnUse" x="78.701" y="261.633" width="132.792" height="130.423" id="SVGID_1_">
	<g filter="url(#Adobe_OpacityMaskFilter)">
		<g>
			<path fill="#FFFFFF" d="M149.92,362.277c6.928,6.929,23.085-10.402,23.085-10.402s-2.516,12.922-4.963,28.381
				c-7.623-3.258-16.805-7.742-18.123-11.05c-2.324-5.777-18.482-12.705-39.289-12.705c-20.783,0-21.935-31.188-21.935-34.64
				c0-3.477,32.337,1.149,51.97-3.477c16.779-3.955,27.905-14.79,30.779-17.858c-1.436,6.522-3.689,13.161-7.238,18.361
				C164.207,318.887,142.968,355.35,149.92,362.277z"/>
		</g>
	</g>
</mask>
<g mask="url(#SVGID_1_)">
	<path fill="#FFFFFF" d="M204.215,359.083c2.713,1.441-9.815,16.533-17.012,15.447c-5.84-0.886-13.591,1.813-17.086,3.669
		c2.397-1.527,4.795-3.089,6.988-4.588c1.103-0.773,2.157-1.514,3.104-2.237c1.151-0.861,2.179-1.687,3.02-2.466
		c1.591-1.475,3.698-4.104,5.92-7.224c0.798-1.098,1.61-2.257,2.416-3.456C193.194,357.917,201.894,357.845,204.215,359.083z"/>
	<path fill="#C52A2B" d="M189.451,361.533c-2.232,3.119-4.335,5.743-5.923,7.223c-0.843,0.774-1.871,1.605-3.022,2.464l-0.237-0.313
		c0,0-8.437-0.549-24.083-11.397c-0.565-4.063-1.282-8.303-2.158-12.482c1.527-0.101,3.053-0.198,4.545-0.287
		c9.006,5.986,18.803,11.893,21.207,12.505l9.605,2.244L189.451,361.533z"/>
	<path fill="#FFFFFF" d="M180.268,370.906l0.237,0.313c-0.945,0.725-2.007,1.466-3.106,2.236l-0.079-0.114
		c-4.147-0.481-10.954-4.378-20.78-11.171c-0.111-0.871-0.234-1.764-0.355-2.662C171.832,370.358,180.268,370.906,180.268,370.906z"
		/>
	<path fill="#FFFFFF" d="M189.451,361.533l-0.066-0.046l-9.605-2.244c-2.404-0.611-12.201-6.519-21.207-12.505
		c2.306-0.133,4.547-0.242,6.653-0.334c3.048,2.383,5.748,4.221,7.854,5.163c8.456,3.816,17.464,4.17,20.355,4.179
		c-0.52,0.786-1.044,1.567-1.574,2.326C191.056,359.271,190.248,360.43,189.451,361.533z"/>
	<path fill="#22315E" d="M177.32,373.342l0.079,0.114c-2.192,1.498-4.586,3.059-6.991,4.585c0,0,0,0-0.006,0.017
		c-0.74,0.393-1.288,0.745-1.591,1.018c-4.129,2.66-8.036,5.179-10.437,7.127c0,0-0.169-10.776-1.834-24.03
		C166.366,368.964,173.173,372.862,177.32,373.342z"/>
	<path fill="#22315E" d="M203.386,339.742c-1.435,2.49-5.586,9.409-9.951,16.004c-2.891-0.009-11.899-0.362-20.355-4.179
		c-2.106-0.942-4.806-2.78-7.854-5.163c6.154-0.264,11.226-0.316,13.461,0.001C184.377,347.203,203.386,339.742,203.386,339.742z"/>
	<path fill="#FFFFFF" d="M203.399,339.732l-0.013,0.011c0,0-19.009,7.461-24.7,6.663c-2.234-0.317-7.307-0.265-13.461-0.001
		c-2.598-2.025-5.442-4.447-8.362-7.047l0.267-0.3c2.187,1.851,5.638,3.103,5.638,3.103s40.817-9.312,45.561-12.387l0.236,0.132
		C206.306,334.212,204.629,337.605,203.399,339.732z"/>
	<path fill="#FFFFFF" d="M158.374,386.201c-1.402,1.138-2.791,2.087-4.083,2.851l-0.67-0.986c0,0-1.88-24.187-4.013-26.855
		c-2.132-2.646-7.262-5.266-7.262-5.266s-0.282-0.781-0.625-0.431l-1.799-1.498c0.703-0.836,1.344-1.645,1.928-2.373
		c5.505,4.033,10.394,7.562,14.69,10.528C158.205,375.425,158.374,386.201,158.374,386.201z"/>
	<path fill="#C52A2B" d="M153.622,388.066l0.67,0.986c-3.874,2.283-6.886,3.004-6.886,3.004s-2.003-1.746-4.874-3.134l0.328-0.688
		c0,0-2.243-28.069-1.695-31.067c0.189-0.999,0.381-1.471,0.557-1.652c0.343-0.351,0.625,0.431,0.625,0.431s5.131,2.619,7.263,5.266
		C151.741,363.879,153.622,388.066,153.622,388.066z"/>
	<path fill="#C52A2B" d="M208.564,329.906l-0.236-0.131c-4.743,3.074-45.56,12.387-45.56,12.387s-3.451-1.252-5.638-3.103
		c-0.134-0.133-0.278-0.259-0.408-0.382c-2.121-2.06-0.056-3.589,3.826-4.543c3.861-0.967,43.193-10.565,43.193-10.565l0.03-0.16
		c5.024,1.173,7.457,0.946,7.457,0.946l0.265,0.149C210.428,326.445,209.454,328.239,208.564,329.906z"/>
	<path fill="#FFFFFF" d="M142.86,388.234l-0.328,0.688c-0.962-0.486-2.027-0.918-3.161-1.221
		c-1.186-2.118-4.524-12.241-7.917-23.868c3.058-3.451,6.07-6.911,8.468-9.818l1.799,1.498c-0.175,0.183-0.368,0.654-0.557,1.653
		C140.617,360.164,142.86,388.234,142.86,388.234z"/>
	<path fill="#FFFFFF" d="M203.773,323.409l-0.031,0.16c0,0-39.331,9.599-43.193,10.565c-3.881,0.953-5.947,2.483-3.826,4.543
		c0.129,0.123,0.274,0.248,0.407,0.381l-0.267,0.301c-0.966-0.867-1.942-1.74-2.917-2.647c2.459-2.974,5.036-6.108,7.571-9.161
		c20.249-0.243,37.718-5.4,37.718-5.4C200.935,322.689,202.451,323.09,203.773,323.409z"/>
	<path fill="#22315E" d="M139.37,387.701c-1.183-0.35-2.455-0.556-3.708-0.535c-5.98,0.084-9.41,0.742-13.047-2.197l-0.155,0.2
		c-1.937-1.594-4.043-3.194-6.137-4.807c1.293-1.373,8.346-8.92,15.131-16.529C134.846,375.46,138.185,385.583,139.37,387.701z"/>
	<path fill="#FFFFFF" d="M156.185,359.509c0.122,0.897,0.244,1.791,0.356,2.662c-4.296-2.967-9.185-6.496-14.69-10.528
		c0.042-0.062,0.086-0.107,0.128-0.172c0.419-0.543,0.934-1.181,1.494-1.888C148.135,353.6,152.373,356.86,156.185,359.509z"/>
	<path fill="#22315E" d="M199.236,322.15c0,0-17.468,5.156-37.718,5.4c8.853-10.713,17.134-20.624,17.134-20.624l0.108-0.128
		C186.697,313.627,194.321,320.602,199.236,322.15z"/>
	<path fill="#FFFFFF" d="M165.226,346.405c-2.106,0.091-4.347,0.2-6.653,0.334c-1.882-1.259-3.733-2.504-5.469-3.724
		c-0.334-1.349-0.679-2.672-1.049-3.982c0.619-0.765,1.253-1.528,1.891-2.321c0.974,0.907,1.951,1.78,2.917,2.647
		C159.784,341.957,162.628,344.379,165.226,346.405z"/>
	<path fill="#C52A2B" d="M158.572,346.739c-1.493,0.09-3.019,0.187-4.545,0.288c-0.284-1.351-0.599-2.689-0.923-4.012
		C154.84,344.235,156.69,345.48,158.572,346.739z"/>
	<path fill="#FFFFFF" d="M131.454,363.833c-6.787,7.608-13.838,15.156-15.131,16.529c-1.11-0.843-2.23-1.694-3.318-2.535
		l0.375-0.486c2.065-1.396,8.631-8.616,16.782-17.992C130.593,360.859,131.026,362.36,131.454,363.833z"/>
	<path fill="#FFFFFF" d="M153.104,343.015c-0.951-0.66-1.864-1.299-2.74-1.931c0.549-0.673,1.106-1.369,1.691-2.052
		C152.425,340.343,152.768,341.666,153.104,343.015z"/>
	<path fill="#FFFFFF" d="M139.923,354.016c-2.397,2.907-5.41,6.367-8.468,9.818c-0.428-1.474-0.861-2.975-1.292-4.484
		c2.723-3.141,5.618-6.515,8.597-9.986c1.054,0.771,2.082,1.535,3.092,2.28C141.265,352.37,140.625,353.18,139.923,354.016z"/>
	<path fill="#FFFFFF" d="M141.979,351.471c-0.042,0.064-0.086,0.11-0.128,0.172c-1.011-0.745-2.038-1.509-3.092-2.279
		c0.337-0.402,0.681-0.812,1.013-1.211c0.619-0.06,1.244-0.115,1.876-0.166c0.617,0.55,1.222,1.072,1.825,1.597
		C142.913,350.29,142.399,350.928,141.979,351.471z"/>
	<path fill="#FFFFFF" d="M150.364,341.084c-0.372-0.272-0.738-0.535-1.088-0.791c-0.498-0.356-1.06-0.834-1.67-1.388
		c1.084-1.288,2.167-2.566,3.23-3.834c0.431,1.291,0.838,2.617,1.22,3.961C151.47,339.715,150.913,340.411,150.364,341.084z"/>
	<path fill="#FFFFFF" d="M153.946,336.71c-0.639,0.793-1.272,1.557-1.891,2.322c-0.382-1.344-0.789-2.67-1.22-3.962
		c0.186-0.227,0.379-0.458,0.572-0.677C152.253,335.177,153.102,335.942,153.946,336.71z"/>
	<path fill="#FFFFFF" d="M153.946,336.71c-0.845-0.769-1.693-1.534-2.54-2.316c1.968-2.336,3.884-4.65,5.743-6.877
		c1.453,0.05,2.917,0.053,4.368,0.033C158.983,330.603,156.406,333.738,153.946,336.71z"/>
	<path fill="#FFFFFF" d="M141.648,347.987c-0.632,0.052-1.256,0.106-1.876,0.166c0.302-0.345,0.602-0.695,0.892-1.048
		C140.989,347.407,141.322,347.708,141.648,347.987z"/>
	<path fill="#FFFFFF" d="M178.651,306.927c0,0-8.28,9.911-17.134,20.623c-1.452,0.021-2.916,0.018-4.368-0.033
		c10.521-12.61,18.774-22.646,18.774-22.646l0.249-0.286c0.866,0.726,1.73,1.477,2.586,2.215L178.651,306.927z"/>
	<path fill="#FFFFFF" d="M103.058,367.944l-0.513,0.455c-0.858-0.915-1.703-1.882-2.539-2.868c1.442-1.744,5.56-6.888,11.157-15.067
		c0.495-0.735,1.212-1.636,2.104-2.683c2.089,0.211,4.171,0.392,6.195,0.552C105.769,365.148,103.058,367.944,103.058,367.944z"/>
	<path fill="#FFFFFF" d="M168.538,298.51c-1.141,1.032-10.806,9.792-21.737,20.468c-0.224-1.262-0.422-2.551-0.604-3.835
		c10.746-10.062,19.735-18.187,19.735-18.187l0.114-0.177C166.866,297.324,167.698,297.904,168.538,298.51z"/>
	<path fill="#FFFFFF" d="M121.26,346.115c-0.619,0.761-1.222,1.498-1.797,2.218c-2.024-0.16-4.106-0.341-6.195-0.552
		c2.326-2.75,5.894-6.491,10.092-10.691c0.425,0.395,0.86,0.784,1.299,1.174c0.221,0.973,0.464,1.986,0.705,3.01
		C123.893,342.941,122.522,344.56,121.26,346.115z"/>
	<path fill="#FFFFFF" d="M126.543,339.926c-0.396,0.449-0.796,0.891-1.18,1.348c-0.241-1.023-0.484-2.037-0.705-3.01
		C125.278,338.824,125.906,339.384,126.543,339.926z"/>
	<path fill="#FFFFFF" d="M126.543,339.926c-0.637-0.542-1.265-1.102-1.885-1.662c-0.159-0.688-0.316-1.369-0.461-2.024
		c0.803-0.81,1.642-1.641,2.493-2.476c0.93,0.938,1.883,1.88,2.863,2.839C128.517,337.722,127.511,338.838,126.543,339.926z"/>
	<path fill="#FFFFFF" d="M146.802,318.979c-1.872,1.827-3.774,3.715-5.68,5.61c-0.841-0.815-1.659-1.609-2.442-2.367
		c2.536-2.42,5.074-4.799,7.518-7.079C146.379,316.428,146.578,317.716,146.802,318.979z"/>
	<path fill="#FFFFFF" d="M141.122,324.589c-0.334,0.344-0.688,0.688-1.024,1.035c-0.208-0.04-0.415-0.083-0.63-0.133
		c-1.162-0.257-2.323-0.5-3.485-0.726c0.896-0.847,1.797-1.701,2.697-2.544C139.463,322.981,140.281,323.775,141.122,324.589z"/>
	<path fill="#FFFFFF" d="M140.098,325.625c-0.828,0.839-1.651,1.667-2.461,2.507c-0.754-0.887-1.512-1.797-2.299-2.732
		c0.219-0.214,0.433-0.415,0.645-0.634c1.162,0.226,2.323,0.469,3.485,0.726C139.683,325.542,139.889,325.585,140.098,325.625z"/>
	<path fill="#22315E" d="M166.047,296.779l-0.114,0.177c0,0-8.988,8.125-19.734,18.187c-1.655-11.245-2.354-23.428-2.641-32.415
		c5.758,2.055,10.588,4.625,12.009,5.4c0,0,0,0,0.007,0.009c2.551,2.966,5.237,5.497,7.946,7.062
		C164.343,295.682,165.193,296.198,166.047,296.779z"/>
	<path fill="#22315E" d="M111.163,350.464c-5.595,8.18-9.714,13.323-11.157,15.067c-2.542-2.989-4.935-6.116-6.825-8.743
		l0.187-0.145c0,0-1.684-6.923-3.994-11.372c-0.073-0.144-0.148-0.283-0.206-0.444c5.627,0.808,14.946,2.076,24.098,2.954
		C112.375,348.828,111.658,349.729,111.163,350.464z"/>
	<path fill="#FFFFFF" d="M124.658,338.264c-0.438-0.39-0.874-0.78-1.299-1.174c0.275-0.283,0.552-0.573,0.837-0.851
		C124.343,336.895,124.499,337.575,124.658,338.264z"/>
	<path fill="#FFFFFF" d="M138.68,322.222c-0.9,0.843-1.801,1.697-2.697,2.544c-0.458-0.088-0.91-0.169-1.364-0.245
		c-3.957-4.804-8.149-10.117-12.102-15.204c0.036-1.407,0.08-2.857,0.115-4.319c2.812,3.919,5.537,7.358,7.693,9.271
		c1.01,0.89,2.321,2.128,3.85,3.611c0.582,0.885,1.243,1.764,1.922,2.584c0.957,1.124,1.598,1.458,2.027,1.224
		C138.304,321.859,138.49,322.036,138.68,322.222z"/>
	<path fill="#FFFFFF" d="M135.983,324.766c-0.212,0.219-0.425,0.419-0.645,0.634c-0.229-0.293-0.475-0.59-0.719-0.879
		C135.073,324.597,135.526,324.678,135.983,324.766z"/>
	<path fill="#FFFFFF" d="M126.69,333.764c-0.852,0.835-1.69,1.666-2.493,2.476c-0.503-2.321-0.925-4.443-1.231-6.28
		C124.162,331.211,125.412,332.473,126.69,333.764z"/>
	<path fill="#FFFFFF" d="M124.197,336.24c-0.286,0.276-0.562,0.566-0.837,0.851c-1.144-1.051-2.253-2.108-3.318-3.179
		c-1.019-1.851-3.552-6.16-5.659-6.825c-0.196-0.062-0.523-0.118-0.982-0.178c-1.472-1.631-2.861-3.261-4.17-4.866
		c2.106,0.05,4.294,0.129,6.518,0.273c2.23,2.441,4.64,4.984,7.217,7.643C123.273,331.796,123.694,333.917,124.197,336.24z"/>
	<path fill="#FFFFFF" d="M123.36,337.09c-4.198,4.199-7.766,7.94-10.092,10.691c-9.151-0.878-18.472-2.146-24.098-2.954
		c-0.848-2.008-1.195-5.53-1.239-9.839c2.881-0.39,6.805-0.717,11.903-0.797c13.159-0.206,20.646,0.564,20.646,0.564
		s-0.159-0.331-0.437-0.846C121.106,334.982,122.217,336.039,123.36,337.09z"/>
	<path fill="#C52A2B" d="M138.713,315.332c0.244,3.325,0.221,5.878-0.587,6.354c-1.43-1.389-2.754-2.669-3.95-3.809
		c-1.771-2.618-2.987-5.12-2.987-5.12s-1.325-19.196-1.744-32.803c2.498-0.085,5.188,0.298,7.861,0.925
		C137.825,294.771,138.489,312.335,138.713,315.332z"/>
	<path fill="#1A1F3B" d="M89.158,350.608c-1.289-1.459-2.612-3.766-3.851-6.367c0.91,0.147,2.241,0.352,3.862,0.587
		c0.059,0.161,0.134,0.301,0.206,0.444c2.31,4.448,3.994,11.372,3.994,11.372l-0.187,0.145c-1.876-2.597-3.276-4.697-3.845-5.678
		c-0.077-0.125-0.179-0.273-0.288-0.415L89.158,350.608z"/>
	<path fill="#FFFFFF" d="M131.19,312.757c0,0,1.215,2.502,2.987,5.12c-1.528-1.481-2.839-2.72-3.85-3.61
		c-2.157-1.911-4.881-5.352-7.693-9.271c0.246-8.312,0.599-17.243,0.875-23.86c1.591-0.563,3.036-0.931,4.314-1.072
		c0.531-0.064,1.079-0.098,1.623-0.11C129.865,293.561,131.19,312.757,131.19,312.757z"/>
	<path fill="#C52A2B" d="M120.043,333.91c-1.019-1.851-3.552-6.16-5.659-6.825c-0.196-0.062-0.523-0.118-0.982-0.178
		c-0.26-0.018-0.566-0.051-0.914-0.072c-4.069-0.218-15.427-0.09-24.345-0.019c-0.144,2.903-0.234,5.675-0.212,8.171
		c2.881-0.389,6.805-0.717,11.903-0.797c13.159-0.206,20.646,0.564,20.646,0.564S120.321,334.425,120.043,333.91z"/>
	<path fill="#FFFFFF" d="M113.401,326.907c-0.26-0.018-0.566-0.051-0.914-0.072c-4.663-0.345-16.258-0.414-24.327-0.419
		c0.07-1.28,0.149-2.58,0.243-3.883c4.229-0.317,10.437-0.633,17.667-0.548c1.038,0.007,2.091,0.028,3.16,0.056
		C110.539,323.647,111.928,325.277,113.401,326.907z"/>
	<path fill="#C52A2B" d="M168.538,298.51c-1.141,1.032-10.806,9.792-21.737,20.468c-1.872,1.828-3.774,3.715-5.68,5.61
		c-0.335,0.344-0.688,0.688-1.025,1.036c-0.827,0.839-1.65,1.666-2.46,2.507c-0.754-0.888-1.512-1.798-2.299-2.732
		c-0.229-0.295-0.475-0.59-0.719-0.88c-3.957-4.804-8.149-10.117-12.101-15.204c-6.113-7.899-11.611-15.274-14.666-19.383
		c-4.026,2.973-7.919,6.393-11.087,9.892c2.44,3.239,8.977,11.597,18.984,22.491c2.23,2.442,4.639,4.984,7.217,7.643
		c1.196,1.253,2.446,2.515,3.724,3.805c0.93,0.938,1.883,1.88,2.863,2.839c-1.036,1.12-2.041,2.235-3.01,3.323
		c-0.396,0.449-0.797,0.891-1.18,1.348c-1.471,1.667-2.84,3.287-4.104,4.842c-0.619,0.761-1.222,1.498-1.797,2.218
		c-13.694,16.815-16.405,19.611-16.405,19.611l-0.512,0.455l-0.007,0.009c0.994,1.089,1.986,2.124,2.97,3.076
		c2.189,2.119,4.791,4.229,7.497,6.344l0.375-0.487c2.065-1.396,8.631-8.616,16.782-17.992c2.723-3.141,5.618-6.515,8.597-9.986
		c0.337-0.401,0.681-0.811,1.013-1.209c0.303-0.345,0.603-0.696,0.893-1.049c0.325,0.303,0.657,0.604,0.983,0.883
		c0.617,0.549,1.222,1.071,1.826,1.596c4.662,4.018,8.9,7.277,12.712,9.927c-0.565-4.063-1.282-8.304-2.158-12.482
		c-0.284-1.351-0.599-2.689-0.923-4.012c-0.951-0.661-1.864-1.299-2.74-1.932c-0.372-0.271-0.738-0.534-1.088-0.79
		c-0.498-0.356-1.059-0.834-1.67-1.389c1.084-1.287,2.167-2.565,3.23-3.833c0.186-0.227,0.379-0.458,0.572-0.677
		c1.968-2.336,3.884-4.65,5.744-6.877c10.521-12.611,18.773-22.646,18.773-22.646l0.25-0.287
		C173.604,302.421,171.029,300.335,168.538,298.51z"/>
	<path fill="#1A1F3B" d="M155.567,288.128c-1.421-0.775-6.251-3.345-12.009-5.4c-0.229-6.982-0.211-12.037-0.207-13.244
		C146.267,274.936,150.649,282.376,155.567,288.128z"/>
	<path fill="#FFFFFF" d="M115.748,322.316c-2.224-0.145-4.411-0.225-6.518-0.273c-7.163-8.669-12.119-16.405-14.343-20.042
		c0.591-0.731,1.218-1.458,1.877-2.175C99.206,303.064,105.742,311.421,115.748,322.316z"/>
	<path fill="#22315E" d="M109.231,322.041c-1.07-0.027-2.123-0.05-3.16-0.056c-5.698-0.118-12.509-0.125-17.622-0.029
		c0.181-2.754,0.405-5.558,0.65-8.302c0.322-3.581,2.518-7.637,5.788-11.654C97.112,305.636,102.068,313.372,109.231,322.041z"/>
	<path fill="#FFFFFF" d="M122.634,304.997c-0.035,1.462-0.08,2.912-0.115,4.319c-6.112-7.899-11.611-15.275-14.666-19.383
		c1.145-0.833,2.277-1.623,3.423-2.385C114.133,292.258,118.468,299.178,122.634,304.997z"/>
	<path fill="#FFFFFF" d="M88.16,326.416c8.069,0.006,19.665,0.074,24.327,0.419c-4.069-0.218-15.427-0.09-24.345-0.019
		C88.147,326.683,88.153,326.548,88.16,326.416z"/>
	<path fill="#C8C3C3" d="M89.17,344.827c-1.621-0.235-2.953-0.439-3.864-0.587c-1.252-2.608-2.433-5.494-3.42-8.134
		c0.883-0.24,2.83-0.701,6.044-1.118C87.975,339.297,88.322,342.82,89.17,344.827z"/>
	<path fill="#C8C3C3" d="M143.557,282.728c-1.997-0.712-4.128-1.36-6.25-1.848c-0.354-9.663-0.615-17.557-0.615-17.557
		c0.918-0.59,1.818-1.152,2.676-1.69l0.289,0.453c0,0,1.389,3.071,3.694,7.399C143.347,270.691,143.329,275.745,143.557,282.728z"/>
	<path fill="#FFFFFF" d="M106.07,321.986c-7.23-0.085-13.437,0.23-17.667,0.548c0.016-0.195,0.023-0.385,0.046-0.577
		C93.561,321.861,100.373,321.867,106.07,321.986z"/>
	<path fill="#22315E" d="M123.51,281.137c-0.277,6.617-0.63,15.547-0.875,23.86c-4.165-5.818-8.501-12.739-11.358-17.449
		C115.592,284.681,119.881,282.404,123.51,281.137z"/>
	<path fill="#791613" d="M87.93,334.989c-3.214,0.417-5.161,0.878-6.044,1.118c-1.765-4.645-2.94-8.464-2.94-8.464l-0.244-0.272
		c0.321-0.272,0.635-0.586,0.971-0.932c0,0,0.125-0.003,0.39,0.006c-0.065,0.154-0.095,0.297-0.101,0.434
		c2.124-0.011,4.999-0.018,8.181-0.06C87.998,329.721,87.908,332.492,87.93,334.989z"/>
	<path fill="#C8C3C3" d="M88.16,326.416c-0.007,0.132-0.014,0.267-0.018,0.401c-3.182,0.042-6.057,0.05-8.181,0.06
		c0.006-0.137,0.035-0.279,0.101-0.433C81.1,326.427,84.207,326.41,88.16,326.416z"/>
	<path fill="#C8C3C3" d="M88.404,322.533c-0.094,1.303-0.174,2.603-0.243,3.883c-3.953-0.006-7.06,0.011-8.097,0.028
		c0.497-1.283,2.579-3.081,2.662-4.254c1.362-0.1,3.359-0.18,5.725-0.235C88.427,322.148,88.42,322.338,88.404,322.533z"/>
	<path fill="#791613" d="M137.307,280.88c-2.674-0.628-5.364-1.01-7.861-0.925c-0.197-6.559-0.191-11.84,0.272-13.015
		c2.228-1.251,4.547-2.47,6.974-3.617C136.692,263.323,136.953,271.217,137.307,280.88z"/>
	<path fill="#C8C3C3" d="M129.446,279.954c-0.544,0.013-1.092,0.046-1.623,0.11c-1.278,0.142-2.723,0.509-4.314,1.072
		c0.26-6.026,0.44-10.14,0.44-10.14l-0.235-0.374c1.918-1.267,3.924-2.5,6.005-3.685
		C129.255,268.115,129.249,273.394,129.446,279.954z"/>
	<path fill="#1A1F3B" d="M80.062,326.445c-0.265-0.01-0.39-0.007-0.39-0.007c2.078-2.143,5.763-13.04,14.316-25.896
		c0.217,0.356,0.514,0.856,0.899,1.457c-3.271,4.018-5.466,8.072-5.789,11.654c-0.245,2.744-0.469,5.548-0.65,8.302
		c-2.366,0.056-4.362,0.135-5.725,0.235C82.642,323.364,80.559,325.161,80.062,326.445z"/>
	<path fill="#1A1F3B" d="M123.51,281.137c-3.628,1.267-7.917,3.543-12.234,6.41c-1.251-2.047-2.205-3.678-2.765-4.622
		c4.364-4.288,9.406-8.466,15.204-12.302l0.235,0.374C123.948,270.997,123.769,275.112,123.51,281.137z"/>
	<path fill="#C8C3C3" d="M111.276,287.547c-1.146,0.763-2.278,1.552-3.423,2.385c-1.579-2.128-2.495-3.389-2.495-3.389l-0.19-0.184
		c1.069-1.159,2.19-2.295,3.344-3.435C109.07,283.87,110.025,285.501,111.276,287.547z"/>
	<path fill="#791613" d="M96.765,299.824c-0.66,0.718-1.288,1.443-1.877,2.175c-0.384-0.6-0.682-1.101-0.898-1.457
		c3.054-4.577,6.733-9.411,11.177-14.182l0.191,0.185c0,0,0.917,1.258,2.495,3.388C103.826,292.906,99.933,296.326,96.765,299.824z"
		/>
</g>
<defs>
	<filter id="Adobe_OpacityMaskFilter_1_" filterUnits="userSpaceOnUse" x="78.772" y="259.669" width="132.792" height="130.423">
		<feColorMatrix  type="matrix" values="1 0 0 0 0  0 1 0 0 0  0 0 1 0 0  0 0 0 1 0"/>
	</filter>
</defs>
<mask maskUnits="userSpaceOnUse" x="78.772" y="259.669" width="132.792" height="130.423" id="SVGID_2_">
	<g filter="url(#Adobe_OpacityMaskFilter_1_)">
		<g>
			<path fill="#FFFFFF" d="M149.99,360.312c6.927,6.929,23.085-10.402,23.085-10.402s-2.517,12.922-4.962,28.382
				c-7.623-3.258-16.804-7.742-18.123-11.051c-2.324-5.777-19.022-10.074-39.83-10.074c-20.783,0,16.781-17.582,32.763-23.973
				c3.228-1.289,15.181-8.048,15.181-19.177c0-3.996,11.986-9.59,13.413-15.456c-1.437,6.522-3.689,13.162-7.239,18.363
				C164.276,316.924,143.036,353.384,149.99,360.312z"/>
		</g>
	</g>
</mask>
<g mask="url(#SVGID_2_)">
	<path fill="#FFFFFF" d="M204.284,357.119c2.713,1.442-9.816,16.532-17.01,15.446c-5.842-0.886-13.594,1.814-17.088,3.672
		c2.397-1.53,4.797-3.092,6.989-4.591c1.102-0.772,2.155-1.514,3.103-2.236c1.152-0.862,2.18-1.687,3.02-2.465
		c1.593-1.475,3.7-4.104,5.92-7.225c0.799-1.099,1.612-2.257,2.416-3.455C193.264,355.952,201.965,355.88,204.284,357.119z"/>
	<path fill="#C52A2B" d="M189.521,359.569c-2.232,3.121-4.336,5.744-5.923,7.224c-0.843,0.776-1.871,1.604-3.022,2.462l-0.236-0.312
		c0,0-8.438-0.547-24.083-11.396c-0.565-4.064-1.282-8.304-2.16-12.483c1.529-0.102,3.053-0.199,4.546-0.287
		c9.006,5.985,18.804,11.893,21.207,12.504l9.606,2.245L189.521,359.569z"/>
	<path fill="#FFFFFF" d="M180.339,368.942l0.236,0.312c-0.945,0.728-2.006,1.467-3.106,2.239l-0.079-0.116
		c-4.146-0.481-10.954-4.377-20.779-11.171c-0.109-0.87-0.234-1.764-0.354-2.661C171.902,368.395,180.339,368.942,180.339,368.942z"
		/>
	<path fill="#FFFFFF" d="M189.521,359.569l-0.065-0.044l-9.606-2.246c-2.402-0.61-12.201-6.518-21.207-12.504
		c2.306-0.134,4.546-0.242,6.654-0.335c3.047,2.383,5.747,4.221,7.854,5.164c8.456,3.816,17.463,4.169,20.354,4.18
		c-0.52,0.787-1.043,1.567-1.572,2.324C191.127,357.305,190.319,358.468,189.521,359.569z"/>
	<path fill="#22315E" d="M177.39,371.378l0.079,0.116c-2.19,1.498-4.586,3.057-6.99,4.586c0,0,0,0-0.006,0.014
		c-0.739,0.394-1.287,0.747-1.591,1.02c-4.129,2.659-8.036,5.176-10.438,7.126c0,0-0.168-10.776-1.834-24.031
		C166.435,367,173.244,370.897,177.39,371.378z"/>
	<path fill="#22315E" d="M203.457,337.779c-1.435,2.489-5.586,9.408-9.953,16.005c-2.891-0.011-11.899-0.363-20.354-4.18
		c-2.107-0.943-4.806-2.78-7.854-5.164c6.153-0.261,11.225-0.316,13.459,0.001C184.447,345.239,203.457,337.779,203.457,337.779z"/>
	<path fill="#FFFFFF" d="M203.468,337.769l-0.011,0.01c0,0-19.01,7.461-24.701,6.662c-2.234-0.317-7.306-0.262-13.459-0.001
		c-2.599-2.025-5.443-4.448-8.363-7.047l0.267-0.299c2.187,1.85,5.636,3.102,5.636,3.102s40.818-9.312,45.561-12.387l0.236,0.132
		C206.376,332.247,204.699,335.64,203.468,337.769z"/>
	<path fill="#FFFFFF" d="M158.444,384.238c-1.4,1.139-2.791,2.087-4.081,2.849l-0.671-0.985c0,0-1.881-24.186-4.013-26.855
		c-2.133-2.645-7.262-5.266-7.262-5.266s-0.283-0.781-0.625-0.43l-1.799-1.499c0.702-0.836,1.344-1.643,1.928-2.371
		c5.506,4.03,10.394,7.562,14.689,10.526C158.275,373.461,158.444,384.238,158.444,384.238z"/>
	<path fill="#C52A2B" d="M153.692,386.101l0.671,0.985c-3.875,2.286-6.887,3.006-6.887,3.006s-2.003-1.748-4.875-3.135l0.329-0.688
		c0,0-2.242-28.069-1.695-31.069c0.19-0.995,0.381-1.469,0.557-1.651c0.342-0.352,0.625,0.43,0.625,0.43s5.13,2.621,7.262,5.266
		C151.811,361.915,153.692,386.101,153.692,386.101z"/>
	<path fill="#C52A2B" d="M208.635,327.941l-0.236-0.131c-4.743,3.075-45.561,12.387-45.561,12.387s-3.45-1.252-5.636-3.102
		c-0.134-0.134-0.279-0.26-0.408-0.382c-2.121-2.06-0.056-3.59,3.824-4.544c3.863-0.966,43.194-10.564,43.194-10.564l0.031-0.16
		c5.025,1.174,7.458,0.946,7.458,0.946l0.263,0.15C210.498,324.481,209.525,326.275,208.635,327.941z"/>
	<path fill="#FFFFFF" d="M142.93,386.27l-0.329,0.688c-0.961-0.486-2.027-0.917-3.16-1.222c-1.186-2.117-4.524-12.238-7.917-23.867
		c3.059-3.451,6.07-6.91,8.468-9.818l1.799,1.499c-0.176,0.183-0.367,0.656-0.557,1.651C140.688,358.2,142.93,386.27,142.93,386.27z
		"/>
	<path fill="#FFFFFF" d="M203.842,321.445l-0.03,0.16c0,0-39.332,9.599-43.194,10.564c-3.881,0.954-5.945,2.483-3.825,4.544
		c0.129,0.123,0.274,0.248,0.408,0.382l-0.267,0.299c-0.967-0.865-1.943-1.738-2.917-2.647c2.458-2.974,5.035-6.107,7.57-9.16
		c20.249-0.243,37.718-5.401,37.718-5.401C201.006,320.724,202.521,321.127,203.842,321.445z"/>
	<path fill="#22315E" d="M139.442,385.736c-1.185-0.349-2.456-0.555-3.708-0.534c-5.981,0.085-9.411,0.742-13.049-2.197
		l-0.153,0.201c-1.938-1.596-4.044-3.196-6.139-4.808c1.293-1.374,8.346-8.921,15.132-16.53
		C134.916,373.497,138.255,383.618,139.442,385.736z"/>
	<path fill="#FFFFFF" d="M156.256,357.546c0.121,0.896,0.245,1.791,0.354,2.661c-4.296-2.965-9.184-6.496-14.689-10.526
		c0.042-0.063,0.087-0.109,0.128-0.173c0.419-0.543,0.935-1.181,1.494-1.887C148.204,351.636,152.444,354.896,156.256,357.546z"/>
	<path fill="#22315E" d="M199.305,320.184c0,0-17.468,5.158-37.717,5.401c8.854-10.713,17.134-20.624,17.134-20.624l0.108-0.128
		C186.767,311.663,194.389,318.637,199.305,320.184z"/>
	<path fill="#FFFFFF" d="M165.297,344.44c-2.108,0.092-4.348,0.2-6.654,0.335c-1.883-1.259-3.734-2.506-5.469-3.724
		c-0.334-1.35-0.679-2.67-1.047-3.982c0.618-0.765,1.252-1.528,1.891-2.322c0.974,0.909,1.951,1.782,2.917,2.647
		C159.854,339.992,162.698,342.414,165.297,344.44z"/>
	<path fill="#C52A2B" d="M154.096,345.062c0.878,4.18,1.595,8.419,2.16,12.483c-3.812-2.65-8.051-5.909-12.713-9.926
		c0.462-0.581,0.962-1.213,1.509-1.88C147.982,345.498,151.046,345.273,154.096,345.062z"/>
	<path fill="#C52A2B" d="M158.642,344.775c-1.494,0.089-3.018,0.186-4.546,0.287c-0.284-1.351-0.599-2.689-0.923-4.011
		C154.908,342.269,156.76,343.516,158.642,344.775z"/>
	<path fill="#C52A2B" d="M153.173,341.051c0.324,1.322,0.64,2.661,0.923,4.011c-3.05,0.21-6.115,0.437-9.045,0.678
		c1.54-1.905,3.366-4.156,5.384-6.621C151.31,339.751,152.223,340.391,153.173,341.051z"/>
	<path fill="#FFFFFF" d="M131.524,361.868c-6.787,7.608-13.838,15.156-15.132,16.53c-1.109-0.844-2.229-1.694-3.318-2.536
		l0.375-0.486c2.064-1.395,8.631-8.614,16.783-17.992C130.664,358.897,131.096,360.395,131.524,361.868z"/>
	<path fill="#FFFFFF" d="M153.173,341.051c-0.95-0.66-1.863-1.3-2.738-1.932c0.547-0.672,1.104-1.366,1.69-2.052
		C152.494,338.38,152.839,339.701,153.173,341.051z"/>
	<path fill="#FFFFFF" d="M139.992,352.051c-2.397,2.908-5.41,6.367-8.468,9.818c-0.428-1.474-0.86-2.972-1.292-4.484
		c2.723-3.141,5.618-6.513,8.597-9.986c1.053,0.771,2.08,1.534,3.092,2.282C141.336,350.408,140.694,351.215,139.992,352.051z"/>
	<path fill="#FFFFFF" d="M142.049,349.507c-0.042,0.063-0.086,0.109-0.128,0.173c-1.012-0.747-2.039-1.511-3.092-2.282
		c0.336-0.401,0.68-0.811,1.013-1.209c0.617-0.061,1.244-0.114,1.875-0.165c0.617,0.547,1.222,1.07,1.825,1.597
		C142.984,348.325,142.468,348.964,142.049,349.507z"/>
	<path fill="#C52A2B" d="M145.052,345.74c-0.546,0.668-1.047,1.299-1.509,1.88c-0.604-0.526-1.208-1.05-1.826-1.597
		C142.798,345.925,143.92,345.825,145.052,345.74z"/>
	<path fill="#C52A2B" d="M150.436,339.119c-2.018,2.465-3.845,4.716-5.384,6.621c-1.132,0.086-2.252,0.185-3.334,0.283
		c-0.326-0.279-0.657-0.581-0.982-0.884c2.303-2.71,4.642-5.464,6.94-8.197c0.612,0.553,1.174,1.029,1.672,1.386
		C149.696,338.587,150.063,338.847,150.436,339.119z"/>
	<path fill="#FFFFFF" d="M150.436,339.119c-0.373-0.272-0.74-0.532-1.089-0.791c-0.498-0.356-1.061-0.833-1.672-1.386
		c1.084-1.288,2.168-2.569,3.231-3.834c0.431,1.288,0.837,2.616,1.22,3.96C151.539,337.753,150.983,338.448,150.436,339.119z"/>
	<path fill="#FFFFFF" d="M154.017,334.745c-0.639,0.794-1.273,1.558-1.891,2.322c-0.382-1.344-0.79-2.671-1.22-3.96
		c0.185-0.228,0.38-0.46,0.571-0.677C152.324,333.214,153.172,333.98,154.017,334.745z"/>
	<path fill="#FFFFFF" d="M154.017,334.745c-0.846-0.767-1.693-1.532-2.541-2.314c1.969-2.337,3.884-4.652,5.742-6.879
		c1.454,0.05,2.917,0.054,4.368,0.033C159.053,328.639,156.475,331.773,154.017,334.745z"/>
	<path fill="#C52A2B" d="M130.232,357.384c-8.151,9.379-14.719,16.599-16.782,17.992l-0.375,0.486
		c-2.705-2.113-5.306-4.225-7.495-6.343c-0.983-0.952-1.978-1.988-2.972-3.076l0.007-0.009l0.512-0.455
		c0,0,2.711-2.797,16.407-19.608c2.737,0.192,5.371,0.342,7.791,0.411C128.244,350.263,129.226,353.864,130.232,357.384z"/>
	<path fill="#FFFFFF" d="M141.717,346.024c-0.631,0.052-1.257,0.104-1.874,0.165c0.302-0.346,0.6-0.694,0.891-1.049
		C141.059,345.443,141.391,345.744,141.717,346.024z"/>
	<path fill="#C52A2B" d="M138.829,347.398c-2.979,3.474-5.874,6.846-8.597,9.986c-1.006-3.521-1.988-7.121-2.908-10.602
		c3.144,0.092,5.915,0.057,8.093-0.17c0.666-0.058,1.355-0.136,2.07-0.2C137.942,346.752,138.383,347.069,138.829,347.398z"/>
	<path fill="#C52A2B" d="M139.842,346.189c-0.333,0.398-0.676,0.808-1.013,1.209c-0.446-0.329-0.888-0.646-1.343-0.986
		C138.249,346.339,139.027,346.259,139.842,346.189z"/>
	<path fill="#C52A2B" d="M140.734,345.14c-0.29,0.354-0.589,0.703-0.892,1.049c-0.815,0.07-1.594,0.15-2.355,0.223
		c-1.463-1.076-2.966-2.204-4.514-3.346c-2.194-1.637-4.313-3.334-6.36-5.105c0.97-1.086,1.973-2.202,3.011-3.322
		c2.758,2.733,5.665,5.51,8.735,8.347C139.156,343.721,139.959,344.445,140.734,345.14z"/>
	<path fill="#FFFFFF" d="M178.721,304.962c0,0-8.279,9.911-17.134,20.624c-1.452,0.021-2.915,0.017-4.368-0.033
		c10.523-12.61,18.775-22.646,18.775-22.646l0.249-0.288c0.866,0.729,1.73,1.479,2.586,2.216L178.721,304.962z"/>
	<path fill="#C52A2B" d="M147.674,336.943c-2.298,2.734-4.638,5.487-6.94,8.197c-0.774-0.695-1.578-1.419-2.376-2.156
		c-3.07-2.837-5.978-5.612-8.735-8.346c2.567-2.773,5.299-5.636,8.084-8.469C141.602,330.774,145.097,334.619,147.674,336.943z"/>
	<path fill="#C52A2B" d="M150.906,333.109c-1.063,1.265-2.147,2.547-3.231,3.834c-2.578-2.323-6.072-6.169-9.967-10.772
		c0.811-0.844,1.631-1.67,2.459-2.507c0.873,0.193,1.738,0.359,2.628,0.493c2.39,2.312,4.925,4.741,7.51,7.168
		c0.046,0.135,0.092,0.267,0.14,0.401C150.599,332.177,150.76,332.633,150.906,333.109z"/>
	<path fill="#C52A2B" d="M151.476,332.431c-0.19,0.217-0.386,0.45-0.571,0.677c-0.146-0.476-0.307-0.931-0.461-1.382
		c-0.047-0.136-0.093-0.267-0.14-0.402C150.692,331.69,151.083,332.049,151.476,332.431z"/>
	<path fill="#C52A2B" d="M151.476,332.431c-0.393-0.382-0.784-0.742-1.172-1.107c-0.67-1.955-1.27-4.068-1.81-6.335
		c2.915,0.323,5.837,0.507,8.726,0.563C155.361,327.779,153.446,330.095,151.476,332.431z"/>
	<path fill="#C52A2B" d="M137.487,346.411c-0.714,0.064-1.404,0.143-2.07,0.2c-2.178,0.228-4.949,0.263-8.093,0.169
		c-0.675-2.56-1.309-5.079-1.891-7.472c0.383-0.457,0.783-0.899,1.179-1.349c2.048,1.771,4.167,3.468,6.36,5.104
		C134.521,344.207,136.023,345.335,137.487,346.411z"/>
	<path fill="#C52A2B" d="M175.994,302.906c0,0-8.252,10.036-18.775,22.646c-2.889-0.056-5.811-0.239-8.725-0.563
		c-0.616-2.512-1.157-5.191-1.623-7.975c10.93-10.676,20.597-19.437,21.736-20.468c2.491,1.825,5.066,3.912,7.635,6.073
		L175.994,302.906z"/>
	<path fill="#C52A2B" d="M148.494,324.989c0.541,2.268,1.14,4.38,1.81,6.336c-2.584-2.426-5.121-4.854-7.51-7.168
		C144.677,324.516,146.587,324.788,148.494,324.989z"/>
	<path fill="#C52A2B" d="M148.494,324.989c-1.908-0.2-3.818-0.473-5.7-0.832c-0.543-0.511-1.084-1.031-1.601-1.532
		c1.905-1.896,3.807-3.783,5.679-5.61C147.338,319.797,147.879,322.477,148.494,324.989z"/>
	<path fill="#FFFFFF" d="M103.127,365.979l-0.512,0.455c-0.858-0.916-1.702-1.882-2.538-2.868c1.443-1.744,5.56-6.887,11.157-15.066
		c0.495-0.736,1.212-1.637,2.104-2.683c2.091,0.211,4.171,0.39,6.197,0.554C105.839,363.182,103.127,365.979,103.127,365.979z"/>
	<path fill="#C52A2B" d="M127.324,346.782c-2.42-0.07-5.054-0.219-7.791-0.412c0.574-0.723,1.178-1.461,1.797-2.221
		c1.263-1.555,2.633-3.175,4.104-4.841C126.016,341.702,126.65,344.221,127.324,346.782z"/>
	<path fill="#C52A2B" d="M141.193,322.624c0.517,0.501,1.058,1.021,1.601,1.532c-0.89-0.134-1.754-0.301-2.628-0.493
		C140.504,323.312,140.858,322.969,141.193,322.624z"/>
	<path fill="#FFFFFF" d="M168.608,296.546c-1.14,1.032-10.806,9.792-21.736,20.468c-0.224-1.263-0.423-2.55-0.604-3.835
		c10.746-10.062,19.735-18.187,19.735-18.187l0.114-0.175C166.935,295.362,167.769,295.939,168.608,296.546z"/>
	<path fill="#FFFFFF" d="M121.33,344.15c-0.618,0.76-1.223,1.498-1.797,2.221c-2.025-0.164-4.106-0.343-6.197-0.554
		c2.328-2.751,5.895-6.492,10.092-10.693c0.427,0.396,0.863,0.785,1.3,1.175c0.222,0.974,0.464,1.987,0.706,3.011
		C123.963,340.976,122.592,342.595,121.33,344.15z"/>
	<path fill="#FFFFFF" d="M126.613,337.96c-0.396,0.45-0.796,0.892-1.179,1.35c-0.241-1.023-0.483-2.037-0.706-3.011
		C125.348,336.86,125.976,337.42,126.613,337.96z"/>
	<path fill="#FFFFFF" d="M126.613,337.96c-0.637-0.54-1.264-1.101-1.885-1.661c-0.159-0.688-0.315-1.367-0.459-2.022
		c0.801-0.811,1.641-1.642,2.491-2.478c0.93,0.939,1.883,1.88,2.864,2.839C128.586,335.758,127.582,336.874,126.613,337.96z"/>
	<path fill="#FFFFFF" d="M146.872,317.014c-1.872,1.827-3.773,3.715-5.679,5.61c-0.843-0.814-1.66-1.608-2.443-2.367
		c2.537-2.417,5.073-4.799,7.518-7.079C146.448,314.464,146.647,315.751,146.872,317.014z"/>
	<path fill="#FFFFFF" d="M141.193,322.624c-0.335,0.345-0.689,0.688-1.026,1.038c-0.208-0.04-0.414-0.087-0.629-0.135
		c-1.161-0.258-2.323-0.501-3.484-0.726c0.895-0.848,1.796-1.702,2.696-2.545C139.533,321.017,140.35,321.811,141.193,322.624z"/>
	<path fill="#FFFFFF" d="M140.167,323.663c-0.828,0.837-1.649,1.663-2.459,2.507c-0.754-0.89-1.513-1.799-2.3-2.735
		c0.22-0.213,0.434-0.415,0.647-0.633c1.161,0.225,2.323,0.468,3.484,0.726C139.753,323.576,139.959,323.623,140.167,323.663z"/>
	<path fill="#C52A2B" d="M137.707,326.17c-2.785,2.833-5.518,5.694-8.084,8.468c-0.98-0.959-1.933-1.899-2.863-2.839
		c2.744-2.688,5.674-5.526,8.647-8.365C136.195,324.37,136.953,325.281,137.707,326.17z"/>
	<path fill="#22315E" d="M166.118,294.816l-0.114,0.175c0,0-8.99,8.125-19.735,18.187c-1.654-11.244-2.354-23.429-2.64-32.413
		c5.758,2.052,10.588,4.623,12.007,5.397c0,0,0,0,0.009,0.01c2.551,2.966,5.236,5.498,7.943,7.061
		C164.412,293.718,165.263,294.235,166.118,294.816z"/>
	<path fill="#22315E" d="M111.233,348.5c-5.597,8.18-9.713,13.322-11.157,15.065c-2.542-2.989-4.935-6.114-6.824-8.742l0.185-0.143
		c0,0-1.683-6.926-3.994-11.373c-0.072-0.143-0.146-0.284-0.205-0.445c5.627,0.809,14.947,2.076,24.098,2.955
		C112.446,346.864,111.728,347.764,111.233,348.5z"/>
	<path fill="#FFFFFF" d="M124.728,336.299c-0.437-0.39-0.873-0.778-1.3-1.174c0.277-0.282,0.553-0.573,0.839-0.85
		C124.412,334.931,124.57,335.611,124.728,336.299z"/>
	<path fill="#FFFFFF" d="M138.75,320.257c-0.9,0.843-1.801,1.697-2.696,2.545c-0.458-0.089-0.911-0.171-1.363-0.246
		c-3.957-4.804-8.15-10.116-12.102-15.204c0.036-1.405,0.081-2.855,0.114-4.319c2.813,3.92,5.537,7.36,7.694,9.271
		c1.011,0.89,2.321,2.129,3.851,3.611c0.582,0.885,1.242,1.764,1.921,2.584c0.958,1.123,1.6,1.458,2.028,1.223
		C138.375,319.895,138.562,320.073,138.75,320.257z"/>
	<path fill="#FFFFFF" d="M136.054,322.802c-0.213,0.218-0.426,0.42-0.647,0.633c-0.229-0.293-0.475-0.589-0.717-0.879
		C135.143,322.631,135.596,322.714,136.054,322.802z"/>
	<path fill="#C52A2B" d="M135.407,323.435c-2.973,2.838-5.902,5.676-8.647,8.364c-1.277-1.29-2.527-2.551-3.724-3.804
		c-0.304-1.819-0.491-3.334-0.545-4.502c-0.027-0.756-0.051-1.621-0.059-2.62c4.026,0.387,8.14,0.933,12.259,1.684
		C134.932,322.846,135.178,323.142,135.407,323.435z"/>
	<path fill="#FFFFFF" d="M126.76,331.799c-0.852,0.836-1.69,1.667-2.491,2.478c-0.504-2.322-0.925-4.443-1.232-6.281
		C124.233,329.248,125.483,330.508,126.76,331.799z"/>
	<path fill="#FFFFFF" d="M124.268,334.276c-0.287,0.276-0.563,0.566-0.839,0.849c-1.142-1.05-2.25-2.108-3.316-3.177
		c-1.019-1.85-3.552-6.158-5.658-6.826c-0.197-0.062-0.523-0.118-0.983-0.178c-1.472-1.631-2.86-3.26-4.169-4.865
		c2.106,0.048,4.294,0.128,6.517,0.273c2.231,2.442,4.641,4.984,7.217,7.643C123.344,329.833,123.764,331.953,124.268,334.276z"/>
	<path fill="#FFFFFF" d="M123.428,335.124c-4.196,4.2-7.763,7.941-10.092,10.693c-9.151-0.879-18.471-2.146-24.098-2.955
		c-0.848-2.007-1.193-5.531-1.237-9.84c2.881-0.388,6.804-0.716,11.9-0.794c13.161-0.206,20.648,0.562,20.648,0.562
		s-0.159-0.331-0.437-0.845C121.177,333.016,122.286,334.074,123.428,335.124z"/>
	<path fill="#C52A2B" d="M138.784,313.367c0.243,3.327,0.219,5.878-0.589,6.354c-1.43-1.389-2.753-2.667-3.949-3.808
		c-1.772-2.619-2.988-5.121-2.988-5.121s-1.325-19.195-1.744-32.802c2.499-0.087,5.188,0.297,7.861,0.925
		C137.894,292.807,138.559,310.369,138.784,313.367z"/>
	<path fill="#C52A2B" d="M120.113,331.948c0.278,0.513,0.437,0.844,0.437,0.844s-7.488-0.769-20.648-0.562
		c-5.096,0.079-9.019,0.407-11.9,0.795c-0.022-2.494,0.068-5.267,0.209-8.168c8.919-0.073,20.279-0.2,24.347,0.018
		c0.346,0.021,0.653,0.055,0.913,0.071C115.544,327.276,117.752,329.624,120.113,331.948z"/>
	<path fill="#1A1F3B" d="M89.226,348.642c-1.287-1.456-2.609-3.764-3.851-6.365c0.911,0.149,2.242,0.352,3.863,0.586
		c0.059,0.161,0.133,0.303,0.205,0.445c2.311,4.447,3.994,11.373,3.994,11.373l-0.185,0.143c-1.877-2.598-3.277-4.696-3.847-5.677
		c-0.075-0.125-0.18-0.274-0.288-0.416L89.226,348.642z"/>
	<path fill="#C52A2B" d="M134.691,322.556c-4.12-0.75-8.233-1.296-12.259-1.684c-0.046-3.453,0.032-8.234,0.157-13.521
		C126.541,312.44,130.734,317.752,134.691,322.556z"/>
	<path fill="#C52A2B" d="M122.49,323.493c0.055,1.167,0.242,2.682,0.545,4.501c-2.578-2.659-4.987-5.201-7.217-7.643
		c2.165,0.116,4.383,0.284,6.613,0.521C122.439,321.87,122.463,322.737,122.49,323.493z"/>
	<path fill="#FFFFFF" d="M131.26,310.792c0,0,1.215,2.502,2.988,5.121c-1.529-1.481-2.84-2.721-3.851-3.611
		c-2.157-1.909-4.881-5.351-7.694-9.271c0.247-8.312,0.6-17.243,0.876-23.859c1.592-0.563,3.036-0.932,4.314-1.072
		c0.532-0.065,1.08-0.098,1.623-0.11C129.934,291.597,131.26,310.792,131.26,310.792z"/>
	<path fill="#C52A2B" d="M114.453,325.121c2.106,0.668,4.64,4.977,5.658,6.826c-2.36-2.323-4.568-4.671-6.642-7.004
		C113.93,325.003,114.257,325.059,114.453,325.121z"/>
	<path fill="#FFFFFF" d="M113.47,324.943c-0.26-0.018-0.566-0.051-0.913-0.071c-4.664-0.346-16.258-0.414-24.328-0.421
		c0.07-1.279,0.15-2.58,0.245-3.881c4.229-0.318,10.436-0.633,17.667-0.55c1.037,0.009,2.09,0.029,3.16,0.058
		C110.61,321.683,111.998,323.312,113.47,324.943z"/>
	<path fill="#C52A2B" d="M122.431,320.873c-2.23-0.236-4.448-0.405-6.613-0.521c-10.005-10.896-16.541-19.254-18.984-22.491
		c3.168-3.5,7.061-6.919,11.088-9.894c3.054,4.109,8.554,11.486,14.666,19.384C122.463,312.638,122.385,317.42,122.431,320.873z"/>
	<path fill="#1A1F3B" d="M155.636,286.163c-1.419-0.775-6.25-3.345-12.007-5.398c-0.23-6.982-0.212-12.039-0.208-13.246
		C146.338,272.973,150.718,280.411,155.636,286.163z"/>
	<path fill="#FFFFFF" d="M115.818,320.352c-2.223-0.146-4.411-0.227-6.517-0.273c-7.164-8.67-12.119-16.406-14.344-20.041
		c0.591-0.733,1.218-1.459,1.877-2.175C99.278,301.098,105.813,309.456,115.818,320.352z"/>
	<path fill="#22315E" d="M109.302,320.077c-1.071-0.028-2.124-0.05-3.16-0.058c-5.699-0.116-12.511-0.123-17.621-0.028
		c0.18-2.753,0.405-5.559,0.649-8.302c0.324-3.582,2.518-7.636,5.789-11.652C97.182,303.671,102.138,311.408,109.302,320.077z"/>
	<path fill="#FFFFFF" d="M122.703,303.032c-0.033,1.464-0.079,2.914-0.114,4.319c-6.112-7.897-11.611-15.274-14.666-19.383
		c1.145-0.833,2.277-1.623,3.423-2.385C114.203,290.293,118.539,297.215,122.703,303.032z"/>
	<path fill="#FFFFFF" d="M88.23,324.45c8.07,0.008,19.665,0.075,24.328,0.421c-4.068-0.217-15.428-0.09-24.347-0.018
		C88.217,324.718,88.222,324.584,88.23,324.45z"/>
	<path fill="#C8C3C3" d="M89.239,342.863c-1.621-0.234-2.952-0.437-3.863-0.586c-1.252-2.609-2.432-5.494-3.42-8.135
		c0.883-0.24,2.83-0.699,6.045-1.119C88.045,337.331,88.391,340.856,89.239,342.863z"/>
	<path fill="#C8C3C3" d="M143.628,280.765c-1.997-0.714-4.127-1.36-6.25-1.85c-0.353-9.664-0.616-17.558-0.616-17.558
		c0.92-0.589,1.819-1.151,2.677-1.689l0.289,0.452c0,0,1.387,3.07,3.693,7.399C143.417,268.726,143.398,273.782,143.628,280.765z"/>
	<path fill="#FFFFFF" d="M106.141,320.02c-7.232-0.083-13.438,0.231-17.667,0.55c0.015-0.194,0.021-0.386,0.046-0.578
		C93.63,319.897,100.443,319.904,106.141,320.02z"/>
	<path fill="#22315E" d="M123.579,279.174c-0.277,6.615-0.63,15.546-0.876,23.858c-4.163-5.817-8.499-12.739-11.357-17.449
		C115.66,282.717,119.95,280.439,123.579,279.174z"/>
	<path fill="#791613" d="M88.001,333.023c-3.215,0.42-5.162,0.879-6.045,1.119c-1.764-4.644-2.941-8.464-2.941-8.464l-0.242-0.272
		c0.319-0.271,0.635-0.584,0.971-0.931c0,0,0.125-0.004,0.389,0.007c-0.066,0.152-0.095,0.295-0.102,0.434
		c2.124-0.013,4.999-0.019,8.18-0.06C88.069,327.756,87.979,330.529,88.001,333.023z"/>
	<path fill="#C8C3C3" d="M88.23,324.45c-0.007,0.134-0.013,0.268-0.018,0.404c-3.182,0.041-6.057,0.048-8.181,0.06
		c0.007-0.139,0.035-0.281,0.101-0.434C81.17,324.462,84.278,324.446,88.23,324.45z"/>
	<path fill="#C8C3C3" d="M88.474,320.57c-0.095,1.301-0.175,2.602-0.245,3.881c-3.952-0.005-7.06,0.012-8.097,0.03
		c0.497-1.283,2.581-3.083,2.662-4.255c1.362-0.101,3.359-0.179,5.726-0.235C88.495,320.184,88.49,320.375,88.474,320.57z"/>
	<path fill="#791613" d="M137.377,278.915c-2.674-0.628-5.363-1.011-7.861-0.925c-0.197-6.562-0.192-11.841,0.272-13.016
		c2.229-1.251,4.547-2.469,6.974-3.617C136.762,261.358,137.024,269.252,137.377,278.915z"/>
	<path fill="#C8C3C3" d="M129.516,277.991c-0.543,0.012-1.091,0.044-1.623,0.11c-1.278,0.14-2.722,0.509-4.314,1.073
		c0.26-6.026,0.441-10.143,0.441-10.143l-0.236-0.372c1.918-1.266,3.924-2.501,6.004-3.685
		C129.323,266.151,129.319,271.428,129.516,277.991z"/>
	<path fill="#1A1F3B" d="M80.132,324.481c-0.264-0.011-0.389-0.007-0.389-0.007c2.077-2.142,5.761-13.039,14.315-25.896
		c0.219,0.356,0.516,0.855,0.899,1.459c-3.271,4.017-5.465,8.07-5.79,11.652c-0.243,2.744-0.469,5.549-0.648,8.302
		c-2.367,0.056-4.364,0.134-5.726,0.235C82.713,321.398,80.629,323.198,80.132,324.481z"/>
	<path fill="#1A1F3B" d="M123.579,279.174c-3.629,1.265-7.917,3.543-12.234,6.408c-1.251-2.045-2.205-3.678-2.764-4.621
		c4.362-4.286,9.405-8.465,15.203-12.302l0.236,0.372C124.02,269.031,123.84,273.148,123.579,279.174z"/>
	<path fill="#C8C3C3" d="M111.345,285.582c-1.146,0.762-2.278,1.552-3.423,2.385c-1.577-2.126-2.496-3.389-2.496-3.389l-0.19-0.182
		c1.068-1.161,2.188-2.296,3.343-3.436C109.14,281.905,110.094,283.538,111.345,285.582z"/>
	<path fill="#791613" d="M96.834,297.861c-0.659,0.716-1.287,1.442-1.877,2.175c-0.383-0.602-0.68-1.103-0.899-1.459
		c3.055-4.577,6.734-9.411,11.179-14.18l0.19,0.182c0,0,0.919,1.261,2.496,3.389C103.895,290.942,100.003,294.362,96.834,297.861z"
		/>
</g>
<defs>
	<filter id="Adobe_OpacityMaskFilter_2_" filterUnits="userSpaceOnUse" x="151.075" y="286.154" width="146.382" height="131.71">
		<feColorMatrix  type="matrix" values="1 0 0 0 0  0 1 0 0 0  0 0 1 0 0  0 0 0 1 0"/>
	</filter>
</defs>
<mask maskUnits="userSpaceOnUse" x="151.075" y="286.154" width="146.382" height="131.71" id="SVGID_3_">
	<g filter="url(#Adobe_OpacityMaskFilter_2_)">
		<g>
			<path fill="#FFFFFF" d="M286.274,347.933c-0.237-2.086-0.335-2.779-0.335-2.779S285.94,346.47,286.274,347.933z M286.299,347.979
				c0.552,4.892,1.823,17.38,4.243,46.411c3.477,41.567,0.454,54.87-8.774,54.87c-9.253,0-11.194-33.561-11.194-33.561h-81.504
				c0,0-9.397,35.286-16.323,35.286c-6.93,0-6.93-5.774-8.08-25.408c-0.311-5.394,0.239-13.305,1.199-21.959
				c0.527-4.745,1.198-9.686,1.893-14.576c0.382-2.658,0.792-5.296,1.174-7.861c2.446-15.461,4.963-28.383,4.963-28.383
				s-16.158,17.333-23.084,10.403c-6.953-6.927,14.287-43.388,14.287-43.388c3.549-5.201,5.801-11.84,7.238-18.362
				c2.902-13.377,2.351-26.394,2.351-26.394s-11.194-44.754-14.383-62.326c-3.188-17.572-25.577-39.961-25.577-39.961l28.767,11.196
				c0,0,11.194,4.793,46.361,3.188c35.144-1.583,41.543-1.583,57.532-7.982c5.275-2.11,24.931-20.208,25.531-20.738
				c-0.383,1.656-12.776,54.633-14.36,75.081c-1.581,20.76,0.454,75.392,0.454,75.392s23.087,36.248,15.009,41.593
				C288.791,353.949,286.947,350.713,286.299,347.979z"/>
		</g>
	</g>
</mask>
<g mask="url(#SVGID_3_)">
	<path fill="#C52A2B" d="M297.349,286.154c0.176,3.458,0.126,6.915-0.066,10.236l-19.831,39.12c0,0-1.165,4.066-9.277,6.952
		c-8.101,2.9-9.84,0.592-4.053-6.363c5.788-6.95,22.594-41.135,22.594-41.135l-0.296-0.591
		C290.903,292.164,294.657,289.505,297.349,286.154z"/>
	<path fill="#FFFFFF" d="M277.451,335.509l19.831-39.119c-0.419,8.008-1.547,15.292-1.877,20.002c0,0-8.447,13.192-16.842,23.81
		c14.061-6.571,16.269-9.316,16.269-9.316h0.138c-0.033,1.686-0.089,3.44-0.158,5.229c-2.519,1.965-28.847,12.811-49.233,17.658
		c1.896-20.279-0.574-48.381-0.574-48.381l-0.049-0.977c2.188-0.116,4.31-0.326,6.376-0.605l0.052,0.419
		c0,0,1.096,16.036,0.105,34.217c22.401-16.266,29.438-40.579,29.438-40.579l-0.381-1.006c2.069-0.767,4.033-1.584,5.872-2.488
		l0.296,0.591c0,0-16.806,34.185-22.594,41.135c-5.787,6.954-4.047,9.265,4.053,6.363
		C276.287,339.575,277.451,335.509,277.451,335.509z"/>
	<path fill="#22315E" d="M295.406,316.392c-0.19,2.869-0.261,8.185-0.436,14.494h-0.138c0,0-2.208,2.745-16.269,9.316
		C286.957,329.585,295.406,316.392,295.406,316.392z"/>
	<path fill="#FFFFFF" d="M288.246,388.358c0.049-0.054,0.104-0.106,0.156-0.174c-0.053,3.317,0.051,6.481,0.276,9.299l-0.227,0.017
		c0,0,0,0.816-1.476,2.538l-0.835-0.801c0,0-19.117-17.38-29.543-22.019c-10.427-4.624-9.854,2.9-6.951,7.541
		c0.869,1.406,3.893,4,7.68,6.918c-1.425,1.406-2.848,3.127-4.137,5.006c-1.843-1.132-3.857-2.4-5.979-3.775
		c-0.362,4.156-0.796,7.979-1.389,11.263c-2.38,1.515-5.231,3.009-8.222,4.379c1.913-9.419,4.278-27.284,6.291-41.985
		c14.828-1.808,29.598-5.145,35.872-8.463c9.852-5.213,13.33-8.1,13.33-8.1l0.888,0.07c-0.195,2.223-0.436,4.414-0.714,6.499
		c-2.676,1.39-18.268,9.332-31.455,11.954c-1.235,0.246-2.68,0.472-4.312,0.661c10.427,7.699,19.014,13.801,22.837,15.572
		c7.544,3.477,7.544,3.477,7.544,3.477L288.246,388.358z"/>
	<path fill="#22315E" d="M293.268,356.571c-0.485,3.578-1.112,6.883-1.913,9.646c-1.964,6.761-2.849,14.735-2.952,21.967
		c-0.053,0.067-0.107,0.12-0.156,0.174l-0.364-0.122c0,0,0,0-7.544-3.477c-3.823-1.771-12.41-7.872-22.837-15.571
		c1.631-0.19,3.077-0.416,4.312-0.662C275,365.904,290.591,357.961,293.268,356.571z"/>
	<path fill="#C52A2B" d="M286.142,399.236l0.835,0.801c-1.305,1.526-3.771,3.733-8.378,6.723c0,0-5.403-3.598-11.555-7.938
		c-0.208-2.158-0.555-4.626-0.764-7.544c-0.383-5.421-4.642-3.91-8.951,0.401c-3.788-2.919-6.811-5.512-7.68-6.917
		c-2.904-4.642-3.477-12.165,6.951-7.542C267.025,381.857,286.142,399.236,286.142,399.236z"/>
	<path fill="#22315E" d="M280.547,296.86l0.381,1.006c0,0-7.037,24.313-29.438,40.579c0.991-18.18-0.105-34.217-0.105-34.217
		l-0.052-0.419c1.598-0.191,3.163-0.435,4.675-0.73C264.906,301.362,273.352,299.499,280.547,296.86z"/>
	<path fill="#FFFFFF" d="M278.599,406.759c-0.868,0.559-1.77,1.079-2.692,1.548c-0.835-0.398-3.166-1.548-8.882-4.274
		c0.294-1.547,0.224-3.249,0.019-5.212C273.196,403.161,278.599,406.759,278.599,406.759z"/>
	<path fill="#22315E" d="M267.025,404.032c5.716,2.727,8.046,3.876,8.882,4.274c-9.282,4.675-20.837,4.832-21.603,4.832
		c0.609-0.106,7.491-1.182,10.811-5.06C266.194,406.812,266.764,405.49,267.025,404.032z"/>
	<path fill="#C8C3C3" d="M267.044,398.821c0.205,1.963,0.275,3.665-0.019,5.212c-1.493-0.713-3.214-1.531-5.212-2.486
		c-2.12-1.005-5.074-2.673-8.621-4.863c1.288-1.878,2.711-3.599,4.136-5.005C260.319,393.971,263.776,396.49,267.044,398.821z"/>
	<path fill="#791613" d="M266.28,391.277c0.21,2.919,0.556,5.387,0.764,7.544c-3.268-2.33-6.725-4.849-9.716-7.143
		C261.638,387.365,265.896,385.856,266.28,391.277z"/>
	<path fill="#1A1F3B" d="M267.025,404.032c-0.26,1.458-0.831,2.778-1.91,4.047c-3.32,3.878-10.202,4.954-10.811,5.061
		c-0.02,0-0.02,0-0.036,0c-2.048-0.594-6.463,0.156-12.129,1.11c1.669-1.856,2.833-5.422,3.685-10.079
		c2.762-1.753,4.917-3.578,5.978-5.351c0.436-0.731,0.903-1.445,1.391-2.138c3.547,2.19,6.5,3.858,8.621,4.863
		C263.811,402.501,265.531,403.32,267.025,404.032z"/>
	<path fill="#22315E" d="M253.191,396.683c-0.488,0.692-0.955,1.406-1.391,2.138c-1.061,1.771-3.215,3.598-5.977,5.351
		c0.593-3.284,1.027-7.106,1.389-11.263C249.334,394.283,251.349,395.551,253.191,396.683z"/>
	<path fill="#C8C3C3" d="M245.824,404.17c-0.852,4.658-2.015,8.224-3.685,10.079c-1.964,0.331-4.085,0.696-6.326,1.046l-0.068-0.419
		c0.539-0.66,1.163-2.954,1.858-6.327C240.592,407.179,243.444,405.686,245.824,404.17z"/>
	<path fill="#791613" d="M237.603,408.55c-0.694,3.373-1.319,5.667-1.858,6.326l0.068,0.419c-4.014,0.606-8.395,1.144-12.825,1.32
		c-2.384,0.087-4.901,0.19-7.49,0.296C215.497,416.911,227.317,413.327,237.603,408.55z"/>
	<path fill="#FFFFFF" d="M228.202,304.574v0.243c0,0-1.356,29.054-2.884,50.99c-5.649-0.402-12.375-1.374-19.412-2.642l0.66-3.685
		c4.952,0.867,9.47,1.094,9.47,1.094l-38.961-43.551c1.564-0.468,3.368-0.869,5.3-1.216c8.813,9.243,24.661,25.25,39.031,36.458
		c0.348-20.401-0.155-38.038-0.155-38.038v-0.02C223.561,304.366,225.872,304.486,228.202,304.574z"/>
	<path fill="#C52A2B" d="M245.579,353.773c1.896-20.279-0.573-48.381-0.573-48.381l-0.049-0.977
		c-5.39,0.365-11.071,0.365-16.754,0.16v0.243c0,0-1.356,29.054-2.884,50.99c-5.649-0.402-12.375-1.374-19.412-2.642
		c-19.777-3.599-42.004-9.561-49.67-11.681h-0.019c-0.744,3.841-1.406,8.254-1.564,12.808c10.863,2.973,49.132,13.175,65.449,13.662
		c1.374,0.033,2.799,0.052,4.277,0.018c-1.948,21.167-6.188,45.34-8.917,48.07l0.037,0.868c0,0,11.819-3.583,22.105-8.361
		c1.913-9.42,4.278-27.284,6.29-41.986c14.829-1.807,29.598-5.144,35.872-8.462c9.852-5.213,13.33-8.1,13.33-8.1l0.888,0.069
		c0.416-4.604,0.676-9.419,0.83-13.957C292.294,338.08,265.965,348.926,245.579,353.773z"/>
	<path fill="#FFFFFF" d="M220.102,367.955c1.374,0.033,2.799,0.052,4.277,0.018c-1.948,21.167-6.188,45.341-8.917,48.07l0.037,0.868
		c-3.059,0.121-6.188,0.26-9.277,0.419l0.016-0.769c0.171-0.329,1.32-2.4,8.653-15.59c1.826-3.266,3.163-9.418,4.136-17.082
		c-2.692,1.792-5.072,3.438-7.036,4.918c-10.688,8.029-25.513,18.806-31.768,23.324c-3.026-1.219-5.861-2.435-7.893-3.443
		l44.299-33.209c0,0-3.476-3.474-9.282-2.886c-4.484,0.451-30.343,16.804-41.811,24.174c-0.262-1.024-0.522-2.086-0.781-3.196
		c3.996-2.14,9.468-4.99,15.953-8.239c5.768-2.886,14.334-8.376,24.119-14.944c-5.333-0.175-9.436-0.417-11.382-0.695
		c-6.446-0.921-29.422-5.874-38.527-7.873c-0.278-2.5-0.347-5.021-0.263-7.525C165.516,357.266,203.785,367.468,220.102,367.955z"/>
	<path fill="#22315E" d="M221.249,304.229c0,0,0.504,17.637,0.156,38.038c-14.371-11.208-30.219-27.214-39.032-36.458
		c13.938-2.399,35.243-1.425,35.243-1.425l0.036-0.435c1.183,0.103,2.4,0.189,3.597,0.259V304.229z"/>
	<path fill="#1A1F3B" d="M217.652,303.95l-0.036,0.435c0,0-21.305-0.975-35.243,1.425c-4.274-4.483-6.881-7.368-6.881-7.368
		l0.171-0.698c5.945,1.67,13.383,3.388,20.681,4.172C202.429,302.56,209.831,303.374,217.652,303.95z"/>
	<path fill="#22315E" d="M219.024,383.891c-0.974,7.664-2.31,13.815-4.136,17.082c-7.333,13.189-8.482,15.261-8.653,15.59
		l-0.015,0.769c-1.41,0.067-2.801,0.135-4.173,0.205c-0.035,0-0.054,0-0.071,0.019c-1.251,0.069-2.466,0.137-3.65,0.204
		c-0.589,0.021-1.269,0-1.998-0.018c-3.181-0.762-10.062-3.196-16.109-5.61c6.255-4.519,21.081-15.295,31.768-23.324
		C213.952,387.328,216.332,385.683,219.024,383.891z"/>
	<path fill="#C52A2B" d="M216.627,375.48l-44.299,33.209c-0.903-0.432-1.647-0.833-2.208-1.18c-2.014-1.27-3.265-5.371-4.585-10.741
		c11.468-7.37,37.327-23.724,41.811-24.174C213.15,372.005,216.627,375.48,216.627,375.48z"/>
	<path fill="#C52A2B" d="M177.074,307.025l38.961,43.551c0,0-4.52-0.227-9.47-1.094c-2.955-0.521-6.083-1.287-8.481-2.382
		c-4.572-2.085-22.245-20.835-31.873-31.28c1.599-2.139,3.476-4.226,5.649-6.223C172.989,308.555,174.797,307.702,177.074,307.025z"
		/>
	<path fill="#FFFFFF" d="M206.566,349.482l-0.66,3.685c-19.777-3.598-42.004-9.561-49.67-11.681
		c0.243-1.354,0.522-2.641,0.801-3.839c4.936,1.322,14.493,3.769,25.599,6.064c-9.352-9.087-16.008-17.378-19.882-22.625
		c0.973-1.759,2.12-3.528,3.458-5.267c9.628,10.444,27.301,29.195,31.873,31.28C200.482,348.195,203.611,348.96,206.566,349.482z"/>
	<path fill="#22315E" d="M193.444,369.693c1.945,0.278,6.049,0.521,11.382,0.695c-9.785,6.568-18.351,12.06-24.119,14.944
		c-6.485,3.25-11.958,6.1-15.954,8.239c-1.566-6.448-3.442-14.109-6.797-20.821c-1.686-3.37-2.625-7.108-3.041-10.932
		C164.022,363.819,186.998,368.772,193.444,369.693z"/>
	<path fill="#FFFFFF" d="M198.327,417.759c-0.467,0.035-0.941,0.07-1.406,0.105c-0.174-0.035-0.382-0.085-0.592-0.123
		C197.059,417.759,197.738,417.781,198.327,417.759z"/>
	<path fill="#1A1F3B" d="M180.221,412.132c6.046,2.414,12.927,4.848,16.108,5.609c-1.98-0.032-4.467-0.205-7.508-0.553
		c-3.165-0.365-7.177-1.636-11.158-3.197C178.15,413.643,179.038,413.001,180.221,412.132z"/>
	<path fill="#FFFFFF" d="M182.373,305.809c-1.931,0.346-3.736,0.747-5.3,1.216l-10.271-11.487l0.119-0.471
		c2.172,0.731,5.197,1.688,8.741,2.676l-0.171,0.698C175.493,298.441,178.099,301.326,182.373,305.809z"/>
	<path fill="#C8C3C3" d="M180.221,412.132c-1.183,0.869-2.07,1.51-2.557,1.859c-2.989-1.167-5.945-2.486-8.533-3.703l1.147-0.052
		l2.05-1.548C174.36,409.698,177.195,410.913,180.221,412.132z"/>
	<path fill="#791613" d="M166.803,295.538l10.271,11.487c-2.277,0.678-4.086,1.53-5.213,2.572c-2.173,1.997-4.05,4.084-5.649,6.223
		c-2.728-2.955-4.796-5.252-5.771-6.308c1.235-5.18,2.05-11.178,2.882-15.712c0,0,1.34,0.506,3.599,1.268L166.803,295.538z"/>
	<path fill="#791613" d="M172.328,408.689l-2.05,1.548l-1.147,0.052c-4.673-2.209-8.116-4.1-8.116-4.1
		c0.139-1.791-0.331-3.476-1.336-5.7l0.381-0.176c0,0,2.123-1.391,5.476-3.544c1.321,5.37,2.571,9.472,4.585,10.741
		C170.681,407.856,171.425,408.257,172.328,408.689z"/>
	<path fill="#22315E" d="M162.755,321.086c3.874,5.246,10.53,13.538,19.882,22.625c-11.106-2.296-20.664-4.742-25.599-6.064
		c0.574-2.487,1.128-4.553,1.493-6.03C159.365,328.296,160.72,324.698,162.755,321.086z"/>
	<path fill="#C8C3C3" d="M164.754,393.572c0.259,1.11,0.519,2.172,0.781,3.196c-3.354,2.154-5.476,3.544-5.476,3.544l-0.381,0.176
		c-0.434-0.974-0.99-2.033-1.635-3.268C159.018,396.683,161.345,395.394,164.754,393.572z"/>
	<path fill="#C8C3C3" d="M166.212,315.82c-1.338,1.738-2.485,3.508-3.458,5.267c-2.607-3.511-3.964-5.668-4.066-5.825v-0.017
		c0.676-1.668,1.251-3.631,1.753-5.733C161.415,310.568,163.485,312.865,166.212,315.82z"/>
	<path fill="#1A1F3B" d="M158.689,315.261c0.102,0.157,1.458,2.313,4.066,5.825c-2.035,3.612-3.39,7.21-4.224,10.53
		c-0.365,1.477-0.919,3.543-1.494,6.03c-1.809-0.471-2.99-0.817-3.409-0.922C155.282,327.585,157.368,318.599,158.689,315.261z"/>
	<path fill="#1A1F3B" d="M157.957,372.751c3.354,6.711,5.231,14.372,6.797,20.821c-3.409,1.822-5.737,3.11-6.71,3.649
		c-0.33-0.626-0.693-1.305-1.095-2.034c-3.424-6.378-5.595-22.662-5.856-34.183h0.068c0,0,1.426,0.311,3.755,0.815
		C155.332,365.643,156.271,369.381,157.957,372.751z"/>
	<path fill="#C8C3C3" d="M157.037,337.647c-0.278,1.198-0.558,2.485-0.801,3.839h-0.019c-1.753-0.485-2.743-0.763-2.743-0.763
		l-0.522-0.088c0.209-1.287,0.436-2.608,0.676-3.91C154.047,336.829,155.228,337.176,157.037,337.647z"/>
	<path fill="#791613" d="M156.217,341.486c-0.744,3.841-1.406,8.255-1.564,12.809c-1.855-0.521-2.919-0.815-2.919-0.815
		l-0.451-0.036c0.28-3.598,0.903-8.116,1.668-12.808l0.522,0.088C153.474,340.723,154.464,341,156.217,341.486z"/>
	<path fill="#C8C3C3" d="M154.653,354.294c-0.083,2.504-0.015,5.025,0.263,7.525c-2.329-0.504-3.755-0.815-3.755-0.815h-0.068
		c-0.035-2.121-0.018-4.086,0.068-5.789c0.035-0.558,0.071-1.147,0.123-1.772l0.451,0.036
		C151.734,353.48,152.797,353.773,154.653,354.294z"/>
</g>
<path fill="#C52A2B" d="M226.247,249.137c0,0,1.037-1.494,2.973-1.088c1.934,0.405,4.335-0.769,4.876-0.866
	c0.543-0.094,2.358,0.7,1.862,2.094c-0.497,1.392-2.642,4.009-2.515,4.731c0.131,0.725-2.495,0.63-2.495,0.63
	s-2.959-3.013-3.99-3.574C225.929,250.497,225.8,249.774,226.247,249.137z"/>
<path fill="none" stroke="#9D9D9C" stroke-width="1.6" stroke-miterlimit="10" d="M172.568,300.108c0,0-11.893,14.064-31.526,18.686
	c-19.636,4.62-51.976,0-51.976,3.466c0,3.465,1.154,34.648,21.943,34.648c20.789,0,36.959,6.93,39.269,12.704
	c2.311,5.776,16.17,13.86,16.17,13.86s-15.014,11.55-19.637,5.774c-4.617-5.774-18.48-27.72-28.874-25.409
	c-10.393,2.311-32.337,16.17-26.562,30.029c5.774,13.86,13.497,20.896,15.013,12.706c2.252-12.173,4.2-31.622,13.439-28.155
	c9.241,3.463,11.266,26.725,23.973,25.571c12.703-1.155,22.648-0.881,22.648-0.881"/>
<path fill="none" stroke="#878787" stroke-width="1.6" stroke-miterlimit="10" d="M278.483,308.398c0,0,23.1,36.229,15.014,41.581
	c-8.082,5.35-8.082-5.353-8.082-5.353s1.153,7.66,4.619,49.24c3.464,41.578,0.449,54.867-8.793,54.867
	c-9.238,0-11.186-33.561-11.186-33.561H188.55c0,0-9.395,35.288-16.327,35.288c-6.929,0-6.929-5.775-8.083-25.408
	c-1.154-19.637,9.24-72.767,9.24-72.767s-16.17,17.325-23.1,10.397c-6.93-6.929,14.299-43.398,14.299-43.398
	c10.842-15.855,9.588-44.747,9.588-44.747s-11.187-44.748-14.383-62.326c-3.195-17.579-25.571-39.955-25.571-39.955l28.767,11.188
	c0,0,11.185,4.799,46.345,3.198c35.159-1.602,41.553-1.602,57.532-7.992c5.349-2.141,25.571-20.777,25.571-20.777
	s-12.785,54.335-14.384,75.111C276.446,253.763,278.483,308.398,278.483,308.398z"/>
<path fill="none" stroke="#6E6D7A" stroke-width="1.6" stroke-linecap="round" stroke-linejoin="round" stroke-miterlimit="10" d="
	M198.139,259.754c-19.311,0.466-44.495-2.748-64.724,2.397"/>
<path fill="none" stroke="#6E6D7A" stroke-width="1.6" stroke-linecap="round" stroke-linejoin="round" stroke-miterlimit="10" d="
	M198.139,264.548c-15.856,0.859-30.244,4.935-45.546,9.588"/>
<path fill="none" stroke="#6E6D7A" stroke-width="1.6" stroke-linecap="round" stroke-linejoin="round" stroke-miterlimit="10" d="
	M253.275,254.96c18.826,2.093,38.946-10.14,59.929-9.59"/>
<path fill="none" stroke="#6E6D7A" stroke-width="1.6" stroke-linecap="round" stroke-linejoin="round" stroke-miterlimit="10" d="
	M258.069,264.548c9.549-4.904,29.178-2.238,38.354,2.397"/>
<ellipse fill="#FFFFFF" cx="205.563" cy="234.513" rx="0.999" ry="1.798"/>
<ellipse fill="#FFFFFF" cx="247.044" cy="231.423" rx="0.999" ry="1.798"/>
<path fill="none" stroke="#6E6D7A" stroke-width="1.6" stroke-linecap="round" stroke-linejoin="round" stroke-miterlimit="10" d="
	M231.597,253.823c1.274,5.733,0.974,10.237-4.022,14.108c-3.955,3.063-10.162,4.782-10.728-1.848c0.696-0.851,0.62,0.39,1.618,0.096
	"/>
<path fill="none" stroke="#6E6D7A" stroke-width="1.6" stroke-linecap="round" stroke-linejoin="round" stroke-miterlimit="10" d="
	M232.369,255.366c0.034,3.722,0.824,11.432,4.723,12.495c5.594,1.524,6.656-5.84,6.091-6.317"/>
</svg>
